<?xml version="1.0" standalone="no"?>
<!DOCTYPE svg PUBLIC "-//W3C//DTD SVG 1.1//EN" "http://www.w3.org/Graphics/SVG/1.1/DTD/svg11.dtd" >
<svg xmlns="http://www.w3.org/2000/svg">
<metadata>Generated by IcoMoon</metadata>
<defs>
<font id="icomoon" horiz-adv-x="1024">
<font-face units-per-em="1024" ascent="960" descent="-64" />
<missing-glyph horiz-adv-x="1024" />
<glyph unicode="&#x20;" horiz-adv-x="512" d="" />
<glyph unicode="&#xe900;" glyph-name="check" horiz-adv-x="1088" d="M524.8 864c-230.4 0-416-185.6-416-416s185.6-416 416-416 416 185.6 416 416-185.6 416-416 416zM524.8 96c-192 0-352 160-352 352s160 352 352 352c192 0 352-160 352-352s-153.6-352-352-352zM480 364.8l-102.4 108.8-44.8-51.2 153.6-147.2 236.8 281.6-51.2 38.4z" />
<glyph unicode="&#xe901;" glyph-name="info" d="M512 960c-282.77 0-512-229.23-512-512s229.23-512 512-512c282.77 0 512 229.23 512 512v0c-0.447 282.589-229.41 511.552-511.957 512h-0.043zM512 14.769c-239.267 0-433.231 193.964-433.231 433.231s193.964 433.231 433.231 433.231c239.267 0 433.231-193.964 433.231-433.231v0c-0.447-239.087-194.144-432.783-433.188-433.231h-0.043zM512 749.686c-36.108 0-65.378-29.271-65.378-65.378s29.271-65.378 65.378-65.378c36.108 0 65.378 29.271 65.378 65.378v0c0 36.108-29.271 65.378-65.378 65.378v0zM472.615 552.763h78.769v-367.852h-78.769v367.852z" />
<glyph unicode="&#xe902;" glyph-name="document" horiz-adv-x="801" d="M204.8 457.309h390.982v-74.473h-390.982v74.473zM204.8 289.745h223.418v-74.473h-223.418v74.473zM796.113 632.32c-4.372 15.012-10.468 28.12-18.225 40.047l0.351-0.576c-12.057 17.737-25.559 33.13-40.721 46.707l-0.239 0.21-175.011 176.5c-13.953 15.169-29.321 28.645-46.015 40.359l-0.903 0.601c-11.759 8.32-25.345 15.157-39.905 19.816l-1.055 0.291c-14.576 3.1-31.323 4.875-48.485 4.875-4.951 0-9.867-0.148-14.744-0.439l0.672 0.032h-196.608c-9.83 1.18-21.214 1.853-32.754 1.853-36.38 0-71.198-6.689-103.291-18.903l1.994 0.667c-28.156-14.923-50.613-37.38-65.13-64.698l-0.406-0.838c-11.468-30.002-18.109-64.701-18.109-100.953 0-11.136 0.627-22.125 1.847-32.935l-0.122 1.326v-595.782c-1.241-10.058-1.95-21.701-1.95-33.509 0-36.385 6.725-71.199 18.999-103.267l-0.666 1.98c14.923-28.156 37.38-50.613 64.698-65.13l0.838-0.406c30.038-11.567 64.792-18.268 101.111-18.268 11.607 0 23.054 0.684 34.303 2.015l-1.362-0.131h372.364c10.058-1.241 21.701-1.95 33.509-1.95 36.385 0 71.199 6.725 103.267 18.999l-1.98-0.666c28.156 14.923 50.613 37.38 65.13 64.698l0.406 0.838c9.889 27.924 15.602 60.128 15.602 93.666 0 14.51-1.070 28.771-3.134 42.707l0.192-1.577v419.281c0.259 4.206 0.407 9.122 0.407 14.072 0 17.162-1.775 33.909-5.152 50.067l0.277-1.583zM465.455 879.569c4.338-1.328 8.039-2.845 11.566-4.652l-0.395 0.184c12.001-9.556 22.706-19.553 32.58-30.326l0.188-0.208 175.756-172.777c10.725-9.998 20.487-20.704 29.333-32.154l0.456-0.614c1.624-3.132 3.141-6.833 4.336-10.675l0.133-0.496h-112.454c-8.495-0.831-18.362-1.305-28.341-1.305-25.892 0-51.038 3.192-75.067 9.203l2.125-0.45c-13.332 6.963-24.022 17.413-31.085 30.152l-0.194 0.381c-5.55 21.775-8.736 46.773-8.736 72.515 0 9.867 0.468 19.624 1.383 29.251l-0.094-1.228zM726.109 150.481c0.916-8.511 1.438-18.385 1.438-28.38 0-25.929-3.515-51.038-10.094-74.874l0.464 1.972c-7.298-14.194-18.574-25.469-32.351-32.573l-0.417-0.195c-21.865-6.115-46.973-9.63-72.903-9.63-9.995 0-19.869 0.522-29.594 1.541l1.214-0.103h-372.364c-8.404-0.9-18.154-1.413-28.023-1.413-25.793 0-50.767 3.506-74.472 10.068l1.957-0.462c-14.194 7.298-25.469 18.574-32.573 32.351l-0.195 0.417c-4.523 18.872-7.116 40.54-7.116 62.813 0 13.569 0.963 26.913 2.823 39.967l-0.175-1.497v595.782c-0.9 8.404-1.413 18.154-1.413 28.023 0 25.793 3.506 50.767 10.068 74.472l-0.462-1.957c7.298 14.194 18.574 25.469 32.351 32.573l0.417 0.195c21.748 6.099 46.722 9.605 72.515 9.605 9.87 0 19.619-0.513 29.224-1.515l-1.201 0.101h175.756v-121.391c-1.132-9.836-1.778-21.234-1.778-32.783 0-36.303 6.382-71.116 18.086-103.377l-0.669 2.11c14.923-28.156 37.38-50.613 64.698-65.13l0.838-0.406c30.145-11.092 64.957-17.509 101.268-17.509 11.813 0 23.467 0.679 34.925 2l-1.397-0.131h119.156z" />
<glyph unicode="&#xe903;" glyph-name="search" d="M467.2 780.8c-160 0-288-128-288-288s128-288 288-288c160 0 288 128 288 288s-128 288-288 288zM467.2 268.8c-121.6 0-224 102.4-224 224s102.4 224 224 224c121.6 0 224-102.4 224-224s-96-224-224-224zM876.8 128l-128 128c-12.8 12.8-32 12.8-44.8 0s-12.8-32 0-44.8l128-128c6.4-6.4 12.8-6.4 25.6-6.4s19.2 0 25.6 6.4c6.4 12.8 6.4 32-6.4 44.8z" />
<glyph unicode="&#xe904;" glyph-name="map" horiz-adv-x="1267" d="M1221.965 916.4c-13.548 7.83-29.802 12.45-47.135 12.45s-33.586-4.62-47.597-12.696l0.462 0.246-225.068-109.588-512.589 149.652c-7.665 2.005-16.464 3.156-25.533 3.156-16.419 0-31.956-3.773-45.792-10.499l0.623 0.273-266.311-133.155c-32.358-16.071-54.206-48.892-54.206-86.816 0-0.134 0-0.269 0.001-0.403v0.021-666.955c1.243-53.703 45.072-96.762 98.958-96.762 15.424 0 30.024 3.528 43.037 9.82l-0.591-0.258 225.068 110.766 510.232-148.474c4.070-0.547 8.774-0.86 13.551-0.86s9.482 0.312 14.094 0.918l-0.543-0.058c15.927 0.022 30.934 3.942 44.124 10.856l-0.525-0.251 266.311 133.155c32.124 15.954 53.885 48.408 54.205 85.978v665.82c0.007 0.439 0.011 0.956 0.011 1.475 0 34.316-17.673 64.504-44.413 81.959l-0.376 0.23zM397.109 861.017l471.346-131.977v-694.058l-471.346 131.977zM120.193 14.951l-31.816 47.135v675.204l220.354 108.41v-684.631l-208.571-106.053zM1180.723 165.781l-225.068-117.837v686.987l213.284 106.053 11.784-8.249z" />
<glyph unicode="&#xe905;" glyph-name="document-add" horiz-adv-x="919" d="M775.089 434.609c-21.752 0-39.385-17.633-39.385-39.385v0-51.988c0-62.228 0-106.338 0-140.997-0.427-26.843-6.181-52.231-16.245-75.307l0.491 1.264c-20.188-42.010-53.301-75.123-94.113-94.791l-1.198-0.52c-21.585-8.809-46.582-14.478-72.736-15.734l-0.519-0.020c-35.446 0-78.769 0-140.997 0s-106.338 0-140.997 0c-26.674 1.276-51.671 6.945-74.782 16.3l1.527-0.546c-42.317 19.735-75.575 52.993-94.811 94.122l-0.5 1.189c-9.573 21.812-15.327 47.2-15.752 73.883l-0.002 0.16c0 34.658 0 78.769 0 140.997v209.526c0 62.228 0 106.338 0 140.997 0.427 26.843 6.181 52.231 16.245 75.307l-0.491-1.264c18.984 41.872 51.109 75.016 91.030 94.804l1.13 0.507c21.45 9.555 46.339 16.017 72.468 18.067l0.788 0.050c34.658 0 78.769 0 140.997 0v78.769c-60.652 0-108.702 0-146.511 0-36.973-0.969-71.762-9.282-103.3-23.525l1.688 0.682c-58.847-28.642-105.131-75.434-132.394-132.992l-0.726-1.703c-13.3-30.114-21.581-65.129-22.83-101.928l-0.013-0.472c0-38.597 0-86.646 0-147.298v-209.526c0-60.652 0-108.702 0-147.298 1.262-37.271 9.543-72.286 23.554-104.216l-0.711 1.816c28.263-58.629 74.491-104.857 131.446-132.39l1.674-0.73c29.751-14.066 64.471-22.909 101.085-24.401l0.528-0.017c37.809 0 85.858 0 146.511 0s107.914 0 146.511 0c36.701 0.969 71.221 9.283 102.477 23.517l-1.652-0.674c59.278 28.338 105.897 75.211 133.189 133.002l0.719 1.693c12.727 29.642 20.945 64.027 22.813 100.091l0.030 0.733c0 38.597 0 86.646 0 147.298v53.563c0 0.037 0 0.082 0 0.126 0 20.643-15.881 37.576-36.092 39.249l-0.142 0.009zM879.852 802.462h-118.154v118.154c0 21.752-17.633 39.385-39.385 39.385s-39.385-17.633-39.385-39.385v0-118.154h-118.154c-21.752 0-39.385-17.633-39.385-39.385s17.633-39.385 39.385-39.385v0h118.154v-118.154c0-21.752 17.633-39.385 39.385-39.385s39.385 17.633 39.385 39.385v0 118.154h118.154c21.752 0 39.385 17.633 39.385 39.385s-17.633 39.385-39.385 39.385v0zM210.314 434.609h393.846v-78.769h-393.846v78.769zM210.314 644.923h289.083v-78.769h-289.083v78.769zM210.314 225.083h289.083v-78.769h-289.083v78.769z" />
<glyph unicode="&#xe906;" glyph-name="document-check" horiz-adv-x="921" d="M762.57 531.006c-21.422 0-38.788-17.366-38.788-38.788v0-155.152c0-61.285 0-104.727 0-138.861-1.051-26.559-6.941-51.472-16.808-74.262l0.517 1.341c-19.366-41.488-51.804-74.177-91.932-93.367l-1.159-0.499c-21.491-8.607-46.367-14.183-72.368-15.493l-0.554-0.022c-34.133 0-77.576 0-138.861 0s-103.952 0-138.085 0c-26.525 1.162-51.423 6.754-74.426 16.052l1.504-0.537c-41.373 19.882-73.985 52.493-93.354 92.687l-0.512 1.179c-9.038 21.5-14.659 46.44-15.507 72.586l-0.009 0.335c0 34.133 0 77.576 0 138.861v128.776c-1.354 28.703-2.126 62.348-2.126 96.172 0 44.492 1.335 88.672 3.967 132.503l-0.29-6.033c1.987 41.369 16.24 79.058 39.168 109.918l-0.381-0.536c7.515 8.674 15.375 16.533 23.759 23.803l0.289 0.246c30.407 22.347 68.040 36.557 108.865 38.766l0.517 0.022c51.276 4.331 110.97 6.799 171.241 6.799 17.801 0 35.553-0.215 53.251-0.644l-2.626 0.050v77.576c-15.224 0.382-33.155 0.6-51.137 0.6-63.92 0-127.196-2.753-189.718-8.147l8.127 0.565c-57.041-3.456-108.647-24.224-150.291-57.064l0.57 0.433c-12.484-10.3-23.648-21.218-33.835-33.005l-0.298-0.353c-31.88-41.255-52.33-92.802-55.816-148.943l-0.039-0.779c-4.819-54.53-7.567-117.972-7.567-182.057 0-17.816 0.212-35.583 0.635-53.298l-0.049 2.627v-128c0-59.733 0-107.055 0-145.067 3.016-37.142 12.427-71.395 27.141-102.658l-0.766 1.81c27.86-57.959 73.716-103.565 130.219-130.394l1.66-0.709c29.065-13.774 62.98-22.474 98.748-24.029l0.549-0.019c38.012 0 84.558 0 144.291 0s107.055 0 144.291 0c36.412 0.954 70.675 9.141 101.735 23.168l-1.662-0.671c57.956 28.208 103.538 74.291 130.388 130.977l0.715 1.677c13.276 29.161 21.454 63.145 22.488 98.919l0.009 0.378c0 38.012 0 85.333 0 145.067v155.152c0.023 0.499 0.036 1.085 0.036 1.673 0 20.343-15.66 37.027-35.582 38.657l-0.139 0.009zM594.23 337.067c0 21.422-17.366 38.788-38.788 38.788v0h-310.303c-21.422 0-38.788-17.366-38.788-38.788v0c0-21.422 17.366-38.788 38.788-38.788v0h310.303c21.422 0 38.788 17.366 38.788 38.788v0zM245.139 453.43h207.127c21.422 0 38.788 17.366 38.788 38.788v0c-0.426 21.249-17.539 38.362-38.748 38.787l-0.040 0.001h-207.127c-21.422 0-38.788-17.366-38.788-38.788v0c0-21.422 17.366-38.788 38.788-38.788v0zM245.139 220.703c-21.422 0-38.788-17.366-38.788-38.788v0c0-21.422 17.366-38.788 38.788-38.788v0h207.127c21.422 0 38.788 17.366 38.788 38.788v0c-0.426 21.249-17.539 38.362-38.748 38.787l-0.040 0.001zM640 567.467l280.824 343.661-60.509 48.873-233.503-285.479-104.727 78.352-46.545-62.061 164.461-123.345z" />
<glyph unicode="&#xe907;" glyph-name="document-update" horiz-adv-x="846" d="M655.868 174.369c-0.955-24.145-6.31-46.793-15.28-67.511l0.47 1.219c-17.606-37.717-47.095-67.434-83.574-84.879l-1.054-0.454c-19.537-7.824-42.152-12.894-65.789-14.084l-0.503-0.020c-31.030 0-70.523 0-126.237 0s-94.501 0-125.532 0c-24.114 1.057-46.748 6.14-67.66 14.593l1.368-0.488c-37.612 18.074-67.259 47.721-84.868 84.261l-0.466 1.072c-8.216 19.546-13.327 42.218-14.097 65.987l-0.008 0.305c0 31.030 0 70.523 0 126.237v141.047c0 77.576 0 133.289 4.231 176.309 1.351 33.106 11.415 63.605 27.94 89.593l-0.436-0.733c11.956 17.066 26.203 31.537 42.495 43.362l0.524 0.362c25.521 15.906 56.291 25.739 89.278 26.792l0.287 0.007c40.658 3.417 87.992 5.365 135.781 5.365 13.507 0 26.977-0.156 40.409-0.465l-1.998 0.036v70.523c-76.165 0-136.11 0-184.066-4.937-45.63-2.398-87.458-16.798-122.946-40.072l0.94 0.579c-23.765-16.791-43.859-36.885-60.131-59.877l-0.519-0.773c-22.575-34.586-36.953-76.386-39.464-121.354l-0.029-0.652c-4.937-47.956-4.937-107.901-4.937-184.066v-141.047c0-54.303 0-97.322 0-131.879 2.255-33.631 10.339-64.83 23.254-93.375l-0.686 1.695c25.327-52.69 67.015-94.15 118.38-118.54l1.509-0.645c26.423-12.521 57.254-20.431 89.771-21.845l0.499-0.017c34.556 0 76.871 0 131.174 0s97.322 0 131.174 0c33.102 0.868 64.25 8.31 92.486 21.062l-1.511-0.61c52.687 25.643 94.126 67.537 118.535 119.070l0.65 1.525c12.069 26.51 19.504 57.404 20.444 89.927l0.008 0.343c0 34.556 0 77.576 0 131.879h-70.523c2.821-54.303 2.821-93.796 0.705-124.826zM540.209 300.606c0 19.475-15.787 35.262-35.262 35.262v0h-282.094c-19.475 0-35.262-15.787-35.262-35.262v0c0-19.475 15.787-35.262 35.262-35.262v0h282.094c19.475 0 35.262 15.787 35.262 35.262v0zM222.854 476.915c-19.475 0-35.262-15.787-35.262-35.262v0c0-19.475 15.787-35.262 35.262-35.262v0h188.298c19.475 0 35.262 15.787 35.262 35.262v0c-0.387 19.317-15.945 34.875-35.225 35.261l-0.037 0.001zM222.854 194.821c-19.475 0-35.262-15.787-35.262-35.262v0c0-19.475 15.787-35.262 35.262-35.262v0h188.298c19.475 0 35.262 15.787 35.262 35.262v0c-0.387 19.317-15.945 34.875-35.225 35.261l-0.037 0.001zM819.482 776.639l-17.631 30.325-61.355-35.262 17.631-30.325c10.689-18.57 16.994-40.834 16.994-64.571 0-26.604-7.92-51.358-21.53-72.033l0.305 0.494c-13.349-20.034-31.482-35.905-52.81-46.202l-0.788-0.343h-5.642l21.862 22.567-49.366 49.366-91.68-93.796-24.683-24.683 24.683-25.388 94.501-93.796 49.366 50.072-37.377 37.377c18.2 2.807 34.57 7.729 49.88 14.593l-1.219-0.489c34.332 15.793 62.518 39.904 82.771 69.823l0.447 0.7c20.207 29.245 32.509 65.312 33.144 104.216l0.002 0.159c0.049 1.661 0.077 3.615 0.077 5.576 0 37.459-10.247 72.524-28.091 102.546l0.51-0.926zM490.138 546.028l61.355 35.262-17.631 30.325c-10.746 18.366-17.092 40.44-17.092 63.995 0 2.296 0.060 4.578 0.179 6.845l-0.013-0.317c0.281 26.43 8.687 50.842 22.833 70.921l-0.265-0.397c13.675 19.821 32.333 35.305 54.189 44.817l0.819 0.318h3.526l-22.567-26.094 49.366-49.366 76.871 76.165 14.81 17.631 24.683 24.683-24.683 25.388-93.091 93.796-49.366-50.072 37.377-37.377c-16.546-2.279-31.522-6.729-45.432-13.106l1.002 0.412c-71.299-31.928-120.073-102.26-120.073-183.983 0-36.037 9.484-69.859 26.092-99.105l-0.52 0.995z" />
<glyph unicode="&#xe908;" glyph-name="star" horiz-adv-x="1055" d="M1050.696 570.041c-15.215 34.737-47.098 59.652-85.252 64.773l-0.558 0.061c-36.853 7.359-81.314 13.126-126.551 16.047l-3.118 0.161h-11.441l-73.415 8.581c-20.236 2.309-36.982 15.245-44.674 33.013l-0.138 0.358c-7.628 15.255-16.209 35.277-28.603 67.695v0c-17.845 53.689-36.233 98.14-57.277 141.052l2.931-6.616c-16.711 37.298-52.815 63.162-95.137 64.828l-0.207 0.006c-42.529-1.672-78.634-27.536-95.069-64.147l-0.276-0.688c-18.769-34.838-38.028-77.264-54.634-120.997l-2.573-7.718c-12.395-32.417-20.976-52.439-28.603-67.695s-12.395-20.022-18.115-22.883c-7.448-5.558-16.546-9.317-26.439-10.464l-0.257-0.024-73.415-8.581h-8.581c-48.352-3.083-92.814-8.849-136.324-17.283l6.655 1.074c-38.48-5.123-70.115-30.101-84.593-64.136l-0.264-0.699c-3.019-9.472-4.759-20.366-4.759-31.666 0-30.173 12.403-57.449 32.389-77.008l0.019-0.019c30.212-34.003 61.343-65.133 94.21-94.354l1.135-0.991 25.743-17.162 43.858-40.998c5.561-6.049 10.332-12.952 14.070-20.461l0.232-0.515c0.258-1.146 0.406-2.463 0.406-3.814s-0.148-2.667-0.428-3.934l0.022 0.12c0.981-3.721 1.544-7.992 1.544-12.395s-0.563-8.674-1.621-12.746l0.077 0.351c0-13.348-5.721-31.464-11.441-59.114v-17.162c-8.351-31.396-16.35-71.444-22.175-112.193l-0.707-6.034c-1.913-7.865-3.010-16.894-3.010-26.18 0-26.078 8.652-50.135 23.243-69.456l-0.211 0.291c12.97-14.614 29.77-25.556 48.83-31.271l0.749-0.193c6.645-1.348 14.283-2.119 22.101-2.119 27.856 0 53.426 9.792 73.454 26.122l-0.211-0.166c25.743 17.162 57.207 42.905 95.345 73.415s43.858 36.231 58.16 45.765c7.563 5.644 16.502 9.929 26.194 12.291l0.503 0.103h20.022c9.824-2.76 18.401-7.008 25.968-12.552l-0.225 0.157c14.302-9.534 31.464-23.836 58.16-45.765s69.601-56.253 95.345-73.415c19.817-16.163 45.387-25.955 73.243-25.955 7.818 0 15.456 0.771 22.842 2.242l-0.741-0.123c17.060 7.878 31.19 19.562 41.742 34.023l0.209 0.301c14.38 19.030 23.032 43.087 23.032 69.165 0 9.286-1.097 18.315-3.168 26.965l0.159-0.786c-6.532 46.783-14.532 86.831-24.584 126.056l1.702-7.829v17.162c-5.721 27.65-9.534 45.765-11.441 59.114-0.981 3.721-1.544 7.992-1.544 12.395s0.563 8.674 1.621 12.746l-0.077-0.351c-0.258 1.146-0.406 2.463-0.406 3.814s0.148 2.667 0.428 3.934l-0.022-0.12c3.97 8.023 8.741 14.927 14.359 21.040l-0.058-0.064 41.952 38.138 26.696 24.79c34.003 30.212 65.133 61.343 94.354 94.21l0.991 1.135c18.281 19.672 29.5 46.126 29.5 75.2 0 7.122-0.673 14.087-1.96 20.835l0.11-0.691zM863.821 449.907l-26.696-24.79c-17.775-15.329-33.949-30.899-49.24-47.304l-0.339-0.368c-14.056-13.733-25.349-30.224-33.012-48.608l-0.359-0.971c-2.032-5.402-4.001-12.102-5.525-18.97l-0.196-1.052c-2.041-9.027-3.211-19.394-3.211-30.034s1.17-21.007 3.387-30.978l-0.176 0.945c3.284-25.916 7.962-48.854 14.17-71.154l-0.822 3.46v-16.209c11.441-50.533 19.069-84.857 21.929-108.693 0.158-2.848 0.248-6.181 0.248-9.534s-0.090-6.686-0.268-9.996l0.020 0.461-16.209 9.534c-20.976 13.348-47.672 35.277-87.717 67.695-24.79 20.022-46.719 38.138-64.834 50.533-18.411 13.013-40.192 22.646-63.728 27.461l-1.106 0.189c-7.44 0.911-16.054 1.431-24.79 1.431s-17.349-0.52-25.812-1.53l1.023 0.099c-23.639-5.080-44.453-14.7-62.415-27.961l0.441 0.311c-19.069-12.395-40.998-30.51-65.788-50.533-40.045-32.417-66.741-54.346-87.717-67.695l-16.209-9.534c-0.158 2.848-0.248 6.181-0.248 9.534s0.090 6.686 0.268 9.996l-0.020-0.461c0 23.836 10.488 58.16 21.929 108.693v16.209c5.721 26.696 10.488 48.626 13.348 67.695 1.818 9.030 2.858 19.41 2.858 30.034s-1.040 21.004-3.025 31.045l0.167-1.011c-1.124 7.482-3.122 14.222-5.921 20.527l0.2-0.505c-8.022 19.355-19.315 35.847-33.342 49.552l-0.028 0.028c-15.63 16.773-31.804 32.343-48.787 47.004l-0.792 0.669-24.79 24.79c-30.771 25.762-58.49 52.575-84.187 81.237l-0.669 0.759c-2.838 3.074-5.365 6.511-7.482 10.213l-0.145 0.275h13.348c32.385 6.111 72.268 11.19 112.752 14.096l3.568 0.205h13.348c31.134 1.918 59.62 5.312 87.589 10.207l-4.64-0.672c24.943 4.374 47.115 13.737 66.337 27.057l-0.55-0.36c18.037 15.273 32.301 34.431 41.579 56.222l0.373 0.985c10.514 19.877 21.742 44.697 31.62 70.188l1.75 5.134v5.721c17.105 46.35 34.445 84.7 54.069 121.652l-2.583-5.332c3.311 4.598 6.753 8.646 10.491 12.398l-0.003-0.003c2.598-3.56 5.129-7.615 7.365-11.849l0.263-0.546c17.041-31.62 34.381-69.97 49.248-109.531l2.238-6.79v-5.721c12.632-30.412 24.773-55.171 38.186-79.122l-1.955 3.8c10.567-22.6 25.759-41.457 44.471-55.999l0.341-0.255c18.673-12.96 40.845-22.323 64.789-26.55l0.998-0.146c23.33-4.223 51.815-7.617 80.731-9.424l2.219-0.111h11.441c43.16-2.404 82.832-6.824 121.817-13.276l-6.451 0.882h13.348c-2.263-3.977-4.789-7.414-7.662-10.526l0.035 0.038c-26.48-30.641-54.215-58.377-83.834-83.992l-1.022-0.864z" />
<glyph unicode="&#xe909;" glyph-name="desk" horiz-adv-x="774" d="M772.307 733.776c-2.023 24.318-9.56 46.512-21.348 65.83l0.374-0.659c-10.551 14.99-23.213 27.652-37.716 37.877l-0.487 0.326c-18.23 11.201-39.877 18.707-63.066 20.928l-0.606 0.047c-21.723 0-47.941 0-79.403 0-16.328 59.009-69.448 101.653-132.563 101.876h-100.403c-61.967-0.623-114.092-42.043-130.842-98.653l-0.248-0.975c-31.462 0-57.68 0-79.403 0-24.318-2.023-46.512-9.56-65.83-21.348l0.659 0.374c-14.99-10.551-27.652-23.213-37.877-37.716l-0.326-0.487c-11.414-18.658-18.951-40.853-20.938-64.625l-0.037-0.545c0-23.222 0-51.687 0-86.145v-474.171c-0.216-7.161-0.34-15.584-0.34-24.035 0-31.906 1.756-63.403 5.177-94.398l-0.343 3.823c2.236-32.098 15.514-60.727 36.018-82.465l-0.062 0.066c21.673-20.442 50.301-33.72 81.98-35.933l0.419-0.023c27.173-3.078 58.669-4.834 90.575-4.834 8.452 0 16.876 0.123 25.269 0.368l-1.233-0.028h299.634c11.261-0.533 24.461-0.837 37.731-0.837 25.481 0 50.7 1.12 75.611 3.313l-3.227-0.229c64.383 2.388 115.968 53.973 118.349 118.133l0.007 0.222c3.078 27.173 4.834 58.669 4.834 90.575 0 8.452-0.123 16.876-0.368 25.269l0.028-1.233v474.171c2.247 34.458 2.247 62.923 0 86.145zM337.089 883.593h100.377c0.001 0 0.003 0 0.005 0 34.074 0 61.747-27.411 62.169-61.385v-0.040c0-0.001 0-0.003 0-0.004 0-34.488-27.746-62.496-62.134-62.918h-100.417c-34.428 0.423-62.174 28.431-62.174 62.919 0 0.002 0 0.003 0 0.005v0c-0.003 0.223-0.005 0.486-0.005 0.749 0 34.338 27.836 62.174 62.174 62.174 0.002 0 0.003 0 0.005 0v0zM699.646 171.962c0.246-7.327 0.387-15.941 0.387-24.586 0-28.278-1.501-56.205-4.427-83.706l0.295 3.421c0.033-0.686 0.051-1.49 0.051-2.298 0-28.546-23.141-51.687-51.687-51.687-0.808 0-1.612 0.019-2.412 0.055l0.113-0.004c-24.081-2.631-52.008-4.132-80.285-4.132-8.646 0-17.259 0.14-25.837 0.419l1.251-0.032h-299.634c-7.327-0.246-15.941-0.387-24.586-0.387-28.278 0-56.205 1.501-83.706 4.427l3.421-0.295c-14.982 0.178-28.612 5.827-39.016 15.037l0.063-0.055c-9.155 10.341-14.804 23.97-14.981 38.916v0.037c-1.121 15.685-1.76 33.986-1.76 52.436s0.639 36.75 1.896 54.881l-0.136-2.445v475.669c-0.609 11.187-0.956 24.28-0.956 37.454s0.347 26.268 1.032 39.271l-0.076-1.817c0.444 11.559 3.44 22.322 8.437 31.874l-0.197-0.413c4.639 6.858 10.371 12.59 17.008 17.088l0.221 0.141c9.139 4.8 19.902 7.796 31.321 8.236l0.14 0.004c17.229 0 39.702 0 74.909 0 18.11-54.129 67.635-92.75 126.406-94.381l0.189-0.004h100.377c62.242 0.463 114.578 42.336 130.854 99.411l0.236 0.967c32.211 0 54.683 0 74.909 0 11.559-0.444 22.322-3.44 31.874-8.437l-0.413 0.197c6.858-4.639 12.59-10.371 17.088-17.008l0.141-0.221c4.8-9.139 7.796-19.902 8.236-31.321l0.004-0.14c0.609-11.187 0.956-24.28 0.956-37.454s-0.347-26.268-1.032-39.271l0.076 1.817zM200.006 510.549h374.543v-74.909h-374.543v74.909zM200.006 310.543h274.914v-74.909h-274.914v74.909z" />
<glyph unicode="&#xe90a;" glyph-name="chevron-down" horiz-adv-x="1809" d="M902.737-64l-902.737 902.737 119.579 117.895 783.158-783.158 786.526 786.526 119.579-119.579-906.105-904.421z" />
<glyph unicode="&#xe90b;" glyph-name="sortable-down" horiz-adv-x="1643" d="M198.104 960l627.793-630.583 619.422 619.422 198.104-195.313-817.526-817.526-825.896 825.896 198.104 198.104z" />
<glyph unicode="&#xe90c;" glyph-name="sortable-up" horiz-adv-x="1643" d="M1445.319-64l-627.793 630.583-619.422-619.422-198.104 198.104 817.526 814.736 825.896-825.896-198.104-198.104z" />
<glyph unicode="&#xe90d;" glyph-name="sortable" horiz-adv-x="641" d="M563.69 560.629l-244.846 245.934-241.581-241.581-77.262 76.174 318.844 318.844 322.108-322.108-77.262-77.262zM322.108-64l-322.108 322.108 77.262 77.262 244.846-245.934 241.581 241.581 77.262-77.262-318.844-317.756z" />
<glyph unicode="&#xe90e;" glyph-name="archive_alt" horiz-adv-x="1082" d="M1076.648 433.522c-4.742 21.919-12.946 41.306-24.109 58.603l0.418-0.691c-16.96 24.448-35.74 45.735-56.708 64.642l-0.327 0.29-87.746 87.746v38.608c0.205 3.275 0.322 7.103 0.322 10.959 0 14.782-1.716 29.163-4.96 42.955l0.251-1.266c-2.874 14.318-8.376 26.99-16.017 38.073l0.223-0.342c-9.796 15.085-21.11 28.073-33.999 39.297l-0.222 0.189-94.766 94.766c-12.533 12.1-26.306 23.084-41.056 32.695l-1.062 0.649c-10.131 7.415-21.695 13.899-34.013 18.913l-1.086 0.391c-7.902 0.985-17.047 1.548-26.324 1.548s-18.422-0.562-27.404-1.655l1.080 0.107h-199.184c-11.782 1.46-25.418 2.294-39.249 2.294-42.648 0-83.444-7.923-120.999-22.378l2.305 0.78c-33.339-16.981-59.883-43.242-76.756-75.377l-0.461-0.963c-13.545-35.874-21.386-77.344-21.386-120.645 0-13.449 0.756-26.721 2.229-39.776l-0.147 1.601v-64.055l-87.746-87.746c-21.295-19.197-40.075-40.485-56.241-63.726l-0.794-1.206c-10.398-15.887-18.804-34.276-24.242-53.899l-0.327-1.381c-4.304-20.202-6.769-43.414-6.769-67.201 0-7.228 0.228-14.404 0.676-21.519l-0.049 0.973v-110.56c-1.67-13.893-2.623-29.981-2.623-46.291 0-50.135 9.003-98.166 25.481-142.566l-0.922 2.836c19.918-37.744 50.002-67.828 86.625-87.205l1.121-0.541c41.565-15.556 89.597-24.56 139.731-24.56 16.311 0 32.399 0.953 48.212 2.806l-1.921-0.183h489.625c13.893-1.67 29.981-2.623 46.291-2.623 50.135 0 98.166 9.003 142.566 25.481l-2.836-0.922c37.744 19.918 67.828 50.002 87.205 86.625l0.541 1.121c15.556 41.565 24.56 89.597 24.56 139.731 0 16.311-0.953 32.399-2.806 48.212l0.183-1.921v110.56c0.7 8.143 1.099 17.62 1.099 27.191 0 21.408-1.996 42.349-5.813 62.648l0.327-2.092zM933.621 494.944c15.902-14.876 30.296-30.939 43.193-48.187l0.681-0.951c6.507-9.509 11.385-20.693 13.932-32.736l0.108-0.607c0.576-5.133 0.904-11.083 0.904-17.111s-0.328-11.978-0.968-17.834l0.064 0.724h-87.746v143.027zM697.584 845.93l93.011-93.011c7.988-7.193 15.18-14.941 21.636-23.287l0.301-0.404h-43.873c-6.085-0.581-13.157-0.913-20.306-0.913-18.637 0-36.748 2.252-54.075 6.499l1.552-0.321c-8.294 4.396-14.908 11.010-19.185 19.057l-0.12 0.247c-3.305 15.489-5.197 33.285-5.197 51.523 0 7.19 0.294 14.312 0.871 21.353l-0.061-0.924v43.873c9.49-7.607 17.84-15.956 25.202-25.132l0.244-0.315zM272.891 825.748c8.599 16.724 21.884 30.009 38.117 38.378l0.491 0.23c24.223 6.401 52.031 10.077 80.698 10.077 13.306 0 26.426-0.792 39.317-2.331l-1.558 0.151h155.311v-50.015c-0.913-7.952-1.434-17.167-1.434-26.503 0-30.821 5.675-60.316 16.038-87.498l-0.565 1.686c13.177-24.631 33.037-44.208 57.163-56.683l0.75-0.352c25.388-10.407 54.853-16.447 85.73-16.447 9.368 0 18.606 0.556 27.683 1.637l-1.098-0.106h50.015v-273.769c-24.396-9.556-44.63-25.272-59.411-45.265l-0.256-0.363c-11.128-18.183-20.152-39.218-25.964-61.548l-0.36-1.629c-4.259-14.2-9.328-26.413-15.46-37.976l0.543 1.123c-5.614-8.292-13.792-14.48-23.381-17.466l-0.311-0.083c-6.182-0.629-13.359-0.987-20.62-0.987s-14.439 0.359-21.516 1.059l0.895-0.072h-224.631c-6.181-0.614-13.36-0.964-20.62-0.964s-14.44 0.35-21.521 1.034l0.9-0.070c-9.759 3.376-17.852 9.485-23.595 17.409l-0.097 0.14c-6.002 11.313-11.11 24.455-14.643 38.227l-0.274 1.259c-6.521 23.346-15.508 43.752-26.937 62.506l0.613-1.083c-15.037 20.356-35.272 36.072-58.762 45.314l-0.905 0.314v340.456c-1.083 9.968-1.701 21.529-1.701 33.235 0 30.317 4.144 59.666 11.897 87.512l-0.544-2.289zM102.663 442.296c14.277 17.944 28.923 33.98 44.576 48.972l0.174 0.166 26.324 26.324v-143.027h-87.746c-0.576 5.133-0.904 11.083-0.904 17.111s0.328 11.978 0.968 17.834l-0.064-0.724c3.922 12.732 9.607 23.812 16.884 33.644l-0.212-0.3zM980.127 82.536c-11.704-21.261-28.755-38.312-49.373-49.691l-0.642-0.325c-31.933-9.061-68.607-14.271-106.498-14.271-14.101 0-28.033 0.721-41.761 2.13l1.723-0.143h-486.992c-12.006-1.265-25.938-1.986-40.039-1.986-37.891 0-74.565 5.21-109.345 14.952l2.847-0.681c-20.212 12.049-36.354 29.035-47.056 49.335l-0.327 0.68c-9.061 31.933-14.271 68.607-14.271 106.498 0 14.101 0.721 28.033 2.13 41.761l-0.143-1.723v54.403h100.031c6.182 0.629 13.359 0.987 20.62 0.987s14.439-0.359 21.516-1.059l-0.895 0.072c9.743-2.97 17.867-8.821 23.605-16.549l0.087-0.122c5.524-11.093 10.606-24.201 14.505-37.808l0.411-1.678c6.055-23.305 15.082-43.761 26.848-62.307l-0.524 0.884c16.95-23.746 41.121-41.376 69.272-49.778l0.925-0.237c15.479-4.26 33.252-6.707 51.597-6.707 5.311 0 10.573 0.205 15.781 0.608l-0.69-0.043h220.243c2.048-0.075 4.454-0.117 6.87-0.117 20.064 0 39.444 2.928 57.736 8.38l-1.428-0.365c29.076 8.639 53.247 26.27 69.927 49.618l0.27 0.397c10.974 17.928 19.98 38.648 25.936 60.622l0.387 1.678c4.469 15.045 9.54 27.846 15.575 40.085l-0.658-1.476c5.825 7.851 13.948 13.702 23.368 16.587l0.323 0.085c6.182 0.629 13.359 0.987 20.62 0.987s14.439-0.359 21.516-1.059l-0.895 0.072h98.276v-54.403c1.504-13.096 2.362-28.273 2.362-43.65 0-37.215-5.025-73.256-14.435-107.482l0.666 2.84z" />
<glyph unicode="&#xe90f;" glyph-name="archive" d="M966.498 902.498c-60.652 57.502-139.422 57.502-296.96 57.502h-315.077c-157.538 0-236.308 0-296.96-57.502s-57.502-142.572-57.502-296.96v-315.077c0-157.538 0-236.308 57.502-296.96s139.422-57.502 296.96-57.502h315.077c157.538 0 236.308 0 296.96 57.502s57.502 142.572 57.502 296.96v315.077c0 154.388 0 239.458-57.502 296.96zM910.572 49.428c-34.658-34.658-103.188-34.658-241.034-34.658h-315.077c-137.846 0-206.375 0-241.034 34.658s-34.658 103.188-34.658 241.034v106.338c32.305-25.239 73.401-40.596 118.071-40.959l0.083-0.001h53.563c13.199-1.664 24.189-9.782 29.831-21.045l0.101-0.223 6.302-17.329 3.938-13.391c6.068-20.993 14.12-39.291 24.228-56.219l-0.598 1.080c15.38-21.144 37.014-36.913 62.162-44.672l0.854-0.227c13.963-3.81 29.995-5.998 46.538-5.998 4.69 0 9.338 0.176 13.94 0.521l-0.613-0.037h153.6c3.988-0.309 8.637-0.484 13.327-0.484 16.543 0 32.575 2.189 47.822 6.293l-1.284-0.294c26.002 7.986 47.635 23.754 62.776 44.553l0.24 0.345c9.511 15.847 17.562 34.145 23.212 53.468l0.419 1.67v13.391l6.302 17.329c5.743 11.485 16.734 19.604 29.742 21.248l0.19 0.020h53.563c44.767 0.238 85.896 15.619 118.573 41.277l-0.419-0.317v-106.338c0-137.846 0-206.375-34.658-241.034zM827.077 434.609h-64.591c-40.769-5.287-74.76-30.15-92.629-64.701l-0.318-0.677c0-5.514-5.514-12.603-10.24-26.782l-0.788-12.603c-4.012-13.506-8.564-24.997-13.981-35.984l0.591 1.325c-5.404-7.067-12.612-12.499-20.942-15.646l-0.325-0.108c-5.549-0.551-11.993-0.865-18.511-0.865s-12.962 0.314-19.319 0.928l0.808-0.063h-149.662c-5.549-0.551-11.993-0.865-18.511-0.865s-12.962 0.314-19.319 0.928l0.808-0.063c-8.656 3.254-15.864 8.687-21.184 15.64l-0.083 0.114c-5.050 9.806-9.611 21.308-13.053 33.285l-0.338 1.373-4.726 14.178c-6.302 12.603-6.302 19.692-6.302 25.206-17.785 34.158-50.423 58.474-89.115 64.503l-0.682 0.088h-67.742c-65.255 0-118.154 52.899-118.154 118.154v0 53.563c0 137.846 0 206.375 34.658 241.034s103.188 34.658 241.034 34.658h315.077c137.846 0 206.375 0 241.034-34.658s34.658-103.188 34.658-241.034v-52.775c0-65.255-52.899-118.154-118.154-118.154v0z" />
<glyph unicode="&#xe910;" glyph-name="arrow_drop_down" horiz-adv-x="1287" d="M594.238-40.124l-530.57 652.601c-30.567 36.514-49.131 83.986-49.131 135.794 0 112.095 86.905 203.892 197.015 211.691l0.676 0.038h864.829c116.485-0.953 210.546-95.602 210.546-212.221 0-51.583-18.403-98.867-49.001-135.647l0.279 0.345-543.834-652.601c-12.237-14.248-30.273-23.218-50.404-23.218s-38.167 8.969-50.33 23.129l-0.074 0.088z" />
<glyph unicode="&#xe911;" glyph-name="calendar" d="M827.077 802.462h-65.378v118.154c0 21.752-17.633 39.385-39.385 39.385v0c-21.752 0-39.385-17.633-39.385-39.385v0-118.154h-341.858v118.154c0 21.752-17.633 39.385-39.385 39.385v0c-21.752 0-39.385-17.633-39.385-39.385v0-118.154h-65.378c-108.758 0-196.923-88.165-196.923-196.923v0-472.615c0-108.758 88.165-196.923 196.923-196.923v0h630.154c108.758 0 196.923 88.165 196.923 196.923v0 472.615c0 108.758-88.165 196.923-196.923 196.923v0zM945.231 132.923c0-65.255-52.899-118.154-118.154-118.154v0h-630.154c-65.255 0-118.154 52.899-118.154 118.154v0 328.468h866.462zM945.231 540.16h-866.462v65.378c0 65.255 52.899 118.154 118.154 118.154v0h65.378v-13.391c0.432-21.575 17.809-38.952 39.344-39.384l0.041-0.001c21.752 0 39.385 17.633 39.385 39.385v0 13.391h341.858v-13.391c0-21.752 17.633-39.385 39.385-39.385v0c21.575 0.432 38.952 17.809 39.384 39.344l0.001 0.041v13.391h65.378c65.255 0 118.154-52.899 118.154-118.154v0zM354.462 198.302h315.077c21.752 0 39.385 17.633 39.385 39.385v0c0 21.752-17.633 39.385-39.385 39.385v0h-315.077c-21.752 0-39.385-17.633-39.385-39.385v0c0-21.752 17.633-39.385 39.385-39.385v0z" />
<glyph unicode="&#xe912;" glyph-name="darhboard_alt" d="M307.112 960h-175.493c-72.691 0-131.62-58.928-131.62-131.62v0-233.405c0-72.691 58.928-131.62 131.62-131.62v0h175.493c72.691 0 131.62 58.928 131.62 131.62v0 233.405c0 72.691-58.928 131.62-131.62 131.62v0zM350.985 594.975c0-24.23-19.643-43.873-43.873-43.873v0h-175.493c-24.23 0-43.873 19.643-43.873 43.873v0 233.405c0 24.23 19.643 43.873 43.873 43.873v0h175.493c24.23 0 43.873-19.643 43.873-43.873v0zM307.112 316.819h-175.493c-72.691 0-131.62-58.928-131.62-131.62v0-116.703c0-72.691 58.928-131.62 131.62-131.62v0h175.493c72.691 0 131.62 58.928 131.62 131.62v0 116.703c0 72.691-58.928 131.62-131.62 131.62v0zM350.985 68.497c0-24.23-19.643-43.873-43.873-43.873v0h-175.493c-24.23 0-43.873 19.643-43.873 43.873v0 116.703c0 24.23 19.643 43.873 43.873 43.873v0h175.493c24.23 0 43.873-19.643 43.873-43.873v0zM891.503 960h-175.493c-72.691 0-131.62-58.928-131.62-131.62v0-116.703c0-72.691 58.928-131.62 131.62-131.62v0h175.493c72.691 0 131.62 58.928 131.62 131.62v0 116.703c0 72.691-58.928 131.62-131.62 131.62v0zM935.376 711.678c0-24.23-19.643-43.873-43.873-43.873v0h-175.493c-24.23 0-43.873 19.643-43.873 43.873v0 116.703c0 24.23 19.643 43.873 43.873 43.873v0h175.493c24.23 0 43.873-19.643 43.873-43.873v0zM891.503 433.522h-175.493c-72.691 0-131.62-58.928-131.62-131.62v0-233.405c0-72.691 58.928-131.62 131.62-131.62v0h175.493c72.691 0 131.62 58.928 131.62 131.62v0 233.405c0 72.691-58.928 131.62-131.62 131.62v0zM935.376 68.497c0-24.23-19.643-43.873-43.873-43.873v0h-175.493c-24.23 0-43.873 19.643-43.873 43.873v0 233.405c0 24.23 19.643 43.873 43.873 43.873v0h175.493c24.23 0 43.873-19.643 43.873-43.873v0z" />
<glyph unicode="&#xe913;" glyph-name="expand_left_right" horiz-adv-x="598" d="M171.257 448.591l424.009 425.19-83.857 86.219-511.409-511.409 511.409-512.591 86.219 86.219-426.371 426.371z" />
<glyph unicode="&#xe914;" glyph-name="folder_alt" d="M1024 658.314v0c0 121.305-7.089 192.985-57.502 244.185s-139.422 57.502-296.96 57.502h-315.077c-157.538 0-236.308 0-296.96-57.502s-57.502-142.572-57.502-296.96v-315.077c0-157.538 0-236.308 57.502-296.96s139.422-57.502 296.96-57.502h315.077c157.538 0 236.308 0 296.96 57.502s57.502 142.572 57.502 296.96v367.852zM354.462 881.231h315.077c137.846 0 206.375 0 241.034-34.658s33.871-85.858 34.658-189.834c-0.888-64.573-53.443-116.578-118.143-116.578-0.004 0-0.007 0-0.011 0h-236.307c-7.050-0.532-15.269-0.836-23.56-0.836-22.881 0-45.221 2.312-66.801 6.714l2.139-0.365c-12.602 3.962-23.57 9.317-33.536 16.042l0.453-0.288c-21.699 19.834-40.677 42.066-56.688 66.423l-0.814 1.318c-21.879 32.753-47.98 60.608-77.954 83.68l-0.816 0.603c-15.591 11.38-33.609 20.743-52.966 27.171l-1.385 0.399c-25.853 6.046-55.539 9.512-86.034 9.512-9.084 0-18.096-0.308-27.026-0.913l1.208 0.066h-85.071c-0.077 1.778-0.121 3.864-0.121 5.96 0 34.489 11.917 66.194 31.858 91.223l-0.229-0.297c34.658 34.658 103.188 34.658 241.034 34.658zM910.572 49.428c-34.658-34.658-103.188-34.658-241.034-34.658h-315.077c-137.846 0-206.375 0-241.034 34.658s-34.658 103.188-34.658 241.034v380.455h92.16c7.050 0.532 15.269 0.836 23.56 0.836 22.881 0 45.221-2.312 66.801-6.714l-2.139 0.365c12.313-3.768 23.039-9.137 32.636-15.985l-0.341 0.231c21.699-19.834 40.677-42.066 56.688-66.423l0.814-1.318c22.602-32.234 48.598-59.982 77.997-83.681l0.772-0.602c15.622-11.198 33.617-20.542 52.887-27.134l1.463-0.435c25.647-5.948 55.097-9.358 85.344-9.358 8.217 0 16.376 0.252 24.468 0.748l-1.11-0.054h236.308c0.086 0 0.189 0 0.292 0 44.578 0 85.626 15.115 118.299 40.499l-0.436-0.326v-211.102c0-137.846 0-206.375-34.658-241.034zM669.538 277.071h-419.84c-21.752 0-39.385-17.633-39.385-39.385v0c0-21.752 17.633-39.385 39.385-39.385v0h419.84c21.752 0 39.385 17.633 39.385 39.385v0c0 21.752-17.633 39.385-39.385 39.385v0z" />
<glyph unicode="&#xe915;" glyph-name="import_light" d="M512.496 245.282l365.785 365.785-68.399 69.39-247.822-245.839v475.818c0 27.374-22.191 49.564-49.564 49.564s-49.564-22.191-49.564-49.564v0-475.818l-247.822 245.839-70.381-69.39 331.090-331.090zM925.863 182.831v-65.425c-0.552-45.764-37.504-82.716-83.216-83.268h-660.249c-45.764 0.552-82.716 37.504-83.268 83.216v65.477h-99.129v-65.425c0.559-100.509 81.888-181.838 182.343-182.397h660.251c100.509 0.559 181.838 81.888 182.397 182.343v65.479z" />
<glyph unicode="&#xe916;" glyph-name="menu" horiz-adv-x="1379" d="M66.754 826.493h1246.957c36.569 0.733 66.021 30.185 66.752 66.684l0.001 0.069c0 36.867-29.887 66.754-66.754 66.754v0h-1246.957c-36.867 0-66.754-29.887-66.754-66.754v0c0.733-36.569 30.185-66.021 66.684-66.752l0.069-0.001zM1313.711 515.421h-1246.957c-36.867 0-66.754-29.887-66.754-66.754s29.887-66.754 66.754-66.754v0h1246.957c36.867 0 66.754 29.887 66.754 66.754s-29.887 66.754-66.754 66.754v0zM1313.711 70.842h-1246.957c-36.569-0.733-66.021-30.185-66.752-66.684l-0.001-0.069c0-36.867 29.887-66.754 66.754-66.754v0h1246.957c36.867 0 66.754 29.887 66.754 66.754v0c-0.733 36.569-30.185 66.021-66.684 66.752l-0.069 0.001z" />
<glyph unicode="&#xe917;" glyph-name="notifications" horiz-adv-x="830" d="M830.27 118.106v-16.052h-830.27v16.052l102.4 102.954 8.303 7.749v288.381c0 161.072 83.027 288.934 228.048 322.698l21.034 4.982v59.779c0 30.57 24.782 55.351 55.351 55.351s55.351-24.782 55.351-55.351v0-59.779l21.034-4.982c145.021-33.764 228.048-162.179 228.048-322.698v-288.381l8.303-7.749zM493.181-8.649c-11.427-32.742-42.042-55.813-78.045-55.813s-66.619 23.070-77.869 55.235l-0.176 0.578z" />
<glyph unicode="&#xe918;" glyph-name="order" horiz-adv-x="858" d="M651.108 960h-443.484c-114.667 0-207.624-92.956-207.624-207.624v0-608.753c0-114.667 92.956-207.624 207.624-207.624v0h443.484c114.667 0 207.624 92.956 207.624 207.624v0 608.753c0 114.667-92.956 207.624-207.624 207.624v0zM775.682 143.624c0-68.8-55.774-124.574-124.574-124.574v0h-443.484c-68.8 0-124.574 55.774-124.574 124.574v0 608.753c0 68.8 55.774 124.574 124.574 124.574v0h443.484c68.8 0 124.574-55.774 124.574-124.574v0zM595.465 683.445h-332.198c-22.933 0-41.525-18.591-41.525-41.525s18.591-41.525 41.525-41.525v0h332.198c22.933 0 41.525 18.591 41.525 41.525s-18.591 41.525-41.525 41.525v0zM595.465 461.703h-332.198c-22.933 0-41.525-18.591-41.525-41.525v0c0-22.933 18.591-41.525 41.525-41.525v0h332.198c22.933 0 41.525 18.591 41.525 41.525v0c0 22.933-18.591 41.525-41.525 41.525v0zM485.009 240.792h-221.742c-22.933 0-41.525-18.591-41.525-41.525v0c0-22.933 18.591-41.525 41.525-41.525v0h221.742c22.933 0 41.525 18.591 41.525 41.525v0c-0.456 22.748-18.777 41.069-41.482 41.524l-0.043 0.001z" />
<glyph unicode="&#xe919;" glyph-name="plus-circle" d="M512 960c-282.77 0-512-229.23-512-512s229.23-512 512-512c282.77 0 512 229.23 512 512v0c-0.447 282.589-229.41 511.552-511.957 512h-0.043zM512 14.769c-239.267 0-433.231 193.964-433.231 433.231s193.964 433.231 433.231 433.231c239.267 0 433.231-193.964 433.231-433.231v0c-0.447-239.087-194.144-432.783-433.188-433.231h-0.043zM551.385 644.923h-78.769v-157.538h-157.538v-78.769h157.538v-157.538h78.769v157.538h157.538v78.769h-157.538v157.538z" />
<glyph unicode="&#xe91a;" glyph-name="rename" horiz-adv-x="1421" d="M892.159 860.871h280.534v99.129h-660.197v-99.129h280.534v-825.742h-280.534v-99.129h660.197v99.129h-280.534v825.742zM644.337 298.811h-545.208v148.693c0 82.121 66.572 148.693 148.693 148.693v0h396.515v99.129h-396.515c-136.868 0-247.822-110.954-247.822-247.822v0-247.822h644.337zM1371.942 695.326h-331.090v-99.129h281.526v-148.693c0-82.121-66.572-148.693-148.693-148.693v0h-132.833v-99.129h132.833c136.868 0 247.822 110.954 247.822 247.822v0 247.822z" />
<glyph unicode="&#xe91b;" glyph-name="save_light" d="M512 697.698h-262.302c-21.752 0-39.385-17.633-39.385-39.385v0c0-21.752 17.633-39.385 39.385-39.385v0h262.302c21.752 0 39.385 17.633 39.385 39.385v0c0 21.752-17.633 39.385-39.385 39.385v0zM1015.335 723.692c-12.547 24.132-28.918 44.528-48.55 61.202l-0.287 0.238-118.154 118.154c-16.912 19.918-37.308 36.29-60.335 48.312l-1.105 0.525c-18.175 6.006-39.097 9.471-60.828 9.471-6.317 0-12.565-0.293-18.732-0.865l0.791 0.059h-196.135c-236.308-0.788-350.523-0.788-430.868-79.557s-78.769-197.711-78.769-430.868 0-350.523 78.769-430.868 194.56-83.495 430.868-83.495 350.523 0 430.868 78.769 78.769 197.711 78.769 430.868v199.286c0.9 7.128 1.414 15.376 1.414 23.744 0 19.599-2.818 38.54-8.071 56.44l0.356-1.415zM682.929 14.769c-48.049 0-103.975 0-170.929 0-93.735 0-166.203 0-222.917 5.514v33.871c-0.933 10.247-1.465 22.163-1.465 34.204 0 31.723 3.691 62.584 10.668 92.176l-0.539-2.713c12.157 29.238 34.757 52.093 63.031 64.294l0.772 0.296c27.265 6.38 58.571 10.037 90.731 10.037 11.87 0 23.624-0.498 35.242-1.475l-1.518 0.103c10.247 0.933 22.163 1.465 34.204 1.465 31.723 0 62.584-3.691 92.176-10.668l-2.713 0.539c29.047-12.497 51.646-35.353 63.512-63.805l0.291-0.786c7.017-26.858 11.046-57.692 11.046-89.467 0-12.042-0.579-23.95-1.71-35.695l0.116 1.495zM945.231 448c0-211.889 0-315.077-57.502-375.729-33.722-29.315-77.556-47.79-125.654-49.613l-0.377-0.011v31.508c1.295 12.223 2.033 26.406 2.033 40.761 0 41.636-6.212 81.821-17.761 119.679l0.761-2.902c-20.807 48.262-58.671 85.871-105.82 105.847l-1.307 0.492c-32.223 9.166-69.231 14.437-107.47 14.437-16.254 0-32.286-0.952-48.042-2.804l1.912 0.183c-12.223 1.295-26.406 2.033-40.761 2.033-41.636 0-81.821-6.212-119.679-17.761l2.902 0.761c-48.374-20.262-86.076-57.964-105.859-105.052l-0.48-1.286c-10.787-34.956-16.999-75.141-16.999-116.777 0-14.355 0.738-28.538 2.179-42.512l-0.146 1.751v-21.268c-28.805 7.227-53.753 20.927-74.182 39.509l0.139-0.124c-57.502 57.502-57.502 163.84-57.502 375.729s0 315.077 57.502 375.729 166.991 60.652 378.88 60.652h196.923c7.221 1.173 15.545 1.843 24.025 1.843s16.804-0.67 24.921-1.96l-0.896 0.117c13.806-9.085 25.716-19.493 36.061-31.306l0.173-0.202 117.366-117.366c12.015-10.518 22.423-22.428 31.102-35.579l0.406-0.655c1.138-7.22 1.788-15.547 1.788-24.025s-0.65-16.804-1.903-24.932l0.115 0.907z" />
<glyph unicode="&#xe91c;" glyph-name="setting" horiz-adv-x="1114" d="M1042.618 624.873l-89.043 156.231c-27.095 60.205-67.318 110.291-117.252 148.265l-0.933 0.68c-44.12 19.123-95.502 30.246-149.482 30.246-13.495 0-26.828-0.695-39.964-2.052l1.645 0.138-90.662 1.619h-89.853c-11.491 1.219-24.824 1.914-38.319 1.914-53.98 0-105.362-11.123-151.979-31.203l2.497 0.957c-51.427-39.161-92.166-89.762-118.815-148.145l-0.989-2.419-88.234-156.231c-36.9-49.579-62.277-109.822-71.022-175.327l-0.213-1.95c8.958-67.454 34.335-127.698 71.958-178.295l-0.723 1.017 89.853-156.231c27.874-59.971 68.253-109.946 118.068-148.261l0.927-0.685c44.12-19.123 95.502-30.246 149.482-30.246 13.495 0 26.828 0.695 39.964 2.052l-1.645-0.138h181.325c11.491-1.219 24.824-1.914 38.319-1.914 53.98 0 105.362 11.123 151.979 31.203l-2.497-0.957c50.741 38.999 91.121 88.974 117.981 146.527l1.014 2.418 86.615 156.231c36.204 49.731 61.021 109.976 69.415 175.36l0.201 1.917c-8.179 67.352-33.061 127.68-70.344 178.314l0.728-1.036zM972.193 309.983l-89.043-154.612c-44.522-73.663-63.949-104.424-89.853-119.804-33.702-12.489-72.632-19.715-113.25-19.715-12.574 0-24.987 0.693-37.202 2.042l1.506-0.135-87.425-1.619h-89.853c-10.709-1.214-23.121-1.906-35.696-1.906-40.618 0-79.548 7.226-115.574 20.463l2.325-0.747c-25.094 16.999-44.522 49.379-84.996 121.423l-93.091 154.612c-28.792 38.716-49.534 85.145-58.785 135.592l-0.308 2.021c10.198 52.388 30.85 98.704 59.788 138.621l-0.696-1.008 93.091 154.612c38.046 72.044 58.283 104.424 85.806 119.804 34.458 12.281 74.207 19.379 115.613 19.379 11.737 0 23.341-0.57 34.785-1.685l-1.452 0.114 89.043 1.619h90.662c9.89 0.986 21.376 1.549 32.993 1.549 41.243 0 80.829-7.090 117.607-20.119l-2.464 0.761c27.523-15.38 47.76-50.188 89.853-119.804l89.043-154.612c28.242-38.908 48.894-85.224 58.733-135.415l0.359-2.198c-10.214-53.028-31.165-99.912-60.588-140.218l0.686 0.986zM556.926 649.967c-111.767 0-202.372-90.605-202.372-202.372s90.605-202.372 202.372-202.372c111.767 0 202.372 90.605 202.372 202.372v0c0 111.767-90.605 202.372-202.372 202.372v0zM556.926 326.172c-67.060 0-121.423 54.363-121.423 121.423s54.363 121.423 121.423 121.423c67.060 0 121.423-54.363 121.423-121.423v0c0-67.060-54.363-121.423-121.423-121.423v0z" />
<glyph unicode="&#xe91d;" glyph-name="sort" d="M512 960c-282.77 0-512-229.23-512-512s229.23-512 512-512c282.77 0 512 229.23 512 512v0c0 282.77-229.23 512-512 512v0zM512 0c-247.424 0-448 200.576-448 448s200.576 448 448 448c247.424 0 448-200.576 448-448v0c0-247.424-200.576-448-448-448v0zM428.16 737.28l-23.040 22.4-21.12-22.4-108.16-106.88 45.44-44.8 51.84 54.4v-320c0-17.673 14.327-32 32-32v0c17.673 0 32 14.327 32 32v0 320l52.48-51.84 44.8 44.8zM650.88 256v320c0 17.673-14.327 32-32 32v0c-17.673 0-32-14.327-32-32v0-320l-52.48 51.84-44.8-44.8 106.24-106.88 23.040-22.4 129.28 129.28-45.44 44.8z" />
<glyph unicode="&#xe91e;" glyph-name="trophy" horiz-adv-x="1148" d="M853.644 29.091h-558.545c-25.706 0-46.545-20.839-46.545-46.545v0c0-25.706 20.839-46.545 46.545-46.545v0h558.545c25.706 0 46.545 20.839 46.545 46.545v0c0 25.706-20.839 46.545-46.545 46.545v0zM667.462 712.378h-186.182c-25.706 0-46.545-20.839-46.545-46.545v0c0-25.706 20.839-46.545 46.545-46.545v0h186.182c25.706 0 46.545 20.839 46.545 46.545v0c0 25.706-20.839 46.545-46.545 46.545v0zM977.455 898.56c-44.326-0.41-84.54-17.685-114.603-45.708l0.102 0.094c-42.085 64.566-113.829 106.731-195.442 107.054h-186.231c-81.662-0.323-153.406-42.488-194.941-106.156l-0.55-0.898c-30.25 27.938-70.841 45.071-115.433 45.071-94.085 0-170.356-76.271-170.356-170.356 0-0.136 0-0.272 0-0.409v0.021-123.811c3.506-115.773 58.426-218.043 142.597-285.201l0.763-0.588c7.774-5.595 17.423-9.043 27.863-9.308l0.064-0.001c0.146-0.002 0.318-0.003 0.491-0.003 14.751 0 27.798 7.3 35.723 18.485l0.092 0.136c6.689 8.004 10.751 18.404 10.751 29.753 0 14.148-6.312 26.821-16.274 35.358l-0.063 0.053c-62.878 50.454-104.123 125.633-108.882 210.558l-0.034 0.759v123.811c0.519 42.976 35.22 77.678 78.147 78.196h0.049c42.784-0.526 77.265-35.331 77.265-78.191 0-0.002 0-0.004 0-0.006v0-110.778c-0.001-0.25-0.001-0.546-0.001-0.842 0-144.308 73.295-271.497 184.688-346.372l1.495-0.946 62.371-41.891c8.835-5.589 19.014-10.333 29.797-13.714l0.923-0.25v-105.193c0-25.706 20.839-46.545 46.545-46.545s46.545 20.839 46.545 46.545v0 105.193c11.706 3.631 21.885 8.375 31.259 14.281l-0.539-0.317 62.371 41.891c112.888 75.821 186.183 203.010 186.183 347.318 0 0.296 0 0.592-0.001 0.887v-0.046 110.778c0 0.002 0 0.004 0 0.006 0 42.859 34.481 77.665 77.216 78.19h0.050c42.976-0.519 77.678-35.22 78.196-78.147v-123.86c-4.793-85.683-46.038-160.862-108.348-210.875l-0.569-0.441c-11.356-8.582-18.618-22.061-18.618-37.236 0-25.706 20.839-46.545 46.545-46.545v0c10.504 0.266 20.153 3.714 28.077 9.411l-0.15-0.102c86.003 67.287 141.923 169.603 146.133 285.115l0.019 0.674v123.811c-0.525 94.387-76.9 170.762-171.237 171.287h-0.050zM807.098 665.833v-49.338c0-0.21 0.001-0.458 0.001-0.706 0-112.349-57.191-211.34-144.048-269.449l-1.174-0.74-61.44-40.96c-7.23-5.245-16.281-8.39-26.065-8.39s-18.835 3.145-26.195 8.48l0.13-0.090-61.44 40.96c-88.032 58.848-145.223 157.84-145.223 270.189 0 0.248 0 0.496 0.001 0.744v-0.038 110.778c0 77.119 62.517 139.636 139.636 139.636v0h186.182c77.119 0 139.636-62.517 139.636-139.636v0z" />
<glyph unicode="&#xe91f;" glyph-name="user" horiz-adv-x="967" d="M964.117-9.25c-35.34 88.731-98.851 159.987-179.298 204.273l-2.062 1.040c-86.819 46.499-189.927 73.814-299.415 73.814s-212.595-27.315-302.88-75.503l3.465 1.688c-82.327-45.556-145.761-116.732-180.398-202.613l-0.962-2.7c-1.366-4.001-2.155-8.611-2.155-13.405 0-23.623 19.15-42.774 42.774-42.774 17.978 0 33.366 11.092 39.693 26.805l0.102 0.288c27.72 70.681 78.122 127.448 142.091 162.576l1.629 0.82c74.47 39.614 162.839 62.877 256.642 62.877s182.171-23.262 259.653-64.333l-3.012 1.456c65.077-35.145 115.342-90.665 142.959-157.882l0.76-2.091c5.802-17.202 21.79-29.368 40.619-29.368 23.623 0 42.774 19.15 42.774 42.774 0 5.645-1.093 11.034-3.080 15.968l0.102-0.288zM483.342 418.486c149.771 0 271.185 121.413 271.185 271.185s-121.413 271.185-271.185 271.185c-149.771 0-271.185-121.413-271.185-271.185v0c0-149.771 121.413-271.185 271.185-271.185v0zM483.342 874.453c102.524-0.001 185.635-83.113 185.635-185.637s-83.113-185.637-185.637-185.637c-102.525 0-185.637 83.113-185.637 185.637 0 0.301 0.001 0.601 0.002 0.902v-0.046c0.486 102.156 83.411 184.782 185.635 184.782 0.001 0 0.001 0 0.002 0v0z" />
</font>
</defs>
</svg>
