<svg width="120" height="120" viewBox="0 0 120 120" fill="none" xmlns="http://www.w3.org/2000/svg">
<g filter="url(#filter0_ii_863_21366)">
<path fill-rule="evenodd" clip-rule="evenodd" d="M35.5 10C26.6634 10 19.5 17.1634 19.5 26V94C19.5 102.837 26.6634 110 35.5 110H84.5C93.3366 110 100.5 102.837 100.5 94V35L75.5 10H35.5Z" fill="#4876F9"/>
</g>
<g filter="url(#filter1_dd_863_21366)">
<path d="M52.4237 85L59.9538 57.3956H60.0925L67.5762 85H71.78L81.25 51.875H77L69.7475 79.665H69.5625L62.0788 51.875H57.9675L50.4375 79.665H50.2525L43 51.875H38.75L48.22 85H52.4237Z" fill="white"/>
</g>
<path d="M98.1545 32.6562H77.8438L100.5 55.3125V35L98.1545 32.6562Z" fill="url(#paint0_linear_863_21366)"/>
<path d="M75.5 35L100.5 35L75.5 10L75.5 35Z" fill="#B5C8FC"/>
<defs>
<filter id="filter0_ii_863_21366" x="19.5" y="9" width="81" height="102" filterUnits="userSpaceOnUse" color-interpolation-filters="sRGB">
<feFlood flood-opacity="0" result="BackgroundImageFix"/>
<feBlend mode="normal" in="SourceGraphic" in2="BackgroundImageFix" result="shape"/>
<feColorMatrix in="SourceAlpha" type="matrix" values="0 0 0 0 0 0 0 0 0 0 0 0 0 0 0 0 0 0 127 0" result="hardAlpha"/>
<feOffset dy="-2"/>
<feGaussianBlur stdDeviation="0.5"/>
<feComposite in2="hardAlpha" operator="arithmetic" k2="-1" k3="1"/>
<feColorMatrix type="matrix" values="0 0 0 0 0 0 0 0 0 0 0 0 0 0 0 0 0 0 0.3 0"/>
<feBlend mode="normal" in2="shape" result="effect1_innerShadow_863_21366"/>
<feColorMatrix in="SourceAlpha" type="matrix" values="0 0 0 0 0 0 0 0 0 0 0 0 0 0 0 0 0 0 127 0" result="hardAlpha"/>
<feOffset dy="2"/>
<feGaussianBlur stdDeviation="0.5"/>
<feComposite in2="hardAlpha" operator="arithmetic" k2="-1" k3="1"/>
<feColorMatrix type="matrix" values="0 0 0 0 1 0 0 0 0 1 0 0 0 0 1 0 0 0 0.3 0"/>
<feBlend mode="normal" in2="effect1_innerShadow_863_21366" result="effect2_innerShadow_863_21366"/>
</filter>
<filter id="filter1_dd_863_21366" x="37.75" y="50.875" width="51.5" height="44.125" filterUnits="userSpaceOnUse" color-interpolation-filters="sRGB">
<feFlood flood-opacity="0" result="BackgroundImageFix"/>
<feColorMatrix in="SourceAlpha" type="matrix" values="0 0 0 0 0 0 0 0 0 0 0 0 0 0 0 0 0 0 127 0" result="hardAlpha"/>
<feOffset dx="4" dy="6"/>
<feGaussianBlur stdDeviation="2"/>
<feColorMatrix type="matrix" values="0 0 0 0 0 0 0 0 0 0 0 0 0 0 0 0 0 0 0.1 0"/>
<feBlend mode="normal" in2="BackgroundImageFix" result="effect1_dropShadow_863_21366"/>
<feColorMatrix in="SourceAlpha" type="matrix" values="0 0 0 0 0 0 0 0 0 0 0 0 0 0 0 0 0 0 127 0" result="hardAlpha"/>
<feOffset/>
<feGaussianBlur stdDeviation="0.5"/>
<feColorMatrix type="matrix" values="0 0 0 0 0 0 0 0 0 0 0 0 0 0 0 0 0 0 0.4 0"/>
<feBlend mode="normal" in2="effect1_dropShadow_863_21366" result="effect2_dropShadow_863_21366"/>
<feBlend mode="normal" in="SourceGraphic" in2="effect2_dropShadow_863_21366" result="shape"/>
</filter>
<linearGradient id="paint0_linear_863_21366" x1="82.9219" y1="27.5781" x2="105.578" y2="50.2344" gradientUnits="userSpaceOnUse">
<stop stop-opacity="0.2"/>
<stop offset="1" stop-opacity="0"/>
</linearGradient>
</defs>
</svg>
