<svg id="svg2" xmlns="http://www.w3.org/2000/svg" xmlns:xlink="http://www.w3.org/1999/xlink" viewBox="0 0 248.04 248.04"><defs><style>.cls-1{fill:none;}.cls-2{clip-path:url(#clip-path);}.cls-3{fill:#fff;}.cls-4{fill:#009fe0;}.cls-5{fill:#ffdc00;}.cls-6{fill:#db1900;}.cls-7{fill:#e21c2a;}</style><clipPath id="clip-path" transform="translate(0 0)"><rect class="cls-1" width="248.04" height="248.04"/></clipPath></defs><g id="g10"><g id="g12"><g class="cls-2"><g id="g14"><g id="g20"><path id="path22" class="cls-3" d="M124,61.88A62.14,62.14,0,1,1,61.88,124,62.21,62.21,0,0,1,124,61.88" transform="translate(0 0)"/></g><g id="g24"><path id="path26" class="cls-4" d="M104.44,91.14l18-12.25,4.38,4.37,3.25-1.75,16.25,9.63-16-4.88,4,4.25-10.38-3.62-2.13,3.75-1-4.88-5.75,4.88.63-3.88Z" transform="translate(0 0)"/></g><g id="g28"><path id="path30" class="cls-5" d="M124,216a92,92,0,1,1,92-92,92,92,0,0,1-92,92M124,5.25A118.77,118.77,0,1,0,242.79,124C242.66,58.38,189.53,5.25,124,5.25" transform="translate(0 0)"/></g><g id="g32"><path id="path34" class="cls-4" d="M124,186.28a62.14,62.14,0,1,1,62.13-62.14A62.14,62.14,0,0,1,124,186.28m0-156.36a94.1,94.1,0,1,0,94.1,94.1A94.09,94.09,0,0,0,124,29.92" transform="translate(0 0)"/></g><g id="g36"><path id="path38" class="cls-4" d="M124,0A124,124,0,1,0,248,124,124,124,0,0,0,124,0m0,5.25A118.77,118.77,0,1,1,5.25,124,118.88,118.88,0,0,1,124,5.25" transform="translate(0 0)"/></g><g id="g40"><path id="path42" class="cls-6" d="M146.15,131.9c-1.62-5.63-7.5-9.63-7.5-9.63,1.87-.38,1.12-3.88-.75-4.25.37,2.12-1,2.37-2.38,1.75-2.62-1.63-4.75-3.75-5.5-6.88a6.25,6.25,0,0,1,2.75-6.75,5.5,5.5,0,0,1,6.13.25,4.39,4.39,0,0,1,1,5.38c-1.38,1.75-3.75,1.87-4.25.75-.63-1.5.5-2.63,2.5-1.63a2.73,2.73,0,0,0-4.25-3,4.82,4.82,0,0,0-.63,6.88c1.5,1.87,3.88,2.37,6.38,1.5.75,1.87,2.5,3.75,3.88,3.5,1.87-.25,3-2.38,1.75-4.63-1,3.13-3.38,1.63-2.75-.87a6.05,6.05,0,0,0,.87-6.75c.75,0,2.63-1.13,2.63-2.63a2.6,2.6,0,0,0-1.38-2.87c-1.37,4.5-3.63-.13-9.25,0-5.38.12-8.5,4.25-8.63,9.62.13,7.63,7.13,9.88,11.25,14.88,1.88,2.13,3.13,5,1.88,7.75-1.5,3.38-3.88,3.75-5.25,3.13-2.88-1.75-.38-5.25,2.62-2.63.88-2.5,0-3.75-2.12-4.25-5.38-.75-7,6.88-2.63,9.5,4.25,2.25,8.63.13,10.88-5.62.25,6.87-5.88,9.87-11.63,7.62a7.64,7.64,0,0,1-4-8.25c.63-3.25,3.13-6.13,7.5-5.62C131,123,124.65,121.39,124,112.77v-.13c-.62,8.63-7,10.25-11.25,15.38a6.42,6.42,0,0,1,7.5,5.63c.63,3.25-1,7-4,8.25-5.75,2.12-11.88-.75-11.63-7.63,2.25,5.88,6.63,7.88,10.88,5.63,4.25-2.63,2.63-10.25-2.62-9.5-2.13.37-3,1.75-2.13,4.25,3-2.63,5.38.87,2.63,2.62-1.25.63-3.75.13-5.26-3.12-1.25-2.75,0-5.63,1.88-7.76,4.13-5,11.13-7.25,11.25-14.87-.25-5.38-3.25-9.5-8.62-9.63-5.63-.12-7.88,4.5-9.26,0a2.61,2.61,0,0,0-1.37,2.88c.12,1.5,1.87,2.5,2.62,2.62a6.06,6.06,0,0,0,.88,6.75c.62,2.5-1.75,4-2.75.88-1.13,2.25-.13,4.25,1.75,4.62,1.37.25,3.12-1.62,3.87-3.5,2.51.88,4.88.38,6.38-1.5a4.8,4.8,0,0,0-.62-6.87c-2.25-1.38-4.88.12-4.25,3,2.12-1,3.12.12,2.5,1.62-.5,1.13-2.88,1-4.26-.75a4.18,4.18,0,0,1,1-5.37,5.69,5.69,0,0,1,6.12-.25,6.22,6.22,0,0,1,2.75,6.75,10.8,10.8,0,0,1-5.5,6.87c-1.37.75-2.62.38-2.37-1.75-1.88.5-2.63,4-.75,4.25,0,0-5.88,3.88-7.51,9.63s.75,8.88.75,8.88c-1.5,2-1.62,3.75.13,5.37.37-1.75,1.12-2.37,2.5-1.87a15.22,15.22,0,0,0,9.88,1.62c5-.87,7.25-5.5,7.75-7.37,1.12-4.88-.25-8.88-4.63-12,2.13-2.25,4.75-3.5,5.5-6.37.75,3,3.38,4.12,5.63,6.5-4.38,3.13-5.75,7.13-4.63,12,.5,1.75,2.75,6.5,7.75,7.38a15.19,15.19,0,0,0,9.88-1.63c1.25-.5,2.13.13,2.5,1.88,1.75-1.63,1.63-3.38.13-5.38.37,0,2.75-3.25,1.12-8.87" transform="translate(0 0)"/></g><g id="g44"><path id="path46" class="cls-4" d="M157.21,146.79V156H156v1.36h1.19v1.56h-2.08v1.61h-1.62Zm-4.11-3.07v.67h3.47l-3.91,14.5Zm.43-14.68,3.77,5.88-4.13,6.43Zm0-1.11Zm.5-17,3.24,5.6-3.59,6.14Zm.15-5.35Zm.4-13.65,2.74,5.69-3.09,6.43Zm6.14-1.35-2.7,5.6-2.7-5.6Zm.73,1.36.36,12.1-3.1-6.42Zm.52,17.8Zm.39,13.07-3.64-6.27,3.29-5.62Zm0,1.31Zm.11,3.8Zm.4,13.43-4.14-6.44,3.78-5.88Zm0,1.21Zm0,1.15.44,15.17-3.91-14.5H163Zm-.78-1.15h-8.34l4.17-6.5Zm-.43-14.64-3.74,5.83-3.75-5.83Zm-.09-3.8h-7.39l3.72-6.34Zm-6.79-18.54,3.14-6.52,3.14,6.52Zm6.37,4.16L158,115.3l-3.22-5.55Zm-2.4,49.17v-1.56h1.2V156h-1.2v-9.21l3.71,13.74H161v-1.61ZM85.54,90.43h7l1.25,70.09H90.74v-7.72a1.68,1.68,0,1,0-3.36,0v7.72H84.3Zm80.28,70.1-1.15-32.6h1.45v-3.8h-1.58L164,109.75h1.67v-4.16h-1.82l-.53-15H165V87.2h-1.8l-.08-2.29h-1.87l.06,2.29h-6.59l.07-2.29h-1.88l-.08,2.29h-1.79v3.39h1.67l-.53,15h-1.82v4.16h1.68l-.51,14.38H150v3.8h1.45l-1.15,32.58c-6.63,0-12.66-.12-13.34-.3a4.16,4.16,0,0,1-2.4-1.15c-4.94,2.35-8.18-.16-10.51-5.31-2.32,5.15-5.57,7.66-10.52,5.31a4.2,4.2,0,0,1-2.39,1.15c-.72.19-7.52.27-14.64.3L94,90.43h1.35V88.35H93.82v-2H92.1V84.23H90.44v-2H87.68v2H86v2.09H84.29v2H82.78v2.08h1.35l-2.49,70.1h-2.3l2.59,4.12s12.83-.07,29.51-.07c5.24,0,10.74.21,12.62-2.43,1.55,2.41,6.32,2.43,12.59,2.43,16.68,0,29.51.07,29.51.07l2.54-4.12h-2.88" transform="translate(0 0)"/></g><g id="g48"><path id="path50" class="cls-4" d="M90.23,96.75a1.18,1.18,0,0,0-2.35,0v3.83h2.35Z" transform="translate(0 0)"/></g><g id="g52"><path id="path54" class="cls-4" d="M90.23,111.9a1.18,1.18,0,0,0-2.35,0V117h2.35Z" transform="translate(0 0)"/></g><g id="g56"><path id="path58" class="cls-4" d="M90.23,129.4a1.18,1.18,0,0,0-2.35,0v5.08h2.35Z" transform="translate(0 0)"/></g><g id="g60"><path id="path62" class="cls-5" d="M126.12,35.2a10.47,10.47,0,0,0-2.71-.29,10.71,10.71,0,0,1-4.88,19.88,10.84,10.84,0,0,0,2.54,1,10.6,10.6,0,0,0,5.05-20.59" transform="translate(0 0)"/></g><g id="g64"><path id="path66" class="cls-5" d="M119.23,42.92l2.74.41-2,1.93.46,2.73L118,46.69,115.53,48l.48-2.73-2-1.94,2.74-.39L118,40.43Z" transform="translate(0 0)"/></g><g id="g68"><path id="path70" class="cls-5" d="M134.78,205l-.11-3.91a81.38,81.38,0,0,0-11,3.07,80.56,80.56,0,0,0-11-3.07l-.1,3.91a26.16,26.16,0,0,1,8.87.17c-2,1.06-3.42,2.33-3.87,3.94l1.77.31a9.46,9.46,0,0,1,4.32-3.54,9.36,9.36,0,0,1,4.32,3.54l1.78-.31c-.46-1.61-1.87-2.88-3.88-3.94a26.22,26.22,0,0,1,8.88-.17" transform="translate(0 0)"/></g><g id="g72"><path id="path74" class="cls-5" d="M108.47,39.26c-2.45.45-4.85,1-7.16,1.64a75.23,75.23,0,0,0-9.94,3.46c-1.53.68-3,1.31-4.42,2s-2.73,1.45-4,2.18A65.29,65.29,0,0,0,76.35,53c-1.87,1.44-3.46,2.73-4.71,3.89S69.47,59,68.83,59.6l-1,1,1.06-.88c.7-.58,1.72-1.43,3.06-2.42A74.94,74.94,0,0,1,83.72,50c1.27-.65,2.6-1.31,4-1.9s2.88-1.22,4.39-1.82a87.16,87.16,0,0,1,9.79-3c1.85-.49,3.75-.87,5.69-1.21l1.34-.21A15.13,15.13,0,0,1,110,39l-1.5.26" transform="translate(0 0)"/></g><g id="g76"><path id="path78" class="cls-5" d="M179.2,59.3c-.64-.63-1.54-1.61-2.83-2.71s-2.85-2.43-4.73-3.85A64.13,64.13,0,0,0,165,48.37a73.57,73.57,0,0,0-8.43-4.19,76.52,76.52,0,0,0-10-3.4A78.28,78.28,0,0,0,138.13,39l-1.49-.22a14.6,14.6,0,0,1,1.07,2.83l.29,0,1.06.16c.55.08,1.11.16,1.66.26,1.79.36,3.58.66,5.29,1.12a89.71,89.71,0,0,1,9.81,3c1.52.6,3,1.14,4.4,1.79l2.08.91,1.95,1c2.56,1.28,4.83,2.59,6.81,3.81s3.65,2.4,5,3.43,2.37,1.83,3.07,2.4l1.07.88-1-1" transform="translate(0 0)"/></g><g id="g80"><path id="path82" class="cls-5" d="M175.93,62.29a36.28,36.28,0,0,0-2.67-2.53c-1.17-1.06-2.68-2.26-4.45-3.59a61.26,61.26,0,0,0-6.25-4.06,68.78,68.78,0,0,0-7.92-3.9A71.32,71.32,0,0,0,145.28,45c-1.91-.52-3.88-1-5.88-1.34l-1.3-.23a15.38,15.38,0,0,1,.14,1.93c0,.25,0,.49,0,.73l1.24.19.28,0c1.68.33,3.35.61,5,1a84.53,84.53,0,0,1,9.21,2.73c1.42.55,2.82,1.06,4.13,1.65l2,.84,1.84.89a72.41,72.41,0,0,1,11.11,6.67c1.28.92,2.24,1.69,2.9,2.22l1,.81-.92-.92" transform="translate(0 0)"/></g><g id="g84"><path id="path86" class="cls-5" d="M108.59,43.77l-1.27.26c-1.55.32-3.08.69-4.56,1.1a70,70,0,0,0-9.34,3.21,68,68,0,0,0-7.92,3.93,62.24,62.24,0,0,0-6.22,4.09C77.51,57.7,76,58.9,74.83,60s-2,1.94-2.65,2.54l-.92.92s.35-.29,1-.81,1.62-1.32,2.9-2.24a72.4,72.4,0,0,1,11.07-6.72c1.2-.59,2.45-1.2,3.79-1.74s2.7-1.12,4.13-1.67a84.1,84.1,0,0,1,9.19-2.77c1.29-.33,2.61-.6,4-.85l1.24-.23c0-.33,0-.66,0-1a14.7,14.7,0,0,1,.09-1.63" transform="translate(0 0)"/></g><g id="g88"><path id="path90" class="cls-5" d="M170,63.11c-1.1-1-2.52-2.1-4.17-3.33A56.3,56.3,0,0,0,160,56a61.67,61.67,0,0,0-7.41-3.6,67.67,67.67,0,0,0-8.73-2.93c-1.5-.4-3.05-.76-4.62-1.08L138,48.2a15.21,15.21,0,0,1-.73,2.52l1.26.19h.1c1.56.3,3.12.56,4.62.94a82.73,82.73,0,0,1,8.59,2.49c1.33.5,2.64,1,3.86,1.51s2.43,1,3.55,1.58a68.52,68.52,0,0,1,10.42,6.09Z" transform="translate(0 0)"/></g><g id="g92"><path id="path94" class="cls-5" d="M78.39,63.78a69.21,69.21,0,0,1,10.38-6.16c1.12-.54,2.29-1.1,3.54-1.59s2.52-1,3.85-1.53A79.89,79.89,0,0,1,104.73,52c1.18-.3,2.39-.54,3.61-.77l1.25-.22a15.86,15.86,0,0,1-.77-2.48c-.41.08-.81.18-1.22.27-1.17.26-2.33.54-3.46.85a66,66,0,0,0-8.72,3A61.31,61.31,0,0,0,88,56.23,57.23,57.23,0,0,0,82.21,60c-1.65,1.24-3.06,2.35-4.16,3.35Z" transform="translate(0 0)"/></g><g id="g96"><path id="path98" class="cls-5" d="M169.54,68.5c-.53-.51-1.28-1.31-2.35-2.19s-2.36-2-3.92-3.1a52.38,52.38,0,0,0-5.48-3.51,59.06,59.06,0,0,0-6.94-3.38,63.92,63.92,0,0,0-8.19-2.74c-1.57-.42-3.19-.79-4.83-1.1l-1.28-.23A14.33,14.33,0,0,1,135,54.67l1.4.21c1.94.28,3.85.62,5.69,1.06a78.55,78.55,0,0,1,8,2.31c1.25.46,2.48.89,3.63,1.39s2.27,1,3.32,1.46a65,65,0,0,1,9.8,5.64c1.13.78,2,1.42,2.58,1.87l.91.68-.81-.79" transform="translate(0 0)"/></g><g id="g100"><path id="path102" class="cls-5" d="M110.32,52.52l-1.27.26c-1.21.26-2.42.55-3.59.87a62.26,62.26,0,0,0-8.18,2.77,58.89,58.89,0,0,0-6.93,3.39,53.19,53.19,0,0,0-5.47,3.53C83.33,64.5,82,65.54,81,66.46s-1.81,1.68-2.34,2.19l-.81.8.91-.69c.58-.45,1.45-1.1,2.57-1.88a65.25,65.25,0,0,1,9.78-5.67c1-.5,2.15-1,3.32-1.47s2.37-1,3.62-1.41a76.56,76.56,0,0,1,8-2.33c1.46-.36,3-.65,4.47-.9.46-.08.93-.15,1.4-.21a15.15,15.15,0,0,1-1.6-2.37" transform="translate(0 0)"/></g><g id="g104"><path id="path106" class="cls-5" d="M112.89,55.94l-1.46.26c-1.63.31-3.24.67-4.79,1.1A58.59,58.59,0,0,0,99,59.88a54.86,54.86,0,0,0-6.51,3.17,49,49,0,0,0-5.14,3.29c-1.46,1.08-2.7,2-3.68,2.92s-1.7,1.56-2.2,2l-.76.75.86-.64c.55-.41,1.37-1,2.43-1.74a62.76,62.76,0,0,1,9.21-5.22c1-.46,2-.93,3.12-1.36s2.23-.87,3.4-1.29a72.62,72.62,0,0,1,7.53-2.15,64.44,64.44,0,0,1,6.72-1.2l1.53-.2.38,0a14.92,14.92,0,0,1-3-2.27" transform="translate(0 0)"/></g><g id="g108"><path id="path110" class="cls-5" d="M166.78,71.19c-.5-.48-1.21-1.23-2.21-2s-2.22-1.82-3.69-2.9A48.49,48.49,0,0,0,155.74,63a55.22,55.22,0,0,0-6.53-3.15,58.09,58.09,0,0,0-7.68-2.56c-1.94-.52-3.94-1-6-1.3l-1.48-.22a15.06,15.06,0,0,1-2.93,2.34l1.58.16.33,0A72.64,72.64,0,0,1,141,59.61a73.57,73.57,0,0,1,7.54,2.13c1.17.42,2.32.82,3.4,1.28s2.14.89,3.12,1.35a62.43,62.43,0,0,1,9.23,5.2c1.07.72,1.88,1.32,2.44,1.73l.86.63-.76-.74" transform="translate(0 0)"/></g><g id="g112"><path id="path114" class="cls-5" d="M136.55,203.81c-1.42,1.94,6.61,10.52,20.07,1.94-4.61.3-18-6-20.07-1.94" transform="translate(0 0)"/></g><g id="g116"><path id="path118" class="cls-5" d="M143.11,200.83l.52-.46a9.32,9.32,0,0,0,1.44-1.57l.41-.57.13.69a10.22,10.22,0,0,0,.65,2l.28.64-.66-.23a9.19,9.19,0,0,0-2.08-.45Z" transform="translate(0 0)"/></g><g id="g120"><path id="path122" class="cls-5" d="M136.75,201.62c-2-.69-.61-11,13.46-11.64-3.47,2.14-9.86,13.47-13.46,11.64" transform="translate(0 0)"/></g><g id="g124"><path id="path126" class="cls-5" d="M150,200.25c-1.06,2.17,8.33,9.23,20.1-1.56-4.49,1.09-18.71-2.8-20.1,1.56" transform="translate(0 0)"/></g><g id="g128"><path id="path130" class="cls-5" d="M155.93,196.19l.44-.55a9.61,9.61,0,0,0,1.14-1.8l.3-.62.26.65a9.65,9.65,0,0,0,1,1.88l.39.58-.69-.1a9.51,9.51,0,0,0-2.13-.09Z" transform="translate(0 0)"/></g><g id="g132"><path id="path134" class="cls-5" d="M149.81,198.06c-2.1-.32-2.5-10.67,11.23-13.79-3,2.7-7.37,15-11.23,13.79" transform="translate(0 0)"/></g><g id="g136"><path id="path138" class="cls-5" d="M162.61,194.42c-.66,2.32,9.81,7.64,19.52-5-4.23,1.85-18.91.5-19.52,5" transform="translate(0 0)"/></g><g id="g140"><path id="path142" class="cls-5" d="M167.76,189.39l.33-.62a9.72,9.72,0,0,0,.81-2l.19-.67.37.6a9.2,9.2,0,0,0,1.3,1.68l.48.51h-.7a9.41,9.41,0,0,0-2.11.29Z" transform="translate(0 0)"/></g><g id="g144"><path id="path146" class="cls-5" d="M162.05,192.29c-2.12.05-4.32-10.07,8.66-15.53-2.53,3.19-4.65,16-8.66,15.53" transform="translate(0 0)"/></g><g id="g148"><path id="path150" class="cls-5" d="M174,186.49c-.25,2.39,11,5.81,18.36-8.35-3.85,2.56-18.55,3.77-18.36,8.35" transform="translate(0 0)"/></g><g id="g152"><path id="path154" class="cls-5" d="M178.22,180.63l.22-.66a9.19,9.19,0,0,0,.45-2.08l.08-.69.46.52a9.23,9.23,0,0,0,1.57,1.43l.57.42-.69.13a9.52,9.52,0,0,0-2,.65Z" transform="translate(0 0)"/></g><g id="g156"><path id="path158" class="cls-5" d="M173.1,184.49c-2.08.41-6-9.18,5.84-16.81-1.94,3.59-1.81,16.6-5.84,16.81" transform="translate(0 0)"/></g><g id="g160"><path id="path162" class="cls-5" d="M183.88,176.69c.17,2.4,11.83,3.82,16.63-11.41-3.34,3.19-17.61,6.94-16.63,11.41" transform="translate(0 0)"/></g><g id="g164"><path id="path166" class="cls-5" d="M187,170.2l.1-.69a9.51,9.51,0,0,0,.09-2.13l-.05-.7.55.44a9.61,9.61,0,0,0,1.8,1.14l.62.3-.65.26a9.65,9.65,0,0,0-1.88,1Z" transform="translate(0 0)"/></g><g id="g168"><path id="path170" class="cls-5" d="M182.63,174.88c-2,.77-7.5-8,2.83-17.56-1.28,3.87,1.11,16.66-2.83,17.56" transform="translate(0 0)"/></g><g id="g172"><path id="path174" class="cls-5" d="M191.9,165.33c.58,2.34,12.31,1.71,14.39-14.12-2.74,3.72-16.14,9.89-14.39,14.12" transform="translate(0 0)"/></g><g id="g176"><path id="path178" class="cls-5" d="M193.84,158.39l0-.69a9.92,9.92,0,0,0-.28-2.11l-.17-.68.61.33a8.69,8.69,0,0,0,2,.81l.67.2-.6.36a9.56,9.56,0,0,0-1.68,1.3Z" transform="translate(0 0)"/></g><g id="g180"><path id="path182" class="cls-5" d="M190.35,163.77c-1.82,1.1-8.78-6.57-.27-17.79-.59,4,4,16.21.27,17.79" transform="translate(0 0)"/></g><g id="g184"><path id="path186" class="cls-5" d="M197.81,152.75c1,2.2,12.42-.45,11.73-16.41-2,4.15-14.18,12.55-11.73,16.41" transform="translate(0 0)"/></g><g id="g188"><path id="path190" class="cls-5" d="M198.52,145.58l-.14-.68a10.19,10.19,0,0,0-.64-2l-.29-.64.66.23a9.9,9.9,0,0,0,2.08.45l.7.07-.53.47a9.7,9.7,0,0,0-1.43,1.57Z" transform="translate(0 0)"/></g><g id="g192"><path id="path194" class="cls-5" d="M196,151.48c-1.6,1.4-9.79-4.94-3.35-17.47.11,4.07,6.74,15.27,3.35,17.47" transform="translate(0 0)"/></g><g id="g196"><path id="path198" class="cls-5" d="M201.46,139.34c1.34,2,12.15-2.61,8.69-18.2-1.3,4.44-11.78,14.81-8.69,18.2" transform="translate(0 0)"/></g><g id="g200"><path id="path202" class="cls-5" d="M200.91,132.16l-.26-.66a10.18,10.18,0,0,0-1-1.88l-.4-.58.7.11a10,10,0,0,0,2.12.08l.7,0-.44.55a10.52,10.52,0,0,0-1.14,1.8Z" transform="translate(0 0)"/></g><g id="g204"><path id="path206" class="cls-5" d="M199.47,138.4c-1.33,1.65-10.5-3.17-6.33-16.63.82,4,9.28,13.87,6.33,16.63" transform="translate(0 0)"/></g><g id="g208"><path id="path210" class="cls-5" d="M202.72,125.49c1.67,1.73,11.51-4.68,5.4-19.42-.51,4.59-9,16.63-5.4,19.42" transform="translate(0 0)"/></g><g id="g212"><path id="path214" class="cls-5" d="M200.93,118.52l-.37-.6a9.2,9.2,0,0,0-1.3-1.68l-.48-.51h.7a10,10,0,0,0,2.11-.29l.67-.17-.33.62a9.87,9.87,0,0,0-.81,2Z" transform="translate(0 0)"/></g><g id="g216"><path id="path218" class="cls-5" d="M200.59,124.91c-1,1.86-10.88-1.3-9.12-15.27,1.5,3.79,11.56,12,9.12,15.27" transform="translate(0 0)"/></g><g id="g220"><path id="path222" class="cls-5" d="M201.55,111.64c1.95,1.41,10.53-6.61,1.95-20.07.29,4.61-6,18-1.95,20.07" transform="translate(0 0)"/></g><g id="g224"><path id="path226" class="cls-5" d="M198.58,105.08l-.46-.53a9.77,9.77,0,0,0-1.58-1.43l-.56-.41.68-.14a9.58,9.58,0,0,0,2-.64l.64-.29-.22.67a9.83,9.83,0,0,0-.46,2.07Z" transform="translate(0 0)"/></g><g id="g228"><path id="path230" class="cls-5" d="M199.36,111.44c-.68,2-11,.61-11.64-13.46,2.14,3.47,13.47,9.86,11.64,13.46" transform="translate(0 0)"/></g><g id="g232"><path id="path234" class="cls-5" d="M198,98.2c2.16,1,9.22-8.33-1.57-20.1,1.09,4.49-2.79,18.71,1.57,20.1" transform="translate(0 0)"/></g><g id="g236"><path id="path238" class="cls-5" d="M193.93,92.26l-.54-.44a9.94,9.94,0,0,0-1.8-1.14l-.63-.3.65-.26a9.73,9.73,0,0,0,1.89-1l.57-.39-.1.69a9.51,9.51,0,0,0-.09,2.13Z" transform="translate(0 0)"/></g><g id="g240"><path id="path242" class="cls-5" d="M195.8,98.38c-.32,2.1-10.67,2.5-13.79-11.23,2.71,3,15,7.37,13.79,11.23" transform="translate(0 0)"/></g><g id="g244"><path id="path246" class="cls-5" d="M192.17,85.58c2.31.66,7.63-9.81-5-19.52,1.86,4.23.5,18.91,5,19.52" transform="translate(0 0)"/></g><g id="g248"><path id="path250" class="cls-5" d="M187.13,80.43l-.61-.33a10.21,10.21,0,0,0-2-.81l-.67-.19.59-.37a9.27,9.27,0,0,0,1.69-1.3l.5-.48,0,.7a9.31,9.31,0,0,0,.28,2.1Z" transform="translate(0 0)"/></g><g id="g252"><path id="path254" class="cls-5" d="M190,86.14c0,2.12-10.08,4.32-15.54-8.66,3.2,2.53,16,4.65,15.54,8.66" transform="translate(0 0)"/></g><g id="g256"><path id="path258" class="cls-5" d="M111.49,203.81c1.41,1.94-6.61,10.52-20.07,1.94,4.61.3,18-6,20.07-1.94" transform="translate(0 0)"/></g><g id="g260"><path id="path262" class="cls-5" d="M104.93,200.83l-.53-.46A9.7,9.7,0,0,1,103,198.8l-.41-.57-.14.69a9.58,9.58,0,0,1-.64,2l-.29.64.66-.23a9.43,9.43,0,0,1,2.08-.45Z" transform="translate(0 0)"/></g><g id="g264"><path id="path266" class="cls-5" d="M111.28,201.62c2-.69.62-11-13.45-11.64,3.47,2.14,9.86,13.47,13.45,11.64" transform="translate(0 0)"/></g><g id="g268"><path id="path270" class="cls-5" d="M98.05,200.25c1,2.17-8.34,9.23-20.11-1.56,4.49,1.09,18.72-2.8,20.11,1.56" transform="translate(0 0)"/></g><g id="g272"><path id="path274" class="cls-5" d="M92.1,196.19l-.43-.55a9.12,9.12,0,0,1-1.14-1.8l-.31-.62-.25.65a9.65,9.65,0,0,1-1,1.88l-.39.58.69-.1a9.48,9.48,0,0,1,2.13-.09Z" transform="translate(0 0)"/></g><g id="g276"><path id="path278" class="cls-5" d="M98.23,198.06c2.1-.32,2.5-10.67-11.23-13.79,3,2.7,7.37,15,11.23,13.79" transform="translate(0 0)"/></g><g id="g280"><path id="path282" class="cls-5" d="M85.43,194.42c.66,2.32-9.81,7.64-19.53-5,4.24,1.85,18.92.5,19.53,5" transform="translate(0 0)"/></g><g id="g284"><path id="path286" class="cls-5" d="M80.28,189.39l-.33-.62a9.18,9.18,0,0,1-.81-2l-.19-.67-.37.6a9.2,9.2,0,0,1-1.3,1.68l-.48.51h.7a9.32,9.32,0,0,1,2.1.29Z" transform="translate(0 0)"/></g><g id="g288"><path id="path290" class="cls-5" d="M86,192.29c2.12.05,4.32-10.07-8.66-15.53,2.52,3.19,4.65,16,8.66,15.53" transform="translate(0 0)"/></g><g id="g292"><path id="path294" class="cls-5" d="M74,186.49c.25,2.39-11,5.81-18.36-8.35,3.85,2.56,18.54,3.77,18.36,8.35" transform="translate(0 0)"/></g><g id="g296"><path id="path298" class="cls-5" d="M69.82,180.63,69.6,180a9.78,9.78,0,0,1-.46-2.08l-.07-.69-.46.52A9.23,9.23,0,0,1,67,179.15l-.57.42.69.13a9.71,9.71,0,0,1,2,.65Z" transform="translate(0 0)"/></g><g id="g300"><path id="path302" class="cls-5" d="M74.94,184.49c2.08.41,6-9.18-5.84-16.81,1.94,3.59,1.8,16.6,5.84,16.81" transform="translate(0 0)"/></g><g id="g304"><path id="path306" class="cls-5" d="M64.15,176.69c-.17,2.4-11.82,3.82-16.62-11.41,3.34,3.19,17.6,6.94,16.62,11.41" transform="translate(0 0)"/></g><g id="g308"><path id="path310" class="cls-5" d="M61,170.2l-.11-.69a10.13,10.13,0,0,1-.08-2.13l0-.7-.55.44a9.94,9.94,0,0,1-1.8,1.14l-.63.3.65.26a9.45,9.45,0,0,1,1.89,1Z" transform="translate(0 0)"/></g><g id="g312"><path id="path314" class="cls-5" d="M65.41,174.88c2,.77,7.5-8-2.83-17.56,1.28,3.87-1.11,16.66,2.83,17.56" transform="translate(0 0)"/></g><g id="g316"><path id="path318" class="cls-5" d="M56.14,165.33c-.58,2.34-12.31,1.71-14.39-14.12,2.74,3.72,16.13,9.89,14.39,14.12" transform="translate(0 0)"/></g><g id="g320"><path id="path322" class="cls-5" d="M54.2,158.39l0-.69a9.92,9.92,0,0,1,.28-2.11l.17-.68-.61.33a9.09,9.09,0,0,1-2,.81l-.67.2.6.36a9.56,9.56,0,0,1,1.68,1.3Z" transform="translate(0 0)"/></g><g id="g324"><path id="path326" class="cls-5" d="M57.69,163.77c1.81,1.1,8.78-6.57.27-17.79.59,4-4,16.21-.27,17.79" transform="translate(0 0)"/></g><g id="g328"><path id="path330" class="cls-5" d="M50.22,152.75c-1,2.2-12.42-.45-11.72-16.41,2,4.15,14.17,12.55,11.72,16.41" transform="translate(0 0)"/></g><g id="g332"><path id="path334" class="cls-5" d="M49.52,145.58l.14-.68a9.58,9.58,0,0,1,.64-2l.29-.64-.67.23a9.81,9.81,0,0,1-2.07.45l-.7.07.52.47A9.32,9.32,0,0,1,49.11,145Z" transform="translate(0 0)"/></g><g id="g336"><path id="path338" class="cls-5" d="M52,151.48c1.59,1.4,9.79-4.94,3.35-17.47-.12,4.07-6.74,15.27-3.35,17.47" transform="translate(0 0)"/></g><g id="g340"><path id="path342" class="cls-5" d="M46.58,139.34c-1.35,2-12.15-2.61-8.69-18.2,1.29,4.44,11.77,14.81,8.69,18.2" transform="translate(0 0)"/></g><g id="g344"><path id="path346" class="cls-5" d="M47.13,132.16l.25-.66a9.65,9.65,0,0,1,1-1.88l.39-.58-.69.11a10,10,0,0,1-2.12.08l-.7,0,.44.55a9.89,9.89,0,0,1,1.13,1.8Z" transform="translate(0 0)"/></g><g id="g348"><path id="path350" class="cls-5" d="M48.57,138.4c1.33,1.65,10.5-3.17,6.33-16.63-.82,4-9.29,13.87-6.33,16.63" transform="translate(0 0)"/></g><g id="g352"><path id="path354" class="cls-5" d="M45.32,125.49c-1.67,1.73-11.51-4.68-5.4-19.42.51,4.59,9,16.63,5.4,19.42" transform="translate(0 0)"/></g><g id="g356"><path id="path358" class="cls-5" d="M47.11,118.52l.36-.6a9.66,9.66,0,0,1,1.3-1.68l.49-.51h-.7a10,10,0,0,1-2.11-.29l-.68-.17.34.62a9.87,9.87,0,0,1,.81,2Z" transform="translate(0 0)"/></g><g id="g360"><path id="path362" class="cls-5" d="M47.44,124.91c1,1.86,10.89-1.3,9.13-15.27-1.51,3.79-11.56,12-9.13,15.27" transform="translate(0 0)"/></g><g id="g364"><path id="path366" class="cls-5" d="M46.49,111.64c-2,1.41-10.53-6.61-2-20.07-.3,4.61,6,18,2,20.07" transform="translate(0 0)"/></g><g id="g368"><path id="path370" class="cls-5" d="M49.46,105.08l.46-.53a10.14,10.14,0,0,1,1.57-1.43l.57-.41-.69-.14a9.68,9.68,0,0,1-2-.64l-.64-.29.22.67a9.83,9.83,0,0,1,.46,2.07Z" transform="translate(0 0)"/></g><g id="g372"><path id="path374" class="cls-5" d="M48.68,111.44c.68,2,10.94.61,11.63-13.46-2.13,3.47-13.47,9.86-11.63,13.46" transform="translate(0 0)"/></g><g id="g376"><path id="path378" class="cls-5" d="M50,98.2c-2.16,1-9.22-8.33,1.57-20.1C50.51,82.59,54.4,96.81,50,98.2" transform="translate(0 0)"/></g><g id="g380"><path id="path382" class="cls-5" d="M54.11,92.26l.54-.44a9.94,9.94,0,0,1,1.8-1.14l.63-.3-.65-.26a9.45,9.45,0,0,1-1.89-1L54,88.74l.11.69a10.13,10.13,0,0,1,.08,2.13Z" transform="translate(0 0)"/></g><g id="g384"><path id="path386" class="cls-5" d="M52.23,98.38c.32,2.1,10.68,2.5,13.8-11.23-2.71,3-15,7.37-13.8,11.23" transform="translate(0 0)"/></g><g id="g388"><path id="path390" class="cls-5" d="M55.87,85.58c-2.31.66-7.63-9.81,5-19.52-1.86,4.23-.5,18.91-5,19.52" transform="translate(0 0)"/></g><g id="g392"><path id="path394" class="cls-5" d="M60.91,80.43l.61-.33a10.21,10.21,0,0,1,2-.81l.67-.19-.6-.37a9.56,9.56,0,0,1-1.68-1.3l-.5-.48,0,.7a9.92,9.92,0,0,1-.28,2.1Z" transform="translate(0 0)"/></g><g id="g396"><path id="path398" class="cls-5" d="M58,86.14c0,2.12,10.08,4.32,15.54-8.66-3.2,2.53-16,4.65-15.54,8.66" transform="translate(0 0)"/></g><g id="g400"><path id="path402" class="cls-7" d="M159,225.51v-.1c0-.16,0-.24,0-.51a6.27,6.27,0,0,0-.76-2.33,6.34,6.34,0,0,0-3.51-2.92,5.29,5.29,0,0,0-4.35.39,4.86,4.86,0,0,0-2.27,3.11,5.11,5.11,0,0,0-.06,1.7l.08.29.12.42a4.36,4.36,0,0,0,.32.65,3.23,3.23,0,0,0,1.73,1.38,2.59,2.59,0,0,0,1.72,0,2.86,2.86,0,0,1-1.23-.81,2.43,2.43,0,0,1-.54-1.28,1.53,1.53,0,0,1,0-.37l0-.13.05-.28a3.3,3.3,0,0,1,.34-.68,2.21,2.21,0,0,1,1.26-.87,2.91,2.91,0,0,1,1.58.11,2.45,2.45,0,0,1,1.4,1.14,2.58,2.58,0,0,1,.29.83,1.77,1.77,0,0,1,0,.34v.08h0v.14a5.32,5.32,0,0,1-.06.56,3.82,3.82,0,0,1-1,1.92,3.51,3.51,0,0,1-1.86,1l-.21,0-.39,0c-.08,0-.4,0-.59,0-.44,0-.87-.07-1.29-.13a15.76,15.76,0,0,1-2.39-.56c-1.48-.46-2.75-1-3.66-1.39l-1.46-.59-1.41-.58c-.91-.37-2.23-1-4-1.51a19.45,19.45,0,0,0-2.93-.69c-.54-.08-1.09-.14-1.67-.17-.32,0-.51,0-.95,0l-.39,0-.58.07a7.5,7.5,0,0,0-3.87,1.91,7.36,7.36,0,0,0-2.18,3.87,8.57,8.57,0,0,0-.14,1.12v.61c0,.16,0,.23,0,.5a6.32,6.32,0,0,0,4.27,5.25,5.26,5.26,0,0,0,4.34-.38,4.81,4.81,0,0,0,2.34-4.81l-.08-.29-.12-.42a3.93,3.93,0,0,0-.32-.65,3.23,3.23,0,0,0-1.73-1.38,2.74,2.74,0,0,0-1.72,0,3,3,0,0,1,1.23.82,2.4,2.4,0,0,1,.54,1.28,1.45,1.45,0,0,1,0,.36l0,.13,0,.28a2.87,2.87,0,0,1-.34.68,2.18,2.18,0,0,1-1.26.88,2.91,2.91,0,0,1-1.58-.11,2.51,2.51,0,0,1-1.69-2,1.87,1.87,0,0,1,0-.34v-.24a5.14,5.14,0,0,1,.06-.55,3.74,3.74,0,0,1,1-1.92,3.51,3.51,0,0,1,1.86-1l.21,0,.39,0c.08,0,.4,0,.59,0q.66,0,1.29.12a16.59,16.59,0,0,1,2.38.56c1.49.47,2.75,1,3.67,1.39l1.46.59,1.41.58c.91.37,2.23,1,4,1.52a20.75,20.75,0,0,0,2.93.69c.54.08,1.09.14,1.67.17.32,0,.51,0,1,0l.39,0,.58-.08a7.42,7.42,0,0,0,6.05-5.77A8.72,8.72,0,0,0,159,226v-.5Z" transform="translate(0 0)"/></g><g id="g404"><path id="path406" class="cls-7" d="M126.23,230c0,3.82-3,6.91-3,6.91s-3.05-3.09-3.05-6.91,3.05-6.91,3.05-6.91,3,3.1,3,6.91" transform="translate(0 0)"/></g><g id="g408"><path id="path410" class="cls-7" d="M191.61,207.42l0-.09a3.16,3.16,0,0,0-.21-.46,6.32,6.32,0,0,0-1.5-1.94,6.41,6.41,0,0,0-4.3-1.54,5.28,5.28,0,0,0-3.95,1.85,4.83,4.83,0,0,0-1.07,3.7,5.12,5.12,0,0,0,.52,1.62l.17.24.26.36a4.07,4.07,0,0,0,.52.5,3.19,3.19,0,0,0,2.1.7,2.6,2.6,0,0,0,1.62-.57,3,3,0,0,1-1.43-.35,2.38,2.38,0,0,1-1-1,2.06,2.06,0,0,1-.12-.35V210l-.05-.28a3.18,3.18,0,0,1,.09-.76,2.15,2.15,0,0,1,.88-1.25,3,3,0,0,1,1.52-.44,2.49,2.49,0,0,1,1.71.6,2.71,2.71,0,0,1,.56.68s.09.19.14.3l0,.08h0l0,.14a3.27,3.27,0,0,1,.13.54,3.83,3.83,0,0,1-.31,2.16,3.52,3.52,0,0,1-1.42,1.55l-.18.1-.36.16-.56.19a11.63,11.63,0,0,1-1.26.32,16.23,16.23,0,0,1-2.43.29c-1.56.07-2.93,0-3.92-.05l-1.57-.06-1.53-.06c-1,0-2.42-.13-4.25-.06a19.82,19.82,0,0,0-3,.35c-.54.11-1.08.24-1.64.41-.3.11-.48.15-.89.32l-.36.15-.52.27a7.45,7.45,0,0,0-3,3.11,7.34,7.34,0,0,0-.73,4.38,6.89,6.89,0,0,0,.26,1.11l.08.27,0,.07.06.13,0,.1a3.16,3.16,0,0,0,.21.46,6.17,6.17,0,0,0,1.5,1.94,6.33,6.33,0,0,0,4.3,1.53,5.25,5.25,0,0,0,3.95-1.85,4.84,4.84,0,0,0,1.07-3.69,5.12,5.12,0,0,0-.52-1.62l-.17-.25-.26-.35a4,4,0,0,0-.52-.5,3.19,3.19,0,0,0-2.1-.7,2.56,2.56,0,0,0-1.62.57,3,3,0,0,1,1.43.35,2.39,2.39,0,0,1,.95,1,2.06,2.06,0,0,1,.12.35v.13l.05.28a3,3,0,0,1-.09.75,2.18,2.18,0,0,1-.88,1.26,3,3,0,0,1-1.53.44,2.47,2.47,0,0,1-1.7-.6,2.71,2.71,0,0,1-.56-.68,1.63,1.63,0,0,1-.14-.31l0-.07v0l0-.13a3.27,3.27,0,0,1-.13-.54,3.82,3.82,0,0,1,.31-2.16,3.52,3.52,0,0,1,1.42-1.55l.18-.11.36-.15c.07,0,.38-.13.56-.19a11.7,11.7,0,0,1,1.26-.33,16.18,16.18,0,0,1,2.43-.28c1.55-.07,2.93,0,3.92,0l1.57.05,1.53.06c1,0,2.42.14,4.25.07a19.82,19.82,0,0,0,3-.35c.54-.11,1.08-.24,1.63-.41.31-.11.49-.15.9-.32l.36-.15.51-.27a7.44,7.44,0,0,0,3-3.12A7.31,7.31,0,0,0,192,209a8.37,8.37,0,0,0-.26-1.1l-.08-.27,0-.07Z" transform="translate(0 0)"/></g><g id="g412"><path id="path414" class="cls-7" d="M162.34,222.84c1.3,3.58-.51,7.53-.51,7.53s-3.92-1.86-5.23-5.45.51-7.53.51-7.53,3.92,1.86,5.23,5.45" transform="translate(0 0)"/></g><g id="g416"><path id="path418" class="cls-7" d="M216.06,179.27l-.07-.07a3.61,3.61,0,0,0-.35-.36,6.41,6.41,0,0,0-2.08-1.31,6.29,6.29,0,0,0-4.56,0,5.29,5.29,0,0,0-3.09,3.09,4.88,4.88,0,0,0,.26,3.84,5.07,5.07,0,0,0,1.05,1.34l.24.17.37.25a4.74,4.74,0,0,0,.66.29,3.2,3.2,0,0,0,2.21-.06,2.61,2.61,0,0,0,1.33-1.09,2.94,2.94,0,0,1-1.47.16,2.35,2.35,0,0,1-1.23-.63,1.49,1.49,0,0,1-.23-.28l-.06-.12-.15-.25a4.06,4.06,0,0,1-.17-.74,2.18,2.18,0,0,1,.4-1.48,3,3,0,0,1,1.28-.93,2.46,2.46,0,0,1,1.81,0,2.67,2.67,0,0,1,.76.44,2.5,2.5,0,0,1,.24.24l0,.06h0l.09.12a3.64,3.64,0,0,1,.3.46,3.69,3.69,0,0,1,.45,2.13,3.51,3.51,0,0,1-.81,1.95l-.13.16-.28.26c-.06.07-.32.26-.46.38a11.92,11.92,0,0,1-1.07.73,16.71,16.71,0,0,1-2.19,1.11c-1.44.59-2.76,1-3.7,1.29l-1.5.48-1.45.47c-.94.3-2.33.7-4,1.39a21.12,21.12,0,0,0-2.69,1.35,16.36,16.36,0,0,0-1.39,1c-.24.2-.41.3-.73.6l-.28.26-.4.43a7.54,7.54,0,0,0-1.74,3.95,7.35,7.35,0,0,0,.82,4.37,9.56,9.56,0,0,0,.61.95l.18.22,0,.06.1.11.07.08c.11.11.15.17.35.36a6.12,6.12,0,0,0,2.08,1.3,6.34,6.34,0,0,0,4.56,0,5.28,5.28,0,0,0,3.08-3.09,4.78,4.78,0,0,0-1.3-5.18l-.24-.18-.37-.24a3.79,3.79,0,0,0-.66-.29,3.14,3.14,0,0,0-2.21.06,2.51,2.51,0,0,0-1.33,1.09,2.84,2.84,0,0,1,1.47-.17,2.35,2.35,0,0,1,1.23.63,2.09,2.09,0,0,1,.23.29l.06.12.15.24a4.06,4.06,0,0,1,.17.74,2.12,2.12,0,0,1-.41,1.48,2.86,2.86,0,0,1-1.27.94,2.51,2.51,0,0,1-1.81,0,2.67,2.67,0,0,1-.76-.45s-.15-.15-.24-.24l-.05-.06h0l-.09-.11c-.12-.14-.2-.31-.31-.46a3.78,3.78,0,0,1-.44-2.14,3.44,3.44,0,0,1,.81-1.94l.13-.16.28-.27c.06-.06.32-.26.46-.38.35-.26.71-.5,1.07-.73a16.61,16.61,0,0,1,2.19-1.1c1.44-.6,2.76-1,3.7-1.29l1.5-.49,1.45-.46c.94-.31,2.33-.7,4-1.4a20.27,20.27,0,0,0,2.68-1.34c.47-.29.93-.6,1.39-1,.25-.21.41-.31.74-.6l.28-.27.4-.43a7.51,7.51,0,0,0,1.74-4,7.3,7.3,0,0,0-.82-4.36,6.74,6.74,0,0,0-.62-1l-.17-.23,0-.05Z" transform="translate(0 0)"/></g><g id="g420"><path id="path422" class="cls-7" d="M193.82,203.77c2.46,2.92,2.11,7.25,2.11,7.25s-4.33-.41-6.78-3.33-2.1-7.25-2.1-7.25,4.32.41,6.77,3.33" transform="translate(0 0)"/></g><g id="g424"><path id="path426" class="cls-7" d="M229.41,144.46l-.1-.05a4.13,4.13,0,0,0-.45-.21,6.12,6.12,0,0,0-2.4-.52,6.34,6.34,0,0,0-4.28,1.58,5.32,5.32,0,0,0-1.84,4,4.84,4.84,0,0,0,1.56,3.52,4.91,4.91,0,0,0,1.44.9l.29.08.42.11a4.56,4.56,0,0,0,.73,0,3.24,3.24,0,0,0,2.06-.82,2.58,2.58,0,0,0,.87-1.47,3.09,3.09,0,0,1-1.32.65,2.39,2.39,0,0,1-1.38-.17,1.92,1.92,0,0,1-.31-.18l-.1-.1-.22-.18A3.08,3.08,0,0,1,224,151a2.15,2.15,0,0,1-.13-1.53,2.92,2.92,0,0,1,.88-1.31,2.46,2.46,0,0,1,1.7-.64,2.58,2.58,0,0,1,.86.16,2.82,2.82,0,0,1,.3.14l.08,0h0l.12.08a3.54,3.54,0,0,1,.44.32,3.78,3.78,0,0,1,1.15,1.86,3.47,3.47,0,0,1-.09,2.1l-.07.2-.17.35c0,.07-.21.34-.31.51q-.36.56-.75,1.05a15.14,15.14,0,0,1-1.68,1.78c-1.15,1.06-2.26,1.88-3,2.49l-1.24,1-1.21.94c-.77.6-1.94,1.45-3.29,2.68a22,22,0,0,0-2.07,2.18c-.33.43-.67.88-1,1.37-.16.28-.28.43-.48.82l-.18.34-.22.54a7.45,7.45,0,0,0-.29,4.31,7.34,7.34,0,0,0,2.26,3.82,6.73,6.73,0,0,0,.91.68l.24.16.06,0,.13.07.09.05a3.81,3.81,0,0,0,.45.22,6.28,6.28,0,0,0,6.68-1.07,5.25,5.25,0,0,0,1.84-4,4.86,4.86,0,0,0-1.56-3.52,5.22,5.22,0,0,0-1.44-.9l-.29-.08-.42-.1a3.59,3.59,0,0,0-.72-.05,3.14,3.14,0,0,0-2.06.81,2.68,2.68,0,0,0-.88,1.48,2.92,2.92,0,0,1,1.33-.65,2.21,2.21,0,0,1,1.37.17,2,2,0,0,1,.32.18l.09.1.22.18a3.28,3.28,0,0,1,.42.63,2.1,2.1,0,0,1,.12,1.53,2.9,2.9,0,0,1-.88,1.32,2.43,2.43,0,0,1-1.69.63,2.83,2.83,0,0,1-.86-.15,1.57,1.57,0,0,1-.31-.15l-.07,0h0l-.12-.08a3.63,3.63,0,0,1-1.6-2.18,3.54,3.54,0,0,1,.09-2.1l.07-.2.18-.35c0-.07.21-.35.3-.51.24-.37.5-.72.76-1.05a16.09,16.09,0,0,1,1.68-1.79c1.14-1,2.25-1.87,3-2.48l1.24-1,1.21-.93c.78-.6,1.95-1.45,3.3-2.68a20,20,0,0,0,2.06-2.19,15.77,15.77,0,0,0,1-1.36c.17-.28.28-.43.49-.82l.17-.35.23-.54a7.5,7.5,0,0,0,.28-4.3,7.33,7.33,0,0,0-2.26-3.83,8.49,8.49,0,0,0-.9-.68l-.24-.15-.06,0Z" transform="translate(0 0)"/></g><g id="g428"><path id="path430" class="cls-7" d="M216.89,175.09c3.3,1.9,4.46,6.09,4.46,6.09s-4.21,1.1-7.51-.81-4.46-6.1-4.46-6.1,4.2-1.09,7.51.82" transform="translate(0 0)"/></g><g id="g432"><path id="path434" class="cls-7" d="M230,107.18h-.1a3.93,3.93,0,0,0-.5,0,6.15,6.15,0,0,0-2.43.34,6.32,6.32,0,0,0-3.48,3,5.28,5.28,0,0,0-.38,4.35,4.89,4.89,0,0,0,2.67,2.77,5,5,0,0,0,1.67.36l.29,0,.44,0a4.31,4.31,0,0,0,.69-.2,3.18,3.18,0,0,0,1.66-1.47,2.63,2.63,0,0,0,.32-1.69,3,3,0,0,1-1,1.07,2.37,2.37,0,0,1-1.35.31,1.91,1.91,0,0,1-.36-.07l-.12-.06-.27-.09a3,3,0,0,1-.61-.46,2.12,2.12,0,0,1-.64-1.39,2.87,2.87,0,0,1,.38-1.54,2.41,2.41,0,0,1,1.37-1.17,2.68,2.68,0,0,1,.86-.15,1.81,1.81,0,0,1,.34,0h.1l.13,0a4.1,4.1,0,0,1,.53.16,3.82,3.82,0,0,1,1.72,1.35,3.55,3.55,0,0,1,.63,2v.2l0,.39c0,.08-.08.4-.11.59-.1.42-.22.84-.35,1.25a16.39,16.39,0,0,1-1,2.25c-.72,1.38-1.48,2.53-2,3.37l-.83,1.33-.82,1.29c-.52.83-1.33,2-2.17,3.65a19.87,19.87,0,0,0-1.2,2.76,14.68,14.68,0,0,0-.45,1.62c-.06.31-.12.49-.18.93l0,.39,0,.58a7.39,7.39,0,0,0,1.21,4.14,7.29,7.29,0,0,0,3.42,2.82,7.18,7.18,0,0,0,1.09.33l.27.07h.07l.15,0h.11a3.55,3.55,0,0,0,.5.05,6.15,6.15,0,0,0,2.43-.33,6.39,6.39,0,0,0,3.48-2.95,5.31,5.31,0,0,0,.37-4.35,4.88,4.88,0,0,0-2.67-2.78,5.24,5.24,0,0,0-1.66-.35l-.3,0-.43.05a3.79,3.79,0,0,0-.7.2,3.26,3.26,0,0,0-1.66,1.47,2.65,2.65,0,0,0-.31,1.69,2.86,2.86,0,0,1,1-1.07,2.33,2.33,0,0,1,1.35-.31,2.25,2.25,0,0,1,.36.06l.12.06.27.09a4.23,4.23,0,0,1,.61.46,2.14,2.14,0,0,1,.64,1.4,2.94,2.94,0,0,1-.38,1.53,2.5,2.5,0,0,1-1.37,1.18,2.74,2.74,0,0,1-.87.15s-.21,0-.33,0h-.1l-.14,0a5.26,5.26,0,0,1-.53-.15,3.75,3.75,0,0,1-1.71-1.36,3.46,3.46,0,0,1-.64-2V135l0-.39c0-.08.08-.4.11-.58.1-.43.22-.85.35-1.25a15.39,15.39,0,0,1,1-2.25c.71-1.38,1.48-2.53,2-3.37s.84-1.33.84-1.33l.81-1.29c.52-.84,1.33-2,2.18-3.65a19.88,19.88,0,0,0,1.19-2.76c.17-.52.33-1.06.46-1.62.06-.32.12-.5.17-.93l0-.39,0-.58a7.52,7.52,0,0,0-1.21-4.15,7.37,7.37,0,0,0-3.43-2.82,10.33,10.33,0,0,0-1.08-.33l-.28-.06h-.07Z" transform="translate(0 0)"/></g><g id="g436"><path id="path438" class="cls-7" d="M228.75,140.24c3.76.67,6.28,4.21,6.28,4.21s-3.58,2.46-7.33,1.8-6.28-4.2-6.28-4.2,3.58-2.47,7.33-1.81" transform="translate(0 0)"/></g><g id="g440"><path id="path442" class="cls-7" d="M217.89,71.94l-.1,0a4.13,4.13,0,0,0-.49.13,6.15,6.15,0,0,0-2.17,1.14,6.37,6.37,0,0,0-2.26,4A5.31,5.31,0,0,0,214,81.41a4.89,4.89,0,0,0,3.46,1.7,5.06,5.06,0,0,0,1.68-.24l.27-.12.39-.2a4.43,4.43,0,0,0,.59-.42,3.17,3.17,0,0,0,1-1.95,2.54,2.54,0,0,0-.28-1.69,2.86,2.86,0,0,1-.59,1.35,2.33,2.33,0,0,1-1.16.75,2.25,2.25,0,0,1-.36.06h-.42a3.11,3.11,0,0,1-.73-.22,2.13,2.13,0,0,1-1.08-1.09,2.85,2.85,0,0,1-.17-1.57,2.47,2.47,0,0,1,.89-1.58,2.72,2.72,0,0,1,.76-.43,1.66,1.66,0,0,1,.33-.09l.08,0h.15a3.39,3.39,0,0,1,.55,0,3.77,3.77,0,0,1,2.08.68,3.5,3.5,0,0,1,1.28,1.67l.07.2.09.38c0,.07.06.4.1.58.05.44.08.87.1,1.29a17.47,17.47,0,0,1-.14,2.45c-.21,1.54-.53,2.89-.74,3.85l-.33,1.54s-.11.54-.32,1.49-.56,2.37-.8,4.18a19.91,19.91,0,0,0-.18,3c0,.54.06,1.1.13,1.68.05.31.06.5.15.93l.09.38.18.56a7.42,7.42,0,0,0,6.73,5,10.88,10.88,0,0,0,1.14-.06l.28,0h.07l.14,0,.11,0a4.09,4.09,0,0,0,.48-.13A5.92,5.92,0,0,0,232.3,104a6.3,6.3,0,0,0,2.26-4,5.26,5.26,0,0,0-1.13-4.21A4.87,4.87,0,0,0,230,94.1a5.06,5.06,0,0,0-1.68.24l-.27.12-.4.19a4.36,4.36,0,0,0-.58.43A3.24,3.24,0,0,0,226,97a2.65,2.65,0,0,0,.28,1.69,3.05,3.05,0,0,1,.6-1.35,2.36,2.36,0,0,1,1.16-.76,2.23,2.23,0,0,1,.36,0h.42a3.68,3.68,0,0,1,.73.22,2.2,2.2,0,0,1,1.08,1.09,3,3,0,0,1,.17,1.58,2.52,2.52,0,0,1-.89,1.58,2.86,2.86,0,0,1-.76.43,2.24,2.24,0,0,1-.33.08l-.08,0h0l-.13,0a3.52,3.52,0,0,1-.56,0,3.77,3.77,0,0,1-2.07-.69,3.52,3.52,0,0,1-1.28-1.66l-.08-.2-.08-.38c0-.08-.07-.4-.1-.58a11.55,11.55,0,0,1-.1-1.3,16,16,0,0,1,.14-2.44c.2-1.55.53-2.89.73-3.86L225.5,89l.33-1.5c.2-1,.55-2.36.8-4.17a21.49,21.49,0,0,0,.17-3,16.39,16.39,0,0,0-.12-1.68c-.06-.32-.06-.51-.16-.93l-.09-.39-.17-.55a7.42,7.42,0,0,0-2.55-3.48,7.3,7.3,0,0,0-4.19-1.48,7.07,7.07,0,0,0-1.13.06l-.28,0H218Z" transform="translate(0 0)"/></g><g id="g444"><path id="path446" class="cls-7" d="M228,103.44c3.76-.66,7.33,1.81,7.33,1.81s-2.51,3.54-6.27,4.2-7.34-1.8-7.34-1.8,2.52-3.54,6.28-4.21" transform="translate(0 0)"/></g><g id="g448"><path id="path450" class="cls-7" d="M194.42,43l-.09.06a5,5,0,0,0-.42.28,6.21,6.21,0,0,0-1.64,1.82,6.34,6.34,0,0,0-.77,4.5A5.28,5.28,0,0,0,194,53.2a4.86,4.86,0,0,0,3.83.41,4.94,4.94,0,0,0,1.5-.8l.21-.2.3-.32a4.27,4.27,0,0,0,.41-.6,3.21,3.21,0,0,0,.32-2.19,2.61,2.61,0,0,0-.84-1.5,2.82,2.82,0,0,1-.1,1.47,2.29,2.29,0,0,1-.83,1.11,2,2,0,0,1-.32.18l-.13,0-.26.1a3.64,3.64,0,0,1-.76,0,2.13,2.13,0,0,1-1.39-.66,2.92,2.92,0,0,1-.7-1.42,2.42,2.42,0,0,1,1.14-2.64l.07,0h0l.13-.07a4.61,4.61,0,0,1,.51-.22,3.77,3.77,0,0,1,2.18-.07,3.49,3.49,0,0,1,1.77,1.13l.14.16.21.33c.05.06.2.35.29.51.2.39.38.79.54,1.19a15.86,15.86,0,0,1,.7,2.34c.34,1.52.5,2.89.63,3.87l.22,1.56.21,1.51c.13,1,.28,2.41.67,4.2a20.77,20.77,0,0,0,.86,2.88c.2.5.43,1,.69,1.53.16.28.23.46.47.83l.21.33.35.46a7.63,7.63,0,0,0,3.59,2.4,7.47,7.47,0,0,0,4.44,0,9.75,9.75,0,0,0,1.05-.45l.25-.13.06,0,.13-.08.08-.06a3.73,3.73,0,0,0,.42-.28,6.4,6.4,0,0,0,1.65-1.82,6.33,6.33,0,0,0,.76-4.5,5.27,5.27,0,0,0-2.5-3.57,4.87,4.87,0,0,0-3.83-.41,5,5,0,0,0-1.5.79l-.22.21-.3.32a4.17,4.17,0,0,0-.4.6,3.17,3.17,0,0,0-.33,2.19,2.65,2.65,0,0,0,.85,1.5,2.87,2.87,0,0,1,.09-1.47,2.31,2.31,0,0,1,.83-1.11,2,2,0,0,1,.32-.18l.13,0,.27-.1a3.56,3.56,0,0,1,.76,0,2.17,2.17,0,0,1,1.39.66,2.92,2.92,0,0,1,.69,1.42,2.44,2.44,0,0,1-.29,1.78,2.65,2.65,0,0,1-.57.67,2.43,2.43,0,0,1-.28.19l-.07,0h0l-.12.07c-.17.09-.34.15-.51.22a3.77,3.77,0,0,1-2.18.07,3.52,3.52,0,0,1-1.78-1.13l-.13-.16-.22-.33c-.05-.06-.19-.35-.29-.52-.2-.39-.37-.78-.53-1.18a15.93,15.93,0,0,1-.71-2.34c-.34-1.52-.49-2.89-.63-3.87s-.21-1.56-.21-1.56-.08-.55-.21-1.51-.29-2.41-.68-4.2a19.14,19.14,0,0,0-.86-2.88,15.74,15.74,0,0,0-.69-1.53c-.16-.28-.23-.46-.46-.83l-.22-.33-.35-.46a7.43,7.43,0,0,0-8-2.36,9.59,9.59,0,0,0-1,.45l-.25.13-.07,0Z" transform="translate(0 0)"/></g><g id="g452"><path id="path454" class="cls-7" d="M214.68,69.12c3.31-1.9,7.51-.81,7.51-.81s-1.15,4.19-4.46,6.1-7.51.81-7.51.81,1.16-4.19,4.46-6.1" transform="translate(0 0)"/></g><g id="g456"><path id="path458" class="cls-7" d="M162.45,23.78l-.06.08a4.83,4.83,0,0,0-.29.41A6.27,6.27,0,0,0,162,31a5.24,5.24,0,0,0,3.58,2.5,4.8,4.8,0,0,0,3.73-.92,4.89,4.89,0,0,0,1.14-1.26l.13-.27.18-.4a4,4,0,0,0,.17-.7,3.17,3.17,0,0,0-.44-2.17,2.51,2.51,0,0,0-1.31-1.12,2.8,2.8,0,0,1,.42,1.41,2.29,2.29,0,0,1-.41,1.33,3.11,3.11,0,0,1-.23.28l-.11.07-.22.19a3.58,3.58,0,0,1-.7.3,2.17,2.17,0,0,1-1.53-.14,2.84,2.84,0,0,1-1.14-1.1,2.49,2.49,0,0,1-.33-1.78,2.27,2.27,0,0,1,.5-1.1l.05-.06h0l.09-.1a4.89,4.89,0,0,1,.4-.39,3.86,3.86,0,0,1,2-.81,3.5,3.5,0,0,1,2.05.46l.19.1.31.24c.07,0,.3.26.45.38.32.3.62.61.91.93a16.85,16.85,0,0,1,1.46,2c.84,1.31,1.45,2.55,1.92,3.42l.73,1.39.71,1.36c.46.86,1.1,2.16,2.07,3.71a21.47,21.47,0,0,0,1.8,2.41c.36.4.75.81,1.17,1.2.25.21.37.35.72.62l.31.24.49.31a7.5,7.5,0,0,0,4.2,1A7.39,7.39,0,0,0,191.64,43a7.66,7.66,0,0,0,.83-.78l.19-.21.05-.05.09-.11.07-.09c.09-.13.14-.18.29-.41a6.08,6.08,0,0,0,.92-2.27,6.31,6.31,0,0,0-.81-4.49,5.29,5.29,0,0,0-3.58-2.5A4.92,4.92,0,0,0,186,33a5.12,5.12,0,0,0-1.14,1.27l-.12.27-.18.4a4.81,4.81,0,0,0-.18.7,3.22,3.22,0,0,0,.45,2.17,2.71,2.71,0,0,0,1.3,1.12,3,3,0,0,1-.41-1.42,2.37,2.37,0,0,1,.4-1.33,2,2,0,0,1,.24-.27l.11-.08.22-.18a2.54,2.54,0,0,1,.7-.3,2,2,0,0,1,1.52.14A3,3,0,0,1,190,36.57a2.49,2.49,0,0,1,.33,1.78,2.42,2.42,0,0,1-.31.82,1.69,1.69,0,0,1-.19.28l-.05.07h0l-.1.1a2.89,2.89,0,0,1-.4.38,3.67,3.67,0,0,1-2,.81,3.51,3.51,0,0,1-2.05-.45l-.18-.11-.31-.23c-.07,0-.31-.27-.45-.39-.32-.3-.63-.61-.91-.92a16.13,16.13,0,0,1-1.46-2c-.84-1.31-1.46-2.55-1.92-3.42l-.74-1.39-.71-1.35c-.46-.87-1.09-2.17-2.07-3.71a18.68,18.68,0,0,0-1.79-2.41,14.87,14.87,0,0,0-1.18-1.21,8.94,8.94,0,0,0-.72-.61l-.31-.24L172,22.1a7.45,7.45,0,0,0-4.19-1,7.31,7.31,0,0,0-4.16,1.56,7.57,7.57,0,0,0-.83.77l-.19.21,0,.05Z" transform="translate(0 0)"/></g><g id="g460"><path id="path462" class="cls-7" d="M190.44,41.43c2.45-2.93,6.78-3.33,6.78-3.33s.34,4.33-2.11,7.25-6.78,3.33-6.78,3.33-.34-4.33,2.11-7.25" transform="translate(0 0)"/></g><g id="g464"><path id="path466" class="cls-7" d="M125.85,16.68l0,.1c0,.15-.08.22-.14.49a6.19,6.19,0,0,0-.09,2.45,6.38,6.38,0,0,0,2.3,3.94,5.28,5.28,0,0,0,4.22,1.12,4.86,4.86,0,0,0,3.2-2.14,5.3,5.3,0,0,0,.64-1.58l0-.3,0-.43a5.11,5.11,0,0,0-.08-.72,3.19,3.19,0,0,0-1.16-1.89,2.5,2.5,0,0,0-1.61-.6A2.77,2.77,0,0,1,134,18.3a2.34,2.34,0,0,1,.08,1.39A2,2,0,0,1,134,20l-.08.11-.14.25a3.49,3.49,0,0,1-.55.52,2.14,2.14,0,0,1-1.49.39,2.88,2.88,0,0,1-1.44-.64,2.45,2.45,0,0,1-.93-1.56,2.76,2.76,0,0,1,0-.87,3,3,0,0,1,.09-.33l0-.08h0l.05-.13a4.66,4.66,0,0,1,.25-.5,3.75,3.75,0,0,1,1.63-1.45,3.48,3.48,0,0,1,2.08-.28l.21,0,.37.11c.08,0,.38.15.56.21.4.17.79.36,1.17.56a17.27,17.27,0,0,1,2,1.34c1.23.95,2.23,1.9,3,2.56L142,21.33l1.13,1c.73.66,1.77,1.67,3.22,2.78a19.17,19.17,0,0,0,2.51,1.66c.48.26,1,.5,1.51.73.3.11.47.2.89.33l.37.12.57.12a7.43,7.43,0,0,0,4.29-.47,7.33,7.33,0,0,0,3.38-2.88,9.55,9.55,0,0,0,.51-1l.11-.27,0-.06,0-.14,0-.1a4.1,4.1,0,0,0,.14-.49,6.19,6.19,0,0,0,.09-2.45,6.35,6.35,0,0,0-2.3-3.94,5.28,5.28,0,0,0-4.22-1.12,4.86,4.86,0,0,0-3.2,2.14,5,5,0,0,0-.63,1.58l0,.3,0,.43a4.09,4.09,0,0,0,.07.72,3.28,3.28,0,0,0,1.16,1.89,2.51,2.51,0,0,0,1.61.6,2.86,2.86,0,0,1-.87-1.18,2.26,2.26,0,0,1-.07-1.39,2,2,0,0,1,.12-.34l.08-.11.14-.25a3.2,3.2,0,0,1,.56-.52,2.1,2.1,0,0,1,1.48-.39,2.94,2.94,0,0,1,1.45.64,2.51,2.51,0,0,1,.91,2.43,1.26,1.26,0,0,1-.09.33l0,.08h0l0,.13a4.59,4.59,0,0,1-.24.5A3.84,3.84,0,0,1,155,24.21a3.47,3.47,0,0,1-2.08.28l-.2,0-.38-.11c-.08,0-.38-.15-.55-.21a12.66,12.66,0,0,1-1.17-.56,15.47,15.47,0,0,1-2-1.35c-1.24-.94-2.24-1.89-3-2.56l-1.17-1.05-1.13-1c-.73-.65-1.77-1.66-3.21-2.78a21.85,21.85,0,0,0-2.51-1.65,16.43,16.43,0,0,0-1.52-.73c-.3-.11-.47-.2-.89-.33l-.37-.12-.57-.12a7.53,7.53,0,0,0-4.29.46,7.39,7.39,0,0,0-3.37,2.89,8,8,0,0,0-.52,1l-.11.26,0,.07Z" transform="translate(0 0)"/></g><g id="g468"><path id="path470" class="cls-7" d="M158.18,23.69c1.31-3.58,5.23-5.45,5.23-5.45s1.81,4,.51,7.54-5.23,5.45-5.23,5.45-1.81-3.95-.51-7.54" transform="translate(0 0)"/></g><g id="g472"><path id="path474" class="cls-7" d="M89,22.53v.1a3.86,3.86,0,0,0,0,.5,6.26,6.26,0,0,0,.75,2.34,6.35,6.35,0,0,0,3.51,2.91A5.28,5.28,0,0,0,97.68,28,4.77,4.77,0,0,0,100,23.19l-.07-.29-.12-.42a3.93,3.93,0,0,0-.32-.65,3.22,3.22,0,0,0-1.74-1.38,2.55,2.55,0,0,0-1.71,0,2.87,2.87,0,0,1,1.22.81,2.36,2.36,0,0,1,.55,1.28,2.17,2.17,0,0,1,0,.36l0,.13,0,.28a2.87,2.87,0,0,1-.34.68,2.18,2.18,0,0,1-1.26.88,2.91,2.91,0,0,1-1.58-.11,2.43,2.43,0,0,1-1.4-1.15,2.46,2.46,0,0,1-.29-.82,1.24,1.24,0,0,1,0-.34V22.2a5.43,5.43,0,0,1,.06-.55,3.77,3.77,0,0,1,1-1.92,3.53,3.53,0,0,1,1.87-1l.2,0,.39,0c.08,0,.41,0,.6,0q.66,0,1.29.12a15.34,15.34,0,0,1,2.38.57c1.49.46,2.75,1,3.67,1.39l1.46.59,1.41.57c.91.37,2.23,1,4,1.52a19.45,19.45,0,0,0,2.93.69c.53.08,1.09.14,1.67.17.32,0,.51,0,.95,0l.39,0,.57-.08a7.52,7.52,0,0,0,3.88-1.9,7.42,7.42,0,0,0,2.18-3.87,8.51,8.51,0,0,0,.14-1.13v-.6a3.86,3.86,0,0,0,0-.5,6.08,6.08,0,0,0-.75-2.34A6.28,6.28,0,0,0,119.57,11a5.29,5.29,0,0,0-4.35.38A4.86,4.86,0,0,0,113,14.48a5.11,5.11,0,0,0-.06,1.7l.08.29.12.42a3.93,3.93,0,0,0,.32.65,3.2,3.2,0,0,0,1.73,1.38,2.59,2.59,0,0,0,1.72,0,2.81,2.81,0,0,1-1.23-.81,2.43,2.43,0,0,1-.54-1.28,2.28,2.28,0,0,1,0-.37l0-.12,0-.28a3.39,3.39,0,0,1,.35-.68,2.15,2.15,0,0,1,1.26-.88,2.92,2.92,0,0,1,1.58.11,2.43,2.43,0,0,1,1.4,1.15,2.71,2.71,0,0,1,.29.82,1.87,1.87,0,0,1,0,.34v.23a5.32,5.32,0,0,1-.06.56,3.78,3.78,0,0,1-1,1.92,3.51,3.51,0,0,1-1.86,1l-.21,0-.39,0c-.08,0-.4,0-.59,0q-.66,0-1.29-.12a17,17,0,0,1-2.39-.57c-1.48-.46-2.75-1-3.66-1.39L107.13,18l-1.42-.58c-.91-.36-2.22-.95-4-1.51a19.6,19.6,0,0,0-2.92-.69c-.54-.08-1.1-.14-1.67-.17-.32,0-.51,0-1,0l-.39,0-.58.07A7.54,7.54,0,0,0,91.36,17a7.29,7.29,0,0,0-2.18,3.87A7.14,7.14,0,0,0,89,22v.51Z" transform="translate(0 0)"/></g><g id="g476"><path id="path478" class="cls-7" d="M121.81,18.06c0-3.82,3-6.91,3-6.91s3,3.09,3,6.91-3,6.91-3,6.91-3-3.1-3-6.91" transform="translate(0 0)"/></g><g id="g480"><path id="path482" class="cls-7" d="M56.43,40.61l0,.1a3.16,3.16,0,0,0,.21.46,6.17,6.17,0,0,0,1.5,1.94,6.33,6.33,0,0,0,4.3,1.53,5.25,5.25,0,0,0,4-1.85A4.84,4.84,0,0,0,67.5,39.1,5.12,5.12,0,0,0,67,37.48l-.17-.25-.26-.35a4,4,0,0,0-.52-.5,3.19,3.19,0,0,0-2.1-.7,2.56,2.56,0,0,0-1.62.57,3,3,0,0,1,1.43.35,2.39,2.39,0,0,1,.95,1,2.06,2.06,0,0,1,.12.35v.13l.05.28a3,3,0,0,1-.09.75,2.18,2.18,0,0,1-.88,1.26,3,3,0,0,1-1.53.44,2.47,2.47,0,0,1-1.7-.6,2.71,2.71,0,0,1-.56-.68,1.63,1.63,0,0,1-.14-.31l0-.07v0l0-.13a3.27,3.27,0,0,1-.13-.54,3.82,3.82,0,0,1,.31-2.16,3.52,3.52,0,0,1,1.42-1.55l.18-.11L62,34.5c.07,0,.38-.13.56-.19A11.7,11.7,0,0,1,63.85,34a16.18,16.18,0,0,1,2.43-.28c1.55-.07,2.93,0,3.92,0l1.57,0,1.53.06c1,0,2.42.14,4.25.07a19.82,19.82,0,0,0,3-.35c.53-.11,1.08-.24,1.63-.41.31-.11.49-.15.9-.32l.36-.15.51-.27a7.44,7.44,0,0,0,3-3.12,7.31,7.31,0,0,0,.73-4.38,8.37,8.37,0,0,0-.26-1.1l-.08-.27,0-.07-.06-.14,0-.09A3.16,3.16,0,0,0,87,22.8a6.32,6.32,0,0,0-1.5-1.94,6.41,6.41,0,0,0-4.3-1.54,5.28,5.28,0,0,0-4,1.85,4.83,4.83,0,0,0-1.07,3.7,5.12,5.12,0,0,0,.52,1.62l.17.24.26.36a4.07,4.07,0,0,0,.52.5,3.19,3.19,0,0,0,2.1.7,2.6,2.6,0,0,0,1.62-.57,3,3,0,0,1-1.43-.35,2.33,2.33,0,0,1-1-1,2.06,2.06,0,0,1-.12-.35v-.13l0-.28a3.18,3.18,0,0,1,.09-.76,2.15,2.15,0,0,1,.88-1.25,3,3,0,0,1,1.52-.44,2.49,2.49,0,0,1,1.71.6,2.71,2.71,0,0,1,.56.68,1.77,1.77,0,0,1,.14.3l0,.08h0l0,.14a4.72,4.72,0,0,1,.13.54,3.83,3.83,0,0,1-.31,2.16,3.58,3.58,0,0,1-1.42,1.55l-.18.1-.36.16-.56.19a11.63,11.63,0,0,1-1.26.32,16.23,16.23,0,0,1-2.43.29c-1.56.07-2.93,0-3.92-.05l-1.57-.06-1.53-.06c-1,0-2.42-.13-4.25-.06a19.82,19.82,0,0,0-3,.35c-.54.11-1.08.24-1.64.41-.3.11-.48.15-.89.32l-.36.15-.52.27a7.45,7.45,0,0,0-3,3.11A7.34,7.34,0,0,0,56,39a6.89,6.89,0,0,0,.26,1.11l.08.27,0,.07Z" transform="translate(0 0)"/></g><g id="g484"><path id="path486" class="cls-7" d="M85.7,25.2c-1.3-3.58.5-7.53.5-7.53s3.93,1.86,5.23,5.45-.5,7.53-.5,7.53S87,28.79,85.7,25.2" transform="translate(0 0)"/></g><g id="g488"><path id="path490" class="cls-7" d="M32,68.76l.07.08c.11.11.15.18.35.36a6.31,6.31,0,0,0,2.08,1.31,6.4,6.4,0,0,0,4.56,0,5.28,5.28,0,0,0,3.08-3.09,4.84,4.84,0,0,0-.26-3.84,5,5,0,0,0-1-1.34L40.57,62l-.36-.25a3.79,3.79,0,0,0-.66-.29,3.23,3.23,0,0,0-2.22.06A2.56,2.56,0,0,0,36,62.65a2.88,2.88,0,0,1,1.46-.16,2.27,2.27,0,0,1,1.24.63,1.56,1.56,0,0,1,.23.28l.06.12.14.24a3.3,3.3,0,0,1,.18.75A2.13,2.13,0,0,1,38.91,66a2.9,2.9,0,0,1-1.28.93,2.43,2.43,0,0,1-1.8,0,2.67,2.67,0,0,1-.76-.44s-.15-.16-.24-.24l-.06-.07h0l-.09-.11a3.7,3.7,0,0,1-.31-.46,3.78,3.78,0,0,1-.44-2.14,3.54,3.54,0,0,1,.8-1.94l.14-.16.28-.27c.05-.06.32-.25.46-.37.35-.27.71-.51,1.07-.74a16.61,16.61,0,0,1,2.19-1.1c1.44-.6,2.76-1,3.7-1.29l1.5-.48,1.45-.47c.94-.3,2.33-.7,4-1.39a20.4,20.4,0,0,0,2.68-1.35c.47-.29.93-.6,1.39-.95.25-.2.41-.3.74-.6l.28-.27.4-.43a7.51,7.51,0,0,0,1.74-3.95A7.41,7.41,0,0,0,56,43.35a6.74,6.74,0,0,0-.62-1l-.17-.23,0-.05L55,42,55,41.93c-.11-.11-.15-.18-.35-.36a6.22,6.22,0,0,0-2.08-1.3,6.34,6.34,0,0,0-4.56,0,5.27,5.27,0,0,0-3.09,3.09,4.88,4.88,0,0,0,.26,3.84,5.07,5.07,0,0,0,1,1.34l.24.17.36.25a4.59,4.59,0,0,0,.66.29,3.17,3.17,0,0,0,2.22-.06A2.62,2.62,0,0,0,51,48.12a2.94,2.94,0,0,1-1.47.16,2.21,2.21,0,0,1-1.23-.63,1.61,1.61,0,0,1-.24-.28l0-.12L47.85,47a3.34,3.34,0,0,1-.17-.75,2.15,2.15,0,0,1,.4-1.47,3,3,0,0,1,1.28-.94,2.51,2.51,0,0,1,1.81,0,2.59,2.59,0,0,1,.76.45,2.5,2.5,0,0,1,.24.24l0,.06h0l.08.11a2.85,2.85,0,0,1,.31.46,3.79,3.79,0,0,1,.45,2.14,3.55,3.55,0,0,1-.81,1.94l-.13.16-.29.27c-.05.06-.31.25-.45.37-.35.27-.71.51-1.07.74a17.25,17.25,0,0,1-2.19,1.1c-1.44.6-2.76,1-3.71,1.29l-1.49.48-1.46.47c-.93.3-2.32.7-4,1.39a21.81,21.81,0,0,0-2.69,1.35c-.46.29-.93.6-1.39,1-.24.2-.41.3-.73.6l-.29.27-.39.43A7.42,7.42,0,0,0,31,67.42a9.14,9.14,0,0,0,.62,1l.17.23.05.05Z" transform="translate(0 0)"/></g><g id="g492"><path id="path494" class="cls-7" d="M54.21,44.27c-2.45-2.93-2.1-7.26-2.1-7.26s4.33.41,6.78,3.34S61,47.6,61,47.6s-4.32-.41-6.78-3.33" transform="translate(0 0)"/></g><g id="g496"><path id="path498" class="cls-7" d="M18.63,103.58l.09,0a4.14,4.14,0,0,0,.46.22,6.22,6.22,0,0,0,2.4.52,6.31,6.31,0,0,0,4.27-1.59,5.22,5.22,0,0,0,1.84-4,4.9,4.9,0,0,0-1.55-3.53,5.27,5.27,0,0,0-1.45-.9l-.28-.08-.43-.1a3.59,3.59,0,0,0-.72,0A3.18,3.18,0,0,0,21.2,95a2.61,2.61,0,0,0-.87,1.48,2.78,2.78,0,0,1,1.32-.65A2.24,2.24,0,0,1,23,96a1.92,1.92,0,0,1,.31.18l.09.1.22.18a3.28,3.28,0,0,1,.42.63,2.15,2.15,0,0,1,.13,1.53,3,3,0,0,1-.89,1.32,2.48,2.48,0,0,1-1.69.64,2.87,2.87,0,0,1-.86-.16,1.9,1.9,0,0,1-.31-.15l-.07,0h0l-.12-.08a4.71,4.71,0,0,1-.45-.33,3.78,3.78,0,0,1-1.15-1.85,3.55,3.55,0,0,1,.1-2.1l.06-.2.18-.35c0-.07.21-.35.31-.51a11.65,11.65,0,0,1,.75-1,16.09,16.09,0,0,1,1.68-1.79c1.15-1,2.26-1.87,3-2.48l1.24-1,1.2-.94c.78-.6,1.95-1.45,3.3-2.68a20,20,0,0,0,2.06-2.19c.34-.42.67-.88,1-1.36.16-.28.28-.43.48-.82l.18-.35.22-.53a7.46,7.46,0,0,0-2-8.14,9.78,9.78,0,0,0-.91-.68l-.24-.15-.06,0-.13-.07-.09,0a4.51,4.51,0,0,0-.46-.21,6,6,0,0,0-2.4-.52,6.3,6.3,0,0,0-4.27,1.58,5.25,5.25,0,0,0-1.84,4,4.87,4.87,0,0,0,1.55,3.52,5.07,5.07,0,0,0,1.45.91l.28.07.43.11a4.51,4.51,0,0,0,.72,0,3.29,3.29,0,0,0,2.06-.81,2.61,2.61,0,0,0,.87-1.48,3,3,0,0,1-1.32.65,2.39,2.39,0,0,1-1.38-.17,1.92,1.92,0,0,1-.31-.18l-.09-.1-.22-.18a3.08,3.08,0,0,1-.42-.64,2.12,2.12,0,0,1-.13-1.52,3,3,0,0,1,.89-1.32,2.48,2.48,0,0,1,1.69-.64,2.8,2.8,0,0,1,.86.16,1.9,1.9,0,0,1,.31.15l.07,0h0l.12.08a4.6,4.6,0,0,1,.45.32,3.86,3.86,0,0,1,1.15,1.86,3.55,3.55,0,0,1-.1,2.1l-.06.2-.18.35c0,.07-.21.34-.31.51a11.65,11.65,0,0,1-.75,1.05A16.09,16.09,0,0,1,28,82.19c-1.15,1-2.26,1.87-3,2.48l-1.24,1-1.2.94c-.78.6-1.95,1.45-3.3,2.68a20,20,0,0,0-2.06,2.19c-.34.42-.67.88-1,1.36-.16.28-.28.43-.48.82l-.18.35-.22.53a7.44,7.44,0,0,0,2,8.13,8.28,8.28,0,0,0,.91.68l.24.16.06,0Z" transform="translate(0 0)"/></g><g id="g500"><path id="path502" class="cls-7" d="M31.15,73c-3.31-1.91-4.46-6.1-4.46-6.1s4.2-1.09,7.51.82,4.46,6.09,4.46,6.09-4.21,1.1-7.51-.81" transform="translate(0 0)"/></g><g id="g504"><path id="path506" class="cls-7" d="M18,140.85l.11,0c.16,0,.22,0,.5,0a6.33,6.33,0,0,0,5.91-3.29,5.27,5.27,0,0,0,.37-4.35,4.88,4.88,0,0,0-2.67-2.78,5.18,5.18,0,0,0-1.66-.35l-.3,0-.43.05a4.31,4.31,0,0,0-.69.2,3.18,3.18,0,0,0-1.66,1.47,2.63,2.63,0,0,0-.32,1.69,3,3,0,0,1,1-1.07,2.35,2.35,0,0,1,1.35-.31,1.53,1.53,0,0,1,.36.07l.12,0,.27.1a3.5,3.5,0,0,1,.61.45,2.14,2.14,0,0,1,.64,1.4,2.84,2.84,0,0,1-.38,1.53A2.43,2.43,0,0,1,19.77,137a2.73,2.73,0,0,1-.86.15s-.22,0-.34,0h-.1l-.13,0a4.77,4.77,0,0,1-.54-.15,3.79,3.79,0,0,1-1.71-1.35,3.5,3.5,0,0,1-.63-2v-.21l.05-.39c0-.08.08-.39.11-.58.1-.43.22-.84.35-1.25a15.87,15.87,0,0,1,1-2.25c.71-1.38,1.48-2.53,2-3.37s.84-1.33.84-1.33l.81-1.29c.53-.84,1.33-2,2.18-3.65A19.88,19.88,0,0,0,24,116.46a16,16,0,0,0,.46-1.62,9.41,9.41,0,0,0,.17-.93l.05-.39,0-.58a7.47,7.47,0,0,0-1.21-4.14A7.34,7.34,0,0,0,20,106a9.65,9.65,0,0,0-1.08-.33l-.28-.06h-.07l-.14,0-.11,0c-.16,0-.23,0-.5,0a6.33,6.33,0,0,0-5.91,3.29,5.24,5.24,0,0,0-.37,4.35,4.84,4.84,0,0,0,2.66,2.77,5,5,0,0,0,1.67.36l.29,0,.44,0a4.31,4.31,0,0,0,.69-.2A3.18,3.18,0,0,0,19,114.51a2.63,2.63,0,0,0,.32-1.69,3,3,0,0,1-1,1.07,2.35,2.35,0,0,1-1.35.31,2.29,2.29,0,0,1-.36-.07l-.12,0-.27-.1a3.64,3.64,0,0,1-.61-.45,2.16,2.16,0,0,1-.64-1.4,2.9,2.9,0,0,1,.38-1.54,2.45,2.45,0,0,1,1.37-1.17,2.73,2.73,0,0,1,.86-.15,1.81,1.81,0,0,1,.34,0H18l.13,0a4.77,4.77,0,0,1,.54.15,3.79,3.79,0,0,1,1.71,1.35,3.5,3.5,0,0,1,.63,2v.21l0,.38c0,.09-.08.4-.11.59-.1.43-.22.84-.35,1.25a15.87,15.87,0,0,1-1,2.25c-.72,1.38-1.48,2.53-2,3.37l-.84,1.33-.81,1.29c-.53.83-1.33,2-2.18,3.65a19.88,19.88,0,0,0-1.19,2.76,14.67,14.67,0,0,0-.46,1.62,8.89,8.89,0,0,0-.17.93l0,.39,0,.58A7.47,7.47,0,0,0,13,137.6a7.34,7.34,0,0,0,3.43,2.83,7.9,7.9,0,0,0,1.08.32l.28.07h.07Z" transform="translate(0 0)"/></g><g id="g508"><path id="path510" class="cls-7" d="M19.28,107.79c-3.76-.66-6.27-4.2-6.27-4.2s3.57-2.47,7.33-1.8,6.28,4.2,6.28,4.2-3.58,2.47-7.34,1.8" transform="translate(0 0)"/></g><g id="g512"><path id="path514" class="cls-7" d="M30.14,176.1l.11,0a4.09,4.09,0,0,0,.48-.13,6.06,6.06,0,0,0,2.17-1.14,6.35,6.35,0,0,0,2.26-4A5.26,5.26,0,0,0,34,166.63a4.87,4.87,0,0,0-3.46-1.7,5.06,5.06,0,0,0-1.68.24l-.27.12-.4.19a5.46,5.46,0,0,0-.58.43,3.24,3.24,0,0,0-1.06,2,2.53,2.53,0,0,0,.29,1.69,2.83,2.83,0,0,1,.59-1.35,2.28,2.28,0,0,1,1.16-.75l.36-.06h.42a3.11,3.11,0,0,1,.73.22,2.13,2.13,0,0,1,1.08,1.09,2.94,2.94,0,0,1,.17,1.57,2.52,2.52,0,0,1-.89,1.58,2.72,2.72,0,0,1-.76.43,1.66,1.66,0,0,1-.33.09l-.08,0h-.15a3.52,3.52,0,0,1-.56,0,3.84,3.84,0,0,1-2.07-.68,3.55,3.55,0,0,1-1.28-1.67l-.07-.2-.09-.38c0-.07-.07-.4-.1-.58-.05-.44-.08-.87-.1-1.3A16,16,0,0,1,25,165.2c.2-1.55.53-2.89.73-3.85l.33-1.54.33-1.5c.2-1,.55-2.36.8-4.17a20,20,0,0,0,.17-3,16.59,16.59,0,0,0-.12-1.68c-.06-.31-.06-.5-.16-.93l-.08-.38-.18-.56a7.42,7.42,0,0,0-6.74-5,8.47,8.47,0,0,0-1.13.06l-.28,0h-.07l-.15,0-.1,0a4.13,4.13,0,0,0-.49.13,6.1,6.1,0,0,0-2.16,1.14,6.3,6.3,0,0,0-2.26,4,5.26,5.26,0,0,0,1.13,4.21,4.85,4.85,0,0,0,3.46,1.7,5.06,5.06,0,0,0,1.68-.24l.27-.12.39-.19A3.9,3.9,0,0,0,21,153a3.17,3.17,0,0,0,1.05-2,2.5,2.5,0,0,0-.28-1.69,2.83,2.83,0,0,1-.59,1.35,2.33,2.33,0,0,1-1.16.75,2.25,2.25,0,0,1-.36.06h-.42a3.18,3.18,0,0,1-.73-.23,2.13,2.13,0,0,1-1.08-1.09,2.94,2.94,0,0,1-.17-1.57,2.52,2.52,0,0,1,.89-1.58,2.72,2.72,0,0,1,.76-.43,1.66,1.66,0,0,1,.33-.09h.23a3.52,3.52,0,0,1,.56,0,3.77,3.77,0,0,1,2.07.69,3.52,3.52,0,0,1,1.28,1.66l.07.2.09.38c0,.07.06.4.1.58.05.44.08.87.1,1.3a16,16,0,0,1-.14,2.44c-.2,1.55-.53,2.89-.74,3.86s-.32,1.53-.32,1.53l-.33,1.5c-.2,1-.55,2.36-.8,4.17a18.74,18.74,0,0,0-.17,3,16.59,16.59,0,0,0,.12,1.68c.05.31.06.5.16.93l.08.38.18.56a7.47,7.47,0,0,0,2.55,3.48,7.37,7.37,0,0,0,4.19,1.48,8.65,8.65,0,0,0,1.13-.06l.28,0H30Z" transform="translate(0 0)"/></g><g id="g516"><path id="path518" class="cls-7" d="M20.05,144.59c-3.76.67-7.33-1.8-7.33-1.8s2.51-3.54,6.27-4.2,7.33,1.8,7.33,1.8-2.51,3.54-6.27,4.2" transform="translate(0 0)"/></g><g id="g520"><path id="path522" class="cls-7" d="M53.62,205.07l.09-.06c.13-.09.2-.12.41-.28a6.25,6.25,0,0,0,1.65-1.82,6.34,6.34,0,0,0,.77-4.5A5.24,5.24,0,0,0,54,194.84a4.82,4.82,0,0,0-3.83-.41,5,5,0,0,0-1.5.79l-.21.21-.31.32a3.91,3.91,0,0,0-.4.6,3.22,3.22,0,0,0-.33,2.19A2.54,2.54,0,0,0,48.3,200a2.86,2.86,0,0,1,.09-1.47,2.29,2.29,0,0,1,.84-1.1,2,2,0,0,1,.32-.18l.12,0,.27-.1a3.6,3.6,0,0,1,.76,0,2.12,2.12,0,0,1,1.39.65,3,3,0,0,1,.7,1.43,2.45,2.45,0,0,1-.3,1.78,2.6,2.6,0,0,1-.57.67,2.35,2.35,0,0,1-.27.19l-.07.05h0l-.12.07a4.61,4.61,0,0,1-.51.22,3.77,3.77,0,0,1-2.18.07A3.51,3.51,0,0,1,47,201.1l-.14-.16-.21-.33c-.05-.06-.2-.35-.29-.52a11.32,11.32,0,0,1-.54-1.18,16.22,16.22,0,0,1-.7-2.34c-.34-1.52-.5-2.9-.63-3.87l-.22-1.56L44,189.62c-.13-1-.28-2.41-.67-4.19a20.38,20.38,0,0,0-.86-2.88,14.83,14.83,0,0,0-.7-1.53,8.48,8.48,0,0,0-.46-.83l-.21-.33-.36-.46a7.43,7.43,0,0,0-8-2.36,9.59,9.59,0,0,0-1,.45l-.25.13-.06,0-.13.08-.09.06a2.73,2.73,0,0,0-.41.28,6.25,6.25,0,0,0-1.65,1.82,6.33,6.33,0,0,0-.77,4.5A5.28,5.28,0,0,0,30.86,188a4.87,4.87,0,0,0,3.83.41,5,5,0,0,0,1.5-.8l.21-.21.31-.31a4.17,4.17,0,0,0,.4-.6,3.23,3.23,0,0,0,.33-2.19,2.6,2.6,0,0,0-.85-1.5,2.87,2.87,0,0,1-.09,1.47,2.31,2.31,0,0,1-.84,1.11,1.92,1.92,0,0,1-.31.18l-.13,0-.27.11a3.56,3.56,0,0,1-.76,0A2.17,2.17,0,0,1,32.8,185a2.92,2.92,0,0,1-.7-1.42,2.54,2.54,0,0,1,.87-2.45s.17-.13.28-.2l.07,0h0l.12-.06a3.27,3.27,0,0,1,.51-.22,3.77,3.77,0,0,1,2.18-.07,3.52,3.52,0,0,1,1.78,1.13l.13.16.21.33c.05.06.2.35.29.51a12.35,12.35,0,0,1,.54,1.18,17.81,17.81,0,0,1,.71,2.35c.33,1.52.49,2.89.63,3.87s.21,1.56.21,1.56.08.55.21,1.51.28,2.41.67,4.2a20.77,20.77,0,0,0,.86,2.88,15.87,15.87,0,0,0,.7,1.53,8.48,8.48,0,0,0,.46.83l.21.32.36.47a7.53,7.53,0,0,0,3.59,2.4,7.4,7.4,0,0,0,4.44-.05,7.9,7.9,0,0,0,1-.44l.25-.13.06,0Z" transform="translate(0 0)"/></g><g id="g524"><path id="path526" class="cls-7" d="M33.36,178.91c-3.31,1.91-7.51.82-7.51.82s1.15-4.19,4.46-6.1,7.5-.81,7.5-.81-1.15,4.19-4.45,6.09" transform="translate(0 0)"/></g><g id="g528"><path id="path530" class="cls-7" d="M85.59,224.26l.06-.09a3.27,3.27,0,0,0,.29-.4,6.29,6.29,0,0,0,.11-6.77,5.27,5.27,0,0,0-3.58-2.5,4.88,4.88,0,0,0-3.74.93,5,5,0,0,0-1.13,1.26l-.13.27-.18.4a3.75,3.75,0,0,0-.17.7,3.17,3.17,0,0,0,.44,2.17,2.63,2.63,0,0,0,1.3,1.12,3,3,0,0,1-.41-1.42,2.28,2.28,0,0,1,.41-1.32,3.11,3.11,0,0,1,.23-.28l.11-.08.22-.18a3.58,3.58,0,0,1,.7-.3,2.17,2.17,0,0,1,1.53.14,2.9,2.9,0,0,1,1.14,1.1,2.46,2.46,0,0,1,.33,1.77,2.84,2.84,0,0,1-.3.83,3.26,3.26,0,0,1-.2.27l-.05.07h0l-.09.1a4.89,4.89,0,0,1-.4.39,3.76,3.76,0,0,1-2,.8A3.53,3.53,0,0,1,78,222.8l-.18-.1-.31-.24c-.07,0-.31-.26-.45-.38-.32-.3-.62-.62-.91-.93a16.13,16.13,0,0,1-1.46-2c-.84-1.31-1.45-2.54-1.92-3.42s-.73-1.39-.73-1.39L71.3,213c-.46-.87-1.09-2.16-2.07-3.71a19.39,19.39,0,0,0-1.79-2.41c-.36-.41-.75-.81-1.17-1.21-.25-.2-.37-.35-.72-.61l-.31-.24-.5-.31a7.41,7.41,0,0,0-8.35.53,10,10,0,0,0-.82.77l-.2.21,0,.05-.09.12-.07.09a3.27,3.27,0,0,0-.29.4,6.29,6.29,0,0,0-.11,6.77,5.27,5.27,0,0,0,3.58,2.5,4.76,4.76,0,0,0,4.87-2.19l.13-.27.18-.4a3.75,3.75,0,0,0,.17-.7,3.17,3.17,0,0,0-.44-2.17A2.58,2.58,0,0,0,62,209.12a2.82,2.82,0,0,1,.42,1.42,2.34,2.34,0,0,1-.4,1.32,3.22,3.22,0,0,1-.24.28l-.11.08-.22.18a3.06,3.06,0,0,1-.7.3,2.17,2.17,0,0,1-1.53-.14,2.84,2.84,0,0,1-1.14-1.1,2.46,2.46,0,0,1-.33-1.77,2.84,2.84,0,0,1,.3-.83,3.26,3.26,0,0,1,.2-.27l0-.07h0l.1-.1a3.59,3.59,0,0,1,.39-.39,3.8,3.8,0,0,1,2-.8,3.53,3.53,0,0,1,2.06.45l.18.1.31.24a5.23,5.23,0,0,1,.45.39c.32.29.62.61.91.92a16.13,16.13,0,0,1,1.46,2c.84,1.31,1.45,2.54,1.92,3.42s.73,1.39.73,1.39l.72,1.35c.46.87,1.09,2.16,2.06,3.71a20.6,20.6,0,0,0,1.8,2.41c.36.41.75.81,1.17,1.21.25.2.37.35.72.61l.31.24.49.31a7.5,7.5,0,0,0,4.2,1,7.38,7.38,0,0,0,4.16-1.56,10,10,0,0,0,.82-.77l.19-.21,0-.05Z" transform="translate(0 0)"/></g><g id="g532"><path id="path534" class="cls-7" d="M57.6,206.61c-2.45,2.92-6.78,3.33-6.78,3.33s-.35-4.33,2.11-7.25,6.77-3.33,6.77-3.33.35,4.33-2.1,7.25" transform="translate(0 0)"/></g><g id="g536"><path id="path538" class="cls-7" d="M122.19,231.36l0-.1a4.5,4.5,0,0,0,.13-.49,6.4,6.4,0,0,0,.1-2.45,6.32,6.32,0,0,0-2.31-3.94,5.24,5.24,0,0,0-4.21-1.12,4.84,4.84,0,0,0-3.2,2.14,5.05,5.05,0,0,0-.64,1.58l0,.3,0,.43a4.18,4.18,0,0,0,.08.72,3.18,3.18,0,0,0,1.16,1.89,2.5,2.5,0,0,0,1.61.6,2.91,2.91,0,0,1-.88-1.19,2.38,2.38,0,0,1-.07-1.38,2,2,0,0,1,.13-.34l.08-.11.13-.25a3.6,3.6,0,0,1,.56-.52,2.11,2.11,0,0,1,1.48-.39,2.9,2.9,0,0,1,1.45.64,2.44,2.44,0,0,1,.92,1.56,2.8,2.8,0,0,1,0,.87s-.06.21-.09.33l0,.08h0l-.06.13a4.59,4.59,0,0,1-.24.5,3.75,3.75,0,0,1-1.63,1.45,3.51,3.51,0,0,1-2.09.28l-.2,0-.37-.11-.56-.21c-.4-.17-.79-.36-1.17-.56a16.53,16.53,0,0,1-2-1.35c-1.23-.94-2.23-1.89-3-2.56l-1.17-1-1.13-1c-.73-.66-1.76-1.66-3.21-2.78a19.85,19.85,0,0,0-2.51-1.65,15.29,15.29,0,0,0-1.52-.73c-.3-.11-.46-.2-.88-.33l-.38-.12-.56-.12a7.56,7.56,0,0,0-4.3.46,7.44,7.44,0,0,0-3.37,2.89,6.83,6.83,0,0,0-.51,1l-.11.26,0,.07-.05.14,0,.1c0,.15-.07.22-.13.48a6.3,6.3,0,0,0,2.21,6.39,5.26,5.26,0,0,0,4.22,1.13A4.83,4.83,0,0,0,97,230.73a4.9,4.9,0,0,0,.64-1.57l0-.3,0-.43a4,4,0,0,0-.08-.72,3.15,3.15,0,0,0-1.16-1.89,2.64,2.64,0,0,0-1.6-.61,3.17,3.17,0,0,1,.87,1.19,2.41,2.41,0,0,1,.07,1.39,1.4,1.4,0,0,1-.13.34l-.07.11-.14.25a3.6,3.6,0,0,1-.56.52,2.16,2.16,0,0,1-1.48.39,2.9,2.9,0,0,1-1.45-.64A2.51,2.51,0,0,1,91,227.2a2.55,2.55,0,0,1,0-.88,1.41,1.41,0,0,1,.08-.32l0-.08h0l.06-.13a3.85,3.85,0,0,1,.24-.5,3.75,3.75,0,0,1,1.63-1.45,3.51,3.51,0,0,1,2.09-.28l.2,0,.38.12a5.55,5.55,0,0,1,.55.21,12.66,12.66,0,0,1,1.17.56,16.49,16.49,0,0,1,2,1.34c1.24.95,2.24,1.9,3,2.56l1.17,1.06,1.13,1c.73.66,1.77,1.67,3.21,2.78a20.61,20.61,0,0,0,2.51,1.66c.48.25,1,.5,1.52.73.3.11.47.2.89.33l.37.12.57.12a7.45,7.45,0,0,0,4.29-.47,7.36,7.36,0,0,0,3.37-2.88,6.47,6.47,0,0,0,.51-1l.11-.26,0-.06Z" transform="translate(0 0)"/></g><g id="g540"><path id="path542" class="cls-7" d="M89.85,224.35c-1.3,3.58-5.23,5.45-5.23,5.45s-1.8-4-.5-7.54,5.23-5.45,5.23-5.45,1.81,3.95.5,7.54" transform="translate(0 0)"/></g><g id="g544"><path id="path546" class="cls-5" d="M182.12,69.13c3.39,3.13,3,5.33,2.09,6.37s-3.13,1.56-6.52-1.57-5.77-9.77-5.77-9.77,6.81,1.84,10.2,5" transform="translate(0 0)"/></g><g id="g548"><path id="path550" class="cls-5" d="M65.85,69.13c-3.39,3.13-3,5.33-2.09,6.37s3.13,1.56,6.52-1.57,5.77-9.77,5.77-9.77-6.81,1.84-10.2,5" transform="translate(0 0)"/></g></g></g></g></g></svg>