<svg width="46" height="60" viewBox="0 0 46 60" fill="none" xmlns="http://www.w3.org/2000/svg">
<g clip-path="url(#clip0_1125_1164)">
<path d="M45.2656 0H0V42.2974L22.5798 59.9478L45.2656 42.2974V0Z" fill="#535C69"/>
<path fill-rule="evenodd" clip-rule="evenodd" d="M19.2656 2.34925L20.1796 1.46216L20.629 1.92512L19.715 2.81221L19.2656 2.34925Z" fill="white"/>
<path fill-rule="evenodd" clip-rule="evenodd" d="M15.3909 5.90088L15.8472 6.35706L12.6621 9.54217V14.6741L9.55981 17.8594L9.09766 17.4093L12.0169 14.4118V9.27491L15.3909 5.90088Z" fill="white"/>
<path fill-rule="evenodd" clip-rule="evenodd" d="M5.43129 40.8601L12.0572 34.2341L12.5134 34.6903L5.6985 41.5053H1.61328V40.8601H5.43129Z" fill="white"/>
<path fill-rule="evenodd" clip-rule="evenodd" d="M18.953 3.38714C19.1015 3.38714 19.2219 3.26679 19.2219 3.11832C19.2219 2.96986 19.1015 2.84951 18.953 2.84951C18.8046 2.84951 18.6842 2.96986 18.6842 3.11832C18.6842 3.26679 18.8046 3.38714 18.953 3.38714ZM18.953 4.0323C19.4578 4.0323 19.867 3.6231 19.867 3.11832C19.867 2.61354 19.4578 2.20435 18.953 2.20435C18.4483 2.20435 18.0391 2.61354 18.0391 3.11832C18.0391 3.6231 18.4483 4.0323 18.953 4.0323Z" fill="white"/>
<path fill-rule="evenodd" clip-rule="evenodd" d="M16.1562 2.63446C16.3046 2.63446 16.425 2.5141 16.425 2.36564C16.425 2.21718 16.3046 2.09682 16.1562 2.09682C16.0077 2.09682 15.8873 2.21718 15.8873 2.36564C15.8873 2.5141 16.0077 2.63446 16.1562 2.63446ZM16.1562 3.27962C16.661 3.27962 17.0701 2.87041 17.0701 2.36564C17.0701 1.86086 16.661 1.45166 16.1562 1.45166C15.6514 1.45166 15.2422 1.86086 15.2422 2.36564C15.2422 2.87041 15.6514 3.27962 16.1562 3.27962Z" fill="white"/>
<path fill-rule="evenodd" clip-rule="evenodd" d="M16.1562 5.91401C16.3046 5.91401 16.425 5.79364 16.425 5.6452C16.425 5.4967 16.3046 5.37636 16.1562 5.37636C16.0077 5.37636 15.8873 5.4967 15.8873 5.6452C15.8873 5.79364 16.0077 5.91401 16.1562 5.91401ZM16.1562 6.55917C16.661 6.55917 17.0701 6.14998 17.0701 5.6452C17.0701 5.1404 16.661 4.7312 16.1562 4.7312C15.6514 4.7312 15.2422 5.1404 15.2422 5.6452C15.2422 6.14998 15.6514 6.55917 16.1562 6.55917Z" fill="white"/>
<path fill-rule="evenodd" clip-rule="evenodd" d="M7.28507 11.0754C7.43351 11.0754 7.55389 10.955 7.55389 10.8066C7.55389 10.6581 7.43351 10.5377 7.28507 10.5377C7.13663 10.5377 7.01626 10.6581 7.01626 10.8066C7.01626 10.955 7.13663 11.0754 7.28507 11.0754ZM7.28507 11.7205C7.78986 11.7205 8.19905 11.3113 8.19905 10.8066C8.19905 10.3018 7.78986 9.89258 7.28507 9.89258C6.78029 9.89258 6.37109 10.3018 6.37109 10.8066C6.37109 11.3113 6.78029 11.7205 7.28507 11.7205Z" fill="white"/>
<path fill-rule="evenodd" clip-rule="evenodd" d="M7.28507 14.1398C7.43351 14.1398 7.55389 14.0195 7.55389 13.871C7.55389 13.7225 7.43351 13.6022 7.28507 13.6022C7.13663 13.6022 7.01626 13.7225 7.01626 13.871C7.01626 14.0195 7.13663 14.1398 7.28507 14.1398ZM7.28507 14.785C7.78986 14.785 8.19905 14.3758 8.19905 13.871C8.19905 13.3662 7.78986 12.957 7.28507 12.957C6.78029 12.957 6.37109 13.3662 6.37109 13.871C6.37109 14.3758 6.78029 14.785 7.28507 14.785Z" fill="white"/>
<path fill-rule="evenodd" clip-rule="evenodd" d="M2.9296 7.09686C3.07807 7.09686 3.19842 6.97648 3.19842 6.82804C3.19842 6.67955 3.07807 6.55922 2.9296 6.55922C2.78114 6.55922 2.66079 6.67955 2.66079 6.82804C2.66079 6.97648 2.78114 7.09686 2.9296 7.09686ZM2.9296 7.74202C3.43438 7.74202 3.84358 7.33283 3.84358 6.82804C3.84358 6.32326 3.43438 5.91406 2.9296 5.91406C2.42483 5.91406 2.01562 6.32326 2.01562 6.82804C2.01562 7.33283 2.42483 7.74202 2.9296 7.74202Z" fill="white"/>
<path fill-rule="evenodd" clip-rule="evenodd" d="M15.7812 13.7097C15.9296 13.7097 16.05 13.5893 16.05 13.4408C16.05 13.2923 15.9296 13.172 15.7812 13.172C15.6327 13.172 15.5123 13.2923 15.5123 13.4408C15.5123 13.5893 15.6327 13.7097 15.7812 13.7097ZM15.7812 14.3548C16.286 14.3548 16.6951 13.9456 16.6951 13.4408C16.6951 12.936 16.286 12.5269 15.7812 12.5269C15.2764 12.5269 14.8672 12.936 14.8672 13.4408C14.8672 13.9456 15.2764 14.3548 15.7812 14.3548Z" fill="white"/>
<path fill-rule="evenodd" clip-rule="evenodd" d="M20.4956 5.68701L20.9542 6.14078L16.0475 11.1002V12.6343H15.4023V10.835L20.4956 5.68701Z" fill="white"/>
<path fill-rule="evenodd" clip-rule="evenodd" d="M20.4978 8.64282L20.954 9.09901L19.0592 10.9938V11.7204H18.4141V10.7265L20.4978 8.64282Z" fill="white"/>
<path fill-rule="evenodd" clip-rule="evenodd" d="M8.78898 18.4409C8.93742 18.4409 9.0578 18.3205 9.0578 18.172C9.0578 18.0235 8.93742 17.9032 8.78898 17.9032C8.64054 17.9032 8.52016 18.0235 8.52016 18.172C8.52016 18.3205 8.64054 18.4409 8.78898 18.4409ZM8.78898 19.086C9.29376 19.086 9.70296 18.6768 9.70296 18.172C9.70296 17.6673 9.29376 17.2581 8.78898 17.2581C8.28419 17.2581 7.875 17.6673 7.875 18.172C7.875 18.6768 8.28419 19.086 8.78898 19.086Z" fill="white"/>
<path fill-rule="evenodd" clip-rule="evenodd" d="M5.94132 18.2258C6.08976 18.2258 6.21014 18.1054 6.21014 17.9569C6.21014 17.8085 6.08976 17.6881 5.94132 17.6881C5.79288 17.6881 5.67251 17.8085 5.67251 17.9569C5.67251 18.1054 5.79288 18.2258 5.94132 18.2258ZM5.94132 18.8709C6.44611 18.8709 6.8553 18.4617 6.8553 17.9569C6.8553 17.4522 6.44611 17.043 5.94132 17.043C5.43654 17.043 5.02734 17.4522 5.02734 17.9569C5.02734 18.4617 5.43654 18.8709 5.94132 18.8709Z" fill="white"/>
<path fill-rule="evenodd" clip-rule="evenodd" d="M2.23038 20.1076C2.37885 20.1076 2.4992 19.9872 2.4992 19.8388C2.4992 19.6903 2.37885 19.57 2.23038 19.57C2.08192 19.57 1.96157 19.6903 1.96157 19.8388C1.96157 19.9872 2.08192 20.1076 2.23038 20.1076ZM2.23038 20.7528C2.73516 20.7528 3.14436 20.3436 3.14436 19.8388C3.14436 19.334 2.73516 18.9248 2.23038 18.9248C1.72561 18.9248 1.31641 19.334 1.31641 19.8388C1.31641 20.3436 1.72561 20.7528 2.23038 20.7528Z" fill="white"/>
<path fill-rule="evenodd" clip-rule="evenodd" d="M4.54288 22.5807C4.69135 22.5807 4.8117 22.4604 4.8117 22.3119C4.8117 22.1634 4.69135 22.0431 4.54288 22.0431C4.39442 22.0431 4.27407 22.1634 4.27407 22.3119C4.27407 22.4604 4.39442 22.5807 4.54288 22.5807ZM4.54288 23.2259C5.04766 23.2259 5.45686 22.8167 5.45686 22.3119C5.45686 21.8071 5.04766 21.3979 4.54288 21.3979C4.03811 21.3979 3.62891 21.8071 3.62891 22.3119C3.62891 22.8167 4.03811 23.2259 4.54288 23.2259Z" fill="white"/>
<path fill-rule="evenodd" clip-rule="evenodd" d="M7.63449 6.47857L12.7551 1.38428L13.5741 1.55922L7.90073 7.12373H3.76224V6.47857H7.63449ZM9.83751 9.43196L15.9829 3.10109L15.52 2.65172L9.19234 9.17029V14.3565L6.3288 17.2461L6.78708 17.7002L9.83751 14.6221V9.43196ZM1.69234 10.4571H6.55794V11.1022H1.69234V10.4571ZM1.69234 13.5485H6.55794V14.1936H1.69234V13.5485ZM1.96116 26.5941V20.6184H2.60632V26.8469L1.8484 27.6655L1.375 27.2271L1.96116 26.5941ZM4.24611 29.0357V23.0108H4.89127V29.2978L1.84284 32.4294L1.38055 31.9794L4.24611 29.0357ZM6.79987 31.4548V25.4302H7.44503V31.7174L1.84253 37.4566L1.38087 37.0059L6.79987 31.4548ZM20.9804 42.8618L17.0556 46.8134L16.5979 46.3588L20.5226 42.4072L20.9804 42.8618ZM6.0203 44.4087H7.95579V45.0538H6.0203V44.4087ZM13.8429 50.6721H19.488V51.3173H14.2192L13.8429 50.6721ZM17.6332 53.656H19.488V54.3012H18.0095L17.6332 53.656Z" fill="white"/>
<path fill-rule="evenodd" clip-rule="evenodd" d="M7.07023 24.9999C7.21867 24.9999 7.33905 24.8796 7.33905 24.7311C7.33905 24.5826 7.21867 24.4623 7.07023 24.4623C6.92179 24.4623 6.80141 24.5826 6.80141 24.7311C6.80141 24.8796 6.92179 24.9999 7.07023 24.9999ZM7.07023 25.6451C7.57501 25.6451 7.98421 25.2359 7.98421 24.7311C7.98421 24.2263 7.57501 23.8171 7.07023 23.8171C6.56544 23.8171 6.15625 24.2263 6.15625 24.7311C6.15625 25.2359 6.56544 25.6451 7.07023 25.6451Z" fill="white"/>
<path fill-rule="evenodd" clip-rule="evenodd" d="M8.68351 44.9999C8.83195 44.9999 8.95233 44.8796 8.95233 44.7311C8.95233 44.5826 8.83195 44.4623 8.68351 44.4623C8.53507 44.4623 8.41469 44.5826 8.41469 44.7311C8.41469 44.8796 8.53507 44.9999 8.68351 44.9999ZM8.68351 45.6451C9.18829 45.6451 9.59749 45.2359 9.59749 44.7311C9.59749 44.2263 9.18829 43.8171 8.68351 43.8171C8.17872 43.8171 7.76953 44.2263 7.76953 44.7311C7.76953 45.2359 8.17872 45.6451 8.68351 45.6451Z" fill="white"/>
<path fill-rule="evenodd" clip-rule="evenodd" d="M16.2616 47.3119C16.4101 47.3119 16.5305 47.1916 16.5305 47.0431C16.5305 46.8946 16.4101 46.7743 16.2616 46.7743C16.1132 46.7743 15.9928 46.8946 15.9928 47.0431C15.9928 47.1916 16.1132 47.3119 16.2616 47.3119ZM16.2616 47.9571C16.7664 47.9571 17.1756 47.5479 17.1756 47.0431C17.1756 46.5383 16.7664 46.1292 16.2616 46.1292C15.7568 46.1292 15.3477 46.5383 15.3477 47.0431C15.3477 47.5479 15.7568 47.9571 16.2616 47.9571Z" fill="white"/>
<path fill-rule="evenodd" clip-rule="evenodd" d="M20.1327 47.3657C20.2812 47.3657 20.4015 47.2453 20.4015 47.0968C20.4015 46.9483 20.2812 46.828 20.1327 46.828C19.9843 46.828 19.8639 46.9483 19.8639 47.0968C19.8639 47.2453 19.9843 47.3657 20.1327 47.3657ZM20.1327 48.0108C20.6375 48.0108 21.0467 47.6016 21.0467 47.0968C21.0467 46.5921 20.6375 46.1829 20.1327 46.1829C19.6279 46.1829 19.2188 46.5921 19.2188 47.0968C19.2188 47.6016 19.6279 48.0108 20.1327 48.0108Z" fill="white"/>
<path fill-rule="evenodd" clip-rule="evenodd" d="M20.1327 51.2365C20.2812 51.2365 20.4015 51.1161 20.4015 50.9677C20.4015 50.8192 20.2812 50.6989 20.1327 50.6989C19.9843 50.6989 19.8639 50.8192 19.8639 50.9677C19.8639 51.1161 19.9843 51.2365 20.1327 51.2365ZM20.1327 51.8817C20.6375 51.8817 21.0467 51.4725 21.0467 50.9677C21.0467 50.4629 20.6375 50.0537 20.1327 50.0537C19.6279 50.0537 19.2188 50.4629 19.2188 50.9677C19.2188 51.4725 19.6279 51.8817 20.1327 51.8817Z" fill="white"/>
<path fill-rule="evenodd" clip-rule="evenodd" d="M20.1327 54.2472C20.2812 54.2472 20.4015 54.1268 20.4015 53.9784C20.4015 53.83 20.2812 53.7096 20.1327 53.7096C19.9843 53.7096 19.8639 53.83 19.8639 53.9784C19.8639 54.1268 19.9843 54.2472 20.1327 54.2472ZM20.1327 54.8924C20.6375 54.8924 21.0467 54.4833 21.0467 53.9784C21.0467 53.4736 20.6375 53.0645 20.1327 53.0645C19.6279 53.0645 19.2188 53.4736 19.2188 53.9784C19.2188 54.4833 19.6279 54.8924 20.1327 54.8924Z" fill="white"/>
<path fill-rule="evenodd" clip-rule="evenodd" d="M18.7382 12.5807C18.8866 12.5807 19.007 12.4604 19.007 12.3119C19.007 12.1634 18.8866 12.0431 18.7382 12.0431C18.5898 12.0431 18.4694 12.1634 18.4694 12.3119C18.4694 12.4604 18.5898 12.5807 18.7382 12.5807ZM18.7382 13.2259C19.243 13.2259 19.6522 12.8167 19.6522 12.3119C19.6522 11.8071 19.243 11.3979 18.7382 11.3979C18.2334 11.3979 17.8242 11.8071 17.8242 12.3119C17.8242 12.8167 18.2334 13.2259 18.7382 13.2259Z" fill="white"/>
<path fill-rule="evenodd" clip-rule="evenodd" d="M15.456 22.4731V35.7739L11.335 40.1146L10.8672 39.6704L14.8108 35.5164V22.4731H15.456Z" fill="white"/>
<path fill-rule="evenodd" clip-rule="evenodd" d="M18.6271 29.0322V38.4493L13.2777 44.9278V48.0826L11.983 49.4923L11.5078 49.0559L12.6325 47.8313V44.6958L17.982 38.2173V29.0322H18.6271Z" fill="white"/>
<path fill-rule="evenodd" clip-rule="evenodd" d="M10.5663 40.6721C10.7148 40.6721 10.8351 40.5517 10.8351 40.4032C10.8351 40.2547 10.7148 40.1344 10.5663 40.1344C10.4179 40.1344 10.2975 40.2547 10.2975 40.4032C10.2975 40.5517 10.4179 40.6721 10.5663 40.6721ZM10.5663 41.3172C11.0711 41.3172 11.4803 40.908 11.4803 40.4032C11.4803 39.8985 11.0711 39.4893 10.5663 39.4893C10.0615 39.4893 9.65234 39.8985 9.65234 40.4032C9.65234 40.908 10.0615 41.3172 10.5663 41.3172Z" fill="white"/>
<path fill-rule="evenodd" clip-rule="evenodd" d="M16.371 16.5053C16.5195 16.5053 16.6398 16.3849 16.6398 16.2365C16.6398 16.088 16.5195 15.9677 16.371 15.9677C16.2226 15.9677 16.1022 16.088 16.1022 16.2365C16.1022 16.3849 16.2226 16.5053 16.371 16.5053ZM16.371 17.1505C16.8758 17.1505 17.285 16.7413 17.285 16.2365C17.285 15.7317 16.8758 15.3225 16.371 15.3225C15.8662 15.3225 15.457 15.7317 15.457 16.2365C15.457 16.7413 15.8662 17.1505 16.371 17.1505Z" fill="white"/>
<path fill-rule="evenodd" clip-rule="evenodd" d="M15.5452 16.5249L16.0126 16.9696L12.9577 20.1811L13.0115 25.0198L9.77601 28.4212L9.30859 27.9765L12.3634 24.765L12.3097 19.9263L15.5452 16.5249Z" fill="white"/>
<path fill-rule="evenodd" clip-rule="evenodd" d="M9.00382 29.0053C9.15226 29.0053 9.27264 28.8849 9.27264 28.7365C9.27264 28.588 9.15226 28.4677 9.00382 28.4677C8.85538 28.4677 8.73501 28.588 8.73501 28.7365C8.73501 28.8849 8.85538 29.0053 9.00382 29.0053ZM9.00382 29.6505C9.50861 29.6505 9.9178 29.2412 9.9178 28.7365C9.9178 28.2317 9.50861 27.8225 9.00382 27.8225C8.49904 27.8225 8.08984 28.2317 8.08984 28.7365C8.08984 29.2412 8.49904 29.6505 9.00382 29.6505Z" fill="white"/>
<path fill-rule="evenodd" clip-rule="evenodd" d="M15.1874 22.0969C15.3359 22.0969 15.4562 21.9765 15.4562 21.828C15.4562 21.6795 15.3359 21.5592 15.1874 21.5592C15.039 21.5592 14.9186 21.6795 14.9186 21.828C14.9186 21.9765 15.039 22.0969 15.1874 22.0969ZM15.1874 22.742C15.6922 22.742 16.1014 22.3328 16.1014 21.828C16.1014 21.3233 15.6922 20.9141 15.1874 20.9141C14.6826 20.9141 14.2734 21.3233 14.2734 21.828C14.2734 22.3328 14.6826 22.742 15.1874 22.742Z" fill="white"/>
<path fill-rule="evenodd" clip-rule="evenodd" d="M18.3046 28.7634C18.453 28.7634 18.5734 28.643 18.5734 28.4945C18.5734 28.3461 18.453 28.2257 18.3046 28.2257C18.1562 28.2257 18.0358 28.3461 18.0358 28.4945C18.0358 28.643 18.1562 28.7634 18.3046 28.7634ZM18.3046 29.4085C18.8094 29.4085 19.2186 28.9993 19.2186 28.4945C19.2186 27.9898 18.8094 27.5806 18.3046 27.5806C17.7998 27.5806 17.3906 27.9898 17.3906 28.4945C17.3906 28.9993 17.7998 29.4085 18.3046 29.4085Z" fill="white"/>
<path fill-rule="evenodd" clip-rule="evenodd" d="M12.6601 34.2472C12.8085 34.2472 12.9289 34.1269 12.9289 33.9784C12.9289 33.8299 12.8085 33.7096 12.6601 33.7096C12.5116 33.7096 12.3913 33.8299 12.3913 33.9784C12.3913 34.1269 12.5116 34.2472 12.6601 34.2472ZM12.6601 34.8924C13.1649 34.8924 13.5741 34.4832 13.5741 33.9784C13.5741 33.4736 13.1649 33.0645 12.6601 33.0645C12.1553 33.0645 11.7461 33.4736 11.7461 33.9784C11.7461 34.4832 12.1553 34.8924 12.6601 34.8924Z" fill="white"/>
<path fill-rule="evenodd" clip-rule="evenodd" d="M8.66797 1.62675L8.96367 1.33105L9.4199 1.78725L9.1242 2.08295L8.66797 1.62675Z" fill="white"/>
<path fill-rule="evenodd" clip-rule="evenodd" d="M8.35929 2.66131C8.50773 2.66131 8.62811 2.54096 8.62811 2.39249C8.62811 2.24403 8.50773 2.12368 8.35929 2.12368C8.21085 2.12368 8.09047 2.24403 8.09047 2.39249C8.09047 2.54096 8.21085 2.66131 8.35929 2.66131ZM8.35929 3.30647C8.86408 3.30647 9.27327 2.89727 9.27327 2.39249C9.27327 1.88771 8.86408 1.47852 8.35929 1.47852C7.85451 1.47852 7.44531 1.88771 7.44531 2.39249C7.44531 2.89727 7.85451 3.30647 8.35929 3.30647Z" fill="white"/>
<path fill-rule="evenodd" clip-rule="evenodd" d="M1.18359 1.12915H21.0492V57.0958L1.18359 41.2036V1.12915ZM1.82876 1.77431V40.8935L20.404 55.7539V1.77431H1.82876Z" fill="white"/>
<path fill-rule="evenodd" clip-rule="evenodd" d="M44.0336 1.12915H24.168V57.1232L44.0336 41.2229V1.12915ZM43.3884 1.77431V40.9129L24.8131 55.7802V1.77431H43.3884Z" fill="white"/>
<path fill-rule="evenodd" clip-rule="evenodd" d="M39.0965 1.2168L43.9756 5.61993L39.4722 10.7L42.1648 20.1506L42.1657 20.1536L43.9579 26.2194L41.2032 29.9097L43.8516 31.9205L43.4615 32.4344L40.9881 30.5564L39.464 40.242H43.6565V40.8871H39.4628L39.97 44.1712L39.3323 44.2697L38.8276 41.0008L34.0169 42.7346L30.2905 49.6957L31.111 51.0713L30.5569 51.4018L29.8385 50.1974L24.699 54.5737L24.2807 54.0823L29.0435 50.0269H24.4899V49.3818H29.288L26.0792 44.9516L24.2805 43.4175L24.6992 42.9266L26.2703 44.2667L30.0735 39.3733L26.6344 35.4265L24.7246 37.4525L24.2551 37.0099L26.3254 34.8138L27.0892 11.2698L24.1641 10.5207L33.2965 6.96089L24.5423 2.90018L24.8138 2.31492L33.4295 6.31138L31.8448 1.49877L32.4576 1.29698L34.1439 6.41799L39.0965 1.2168ZM33.7256 7.48611L26.2672 10.3933L27.4872 10.7058L34.1426 11.8422L33.7256 7.48611ZM34.2063 12.5076L28.2618 11.4925L34.8262 18.9818L34.2063 12.5076ZM34.691 19.8064L27.7159 11.8485L27.3699 22.5149L34.691 19.8064ZM27.3472 23.2112L26.9938 34.1047L35.2088 25.39L34.9437 20.4008L27.3472 23.2112ZM35.5836 20.2844L35.8262 24.8506L41.01 20.5271L35.5836 20.2844ZM41.4225 19.8997L35.717 19.6446L39.0568 11.5965L41.4225 19.8997ZM41.6851 20.8041L36.3519 25.2522L43.1604 25.7969L41.6851 20.8041ZM42.9949 26.4309L35.8268 25.8575L35.0552 33.3476L40.5285 29.735L42.9949 26.4309ZM40.3211 30.645L35.1139 34.0819L38.8957 39.7028L40.3211 30.645ZM38.588 40.4013L34.8942 34.9111L34.1644 41.9956L38.588 40.4013ZM33.4921 42.2265L34.2283 35.0789L27.1941 44.1294L33.4921 42.2265ZM26.8449 44.909L33.1392 43.007L29.8788 49.0977L26.8449 44.909ZM34.399 33.4225L35.1198 26.425L30.8129 30.9939L34.399 33.4225ZM30.3645 31.4694L27.0791 34.9548L30.477 38.8542L34.1985 34.0659L30.3645 31.4694ZM38.7909 9.99751L34.4978 6.98186L38.7909 2.47325V9.99751ZM39.4361 2.39231V9.76815L43.0686 5.67046L39.4361 2.39231ZM38.7164 10.7336L34.3939 7.69724L35.4404 18.6279L38.7164 10.7336Z" fill="white"/>
<path d="M36.6386 25.5913C36.6386 26.1257 36.2053 26.559 35.6709 26.559C35.1364 26.559 34.7031 26.1257 34.7031 25.5913C34.7031 25.0568 35.1364 24.6235 35.6709 24.6235C36.2053 24.6235 36.6386 25.0568 36.6386 25.5913Z" fill="white"/>
<path d="M31.3691 31.2903C31.3691 31.8247 30.9358 32.258 30.4013 32.258C29.8669 32.258 29.4336 31.8247 29.4336 31.2903C29.4336 30.7558 29.8669 30.3225 30.4013 30.3225C30.9358 30.3225 31.3691 30.7558 31.3691 31.2903Z" fill="white"/>
<path d="M35.6738 34.2473C35.6738 34.7817 35.2405 35.215 34.706 35.215C34.1716 35.215 33.7383 34.7817 33.7383 34.2473C33.7383 33.7128 34.1716 33.2795 34.706 33.2795C35.2405 33.2795 35.6738 33.7128 35.6738 34.2473Z" fill="white"/>
<path d="M41.6933 30.2688C41.6933 30.8032 41.26 31.2365 40.7256 31.2365C40.1911 31.2365 39.7578 30.8032 39.7578 30.2688C39.7578 29.7343 40.1911 29.301 40.7256 29.301C41.26 29.301 41.6933 29.7343 41.6933 30.2688Z" fill="white"/>
<path d="M40.08 40.5376C40.08 41.072 39.6467 41.5053 39.1123 41.5053C38.5778 41.5053 38.1445 41.072 38.1445 40.5376C38.1445 40.0031 38.5778 39.5698 39.1123 39.5698C39.6467 39.5698 40.08 40.0031 40.08 40.5376Z" fill="white"/>
<path d="M34.705 42.4731C34.705 43.0076 34.2717 43.4409 33.7373 43.4409C33.2028 43.4409 32.7695 43.0076 32.7695 42.4731C32.7695 41.9387 33.2028 41.5054 33.7373 41.5054C34.2717 41.5054 34.705 41.9387 34.705 42.4731Z" fill="white"/>
<path d="M31.3691 39.4624C31.3691 39.9968 30.9358 40.4301 30.4013 40.4301C29.8669 40.4301 29.4336 39.9968 29.4336 39.4624C29.4336 38.9279 29.8669 38.4946 30.4013 38.4946C30.9358 38.4946 31.3691 38.9279 31.3691 39.4624Z" fill="white"/>
<path d="M27.2831 44.7849C27.2831 45.3193 26.8499 45.7526 26.3154 45.7526C25.7809 45.7526 25.3477 45.3193 25.3477 44.7849C25.3477 44.2504 25.7809 43.8171 26.3154 43.8171C26.8499 43.8171 27.2831 44.2504 27.2831 44.7849Z" fill="white"/>
<path d="M30.8886 49.7849C30.8886 50.3193 30.4553 50.7526 29.9209 50.7526C29.3864 50.7526 28.9531 50.3193 28.9531 49.7849C28.9531 49.2504 29.3864 48.8171 29.9209 48.8171C30.4553 48.8171 30.8886 49.2504 30.8886 49.7849Z" fill="white"/>
<path d="M27.7675 34.9463C27.7675 35.4807 27.3342 35.914 26.7998 35.914C26.2653 35.914 25.832 35.4807 25.832 34.9463C25.832 34.4118 26.2653 33.9785 26.7998 33.9785C27.3342 33.9785 27.7675 34.4118 27.7675 34.9463Z" fill="white"/>
<path d="M28.1464 22.8496C28.1464 23.384 27.7131 23.8173 27.1787 23.8173C26.6442 23.8173 26.2109 23.384 26.2109 22.8496C26.2109 22.3151 26.6442 21.8818 27.1787 21.8818C27.7131 21.8818 28.1464 22.3151 28.1464 22.8496Z" fill="white"/>
<path d="M36.2636 19.8386C36.2636 20.3731 35.8303 20.8063 35.2959 20.8063C34.7614 20.8063 34.3281 20.3731 34.3281 19.8386C34.3281 19.3041 34.7614 18.8708 35.2959 18.8708C35.8303 18.8708 36.2636 19.3041 36.2636 19.8386Z" fill="white"/>
<path d="M42.662 20.4301C42.662 20.9646 42.2288 21.3979 41.6943 21.3979C41.1598 21.3979 40.7266 20.9646 40.7266 20.4301C40.7266 19.8957 41.1598 19.4624 41.6943 19.4624C42.2288 19.4624 42.662 19.8957 42.662 20.4301Z" fill="white"/>
<path d="M40.08 10.4839C40.08 11.0183 39.6467 11.4516 39.1123 11.4516C38.5778 11.4516 38.1445 11.0183 38.1445 10.4839C38.1445 9.94939 38.5778 9.51611 39.1123 9.51611C39.6467 9.51611 40.08 9.94939 40.08 10.4839Z" fill="white"/>
<path d="M34.8652 7.09689C34.8652 7.63135 34.4319 8.06463 33.8974 8.06463C33.363 8.06463 32.9297 7.63135 32.9297 7.09689C32.9297 6.56243 33.363 6.12915 33.8974 6.12915C34.4319 6.12915 34.8652 6.56243 34.8652 7.09689Z" fill="white"/>
<path d="M28.4667 11.1291C28.4667 11.6636 28.0335 12.0969 27.499 12.0969C26.9645 12.0969 26.5312 11.6636 26.5312 11.1291C26.5312 10.5947 26.9645 10.1614 27.499 10.1614C28.0335 10.1614 28.4667 10.5947 28.4667 11.1291Z" fill="white"/>
<path d="M35.4042 12.258C35.4042 12.7925 34.971 13.2258 34.4365 13.2258C33.902 13.2258 33.4688 12.7925 33.4688 12.258C33.4688 11.7236 33.902 11.2903 34.4365 11.2903C34.971 11.2903 35.4042 11.7236 35.4042 12.258Z" fill="white"/>
</g>
<defs>
<clipPath id="clip0_1125_1164">
<rect width="45.2688" height="60" fill="white"/>
</clipPath>
</defs>
</svg>
