<svg width="16" height="17" viewBox="0 0 16 17" fill="none" xmlns="http://www.w3.org/2000/svg">
<path d="M2 6.5C2 4.61438 2 3.67157 2.58579 3.08579C3.17157 2.5 4.11438 2.5 6 2.5H10C11.8856 2.5 12.8284 2.5 13.4142 3.08579C14 3.67157 14 4.61438 14 6.5V10.5C14 12.3856 14 13.3284 13.4142 13.9142C12.8284 14.5 11.8856 14.5 10 14.5H6C4.11438 14.5 3.17157 14.5 2.58579 13.9142C2 13.3284 2 12.3856 2 10.5V6.5Z" stroke="#A9ADB4"/>
<path d="M2 7.16667V7.16667C2 8.27124 2.89543 9.16667 4 9.16667H4.4503C4.60543 9.16667 4.683 9.16667 4.75272 9.17654C5.07853 9.22266 5.3608 9.4261 5.50758 9.72061C5.53899 9.78364 5.56352 9.85722 5.61257 10.0044L5.66667 10.1667C5.7676 10.4695 5.81806 10.6209 5.90144 10.74C6.03097 10.9251 6.21937 11.0609 6.43593 11.1253C6.57533 11.1667 6.73492 11.1667 7.05409 11.1667H8.94591C9.26508 11.1667 9.42467 11.1667 9.56407 11.1253C9.78063 11.0609 9.96903 10.9251 10.0986 10.74C10.1819 10.6209 10.2324 10.4695 10.3333 10.1667L10.3874 10.0044C10.4365 9.85722 10.461 9.78364 10.4924 9.72061C10.6392 9.4261 10.9215 9.22266 11.2473 9.17654C11.317 9.16667 11.3946 9.16667 11.5497 9.16667H12C13.1046 9.16667 14 8.27124 14 7.16667V7.16667" stroke="#A9ADB4"/>
</svg>
