<svg width="120" height="120" viewBox="0 0 120 120" fill="none" xmlns="http://www.w3.org/2000/svg">
<g filter="url(#filter0_ii_863_21370)">
<path fill-rule="evenodd" clip-rule="evenodd" d="M35.5 10C26.6634 10 19.5 17.1634 19.5 26V94C19.5 102.837 26.6634 110 35.5 110H84.5C93.3366 110 100.5 102.837 100.5 94V35L75.5 10H35.5Z" fill="#576A95"/>
</g>
<g filter="url(#filter1_dd_863_21370)">
<path d="M66.875 72.4506V86.0306C66.8748 86.4767 66.7867 86.9183 66.6157 87.3302C66.4446 87.7422 66.194 88.1163 65.8781 88.4313C65.2398 89.0681 64.3748 89.4258 63.4731 89.4256H56.5269C55.6253 89.4258 54.7604 89.0684 54.1219 88.4319C53.8059 88.1168 53.5552 87.7424 53.3841 87.3303C53.213 86.9181 53.125 86.4762 53.125 86.03V72.4506H66.875ZM63.4731 80.2306H56.5269V87.0494H63.4731V80.2306ZM66.7613 58.8706V65.6894H59.9294V58.8706H66.7613ZM60.0144 11V17.875H66.875V24.75H60.0138V31.1156H66.875V37.9906H60.0144V44.7812H66.875V51.5719H60.0144V58.3619H53.125V51.5712H59.9856V44.7806H53.125V37.9906H59.9856V31.1156H53.125V24.2406H59.9856V17.875H53.125V11H60.0144Z" fill="white"/>
</g>
<path d="M98.1545 32.6562H77.8438L100.5 55.3125V35L98.1545 32.6562Z" fill="url(#paint0_linear_863_21370)"/>
<path d="M75.5 35L100.5 35L75.5 10L75.5 35Z" fill="#BBC3D4"/>
<defs>
<filter id="filter0_ii_863_21370" x="19.5" y="9" width="81" height="102" filterUnits="userSpaceOnUse" color-interpolation-filters="sRGB">
<feFlood flood-opacity="0" result="BackgroundImageFix"/>
<feBlend mode="normal" in="SourceGraphic" in2="BackgroundImageFix" result="shape"/>
<feColorMatrix in="SourceAlpha" type="matrix" values="0 0 0 0 0 0 0 0 0 0 0 0 0 0 0 0 0 0 127 0" result="hardAlpha"/>
<feOffset dy="-2"/>
<feGaussianBlur stdDeviation="0.5"/>
<feComposite in2="hardAlpha" operator="arithmetic" k2="-1" k3="1"/>
<feColorMatrix type="matrix" values="0 0 0 0 0 0 0 0 0 0 0 0 0 0 0 0 0 0 0.3 0"/>
<feBlend mode="normal" in2="shape" result="effect1_innerShadow_863_21370"/>
<feColorMatrix in="SourceAlpha" type="matrix" values="0 0 0 0 0 0 0 0 0 0 0 0 0 0 0 0 0 0 127 0" result="hardAlpha"/>
<feOffset dy="2"/>
<feGaussianBlur stdDeviation="0.5"/>
<feComposite in2="hardAlpha" operator="arithmetic" k2="-1" k3="1"/>
<feColorMatrix type="matrix" values="0 0 0 0 1 0 0 0 0 1 0 0 0 0 1 0 0 0 0.3 0"/>
<feBlend mode="normal" in2="effect1_innerShadow_863_21370" result="effect2_innerShadow_863_21370"/>
</filter>
<filter id="filter1_dd_863_21370" x="52.125" y="10" width="22.75" height="89.4257" filterUnits="userSpaceOnUse" color-interpolation-filters="sRGB">
<feFlood flood-opacity="0" result="BackgroundImageFix"/>
<feColorMatrix in="SourceAlpha" type="matrix" values="0 0 0 0 0 0 0 0 0 0 0 0 0 0 0 0 0 0 127 0" result="hardAlpha"/>
<feOffset dx="4" dy="6"/>
<feGaussianBlur stdDeviation="2"/>
<feColorMatrix type="matrix" values="0 0 0 0 0 0 0 0 0 0 0 0 0 0 0 0 0 0 0.1 0"/>
<feBlend mode="normal" in2="BackgroundImageFix" result="effect1_dropShadow_863_21370"/>
<feColorMatrix in="SourceAlpha" type="matrix" values="0 0 0 0 0 0 0 0 0 0 0 0 0 0 0 0 0 0 127 0" result="hardAlpha"/>
<feOffset/>
<feGaussianBlur stdDeviation="0.5"/>
<feColorMatrix type="matrix" values="0 0 0 0 0 0 0 0 0 0 0 0 0 0 0 0 0 0 0.4 0"/>
<feBlend mode="normal" in2="effect1_dropShadow_863_21370" result="effect2_dropShadow_863_21370"/>
<feBlend mode="normal" in="SourceGraphic" in2="effect2_dropShadow_863_21370" result="shape"/>
</filter>
<linearGradient id="paint0_linear_863_21370" x1="82.9219" y1="27.5781" x2="105.578" y2="50.2344" gradientUnits="userSpaceOnUse">
<stop stop-opacity="0.2"/>
<stop offset="1" stop-opacity="0"/>
</linearGradient>
</defs>
</svg>
