<svg width="16" height="17" viewBox="0 0 16 17" fill="none" xmlns="http://www.w3.org/2000/svg">
<path d="M4.33325 6.83334L3.17678 7.9898C2.86547 8.30112 2.70981 8.45677 2.5985 8.63842C2.49981 8.79947 2.42708 8.97505 2.38299 9.15872C2.33325 9.36588 2.33325 9.58601 2.33325 10.0263V11.2867C2.33325 12.2948 2.33325 12.7988 2.52944 13.1839C2.70201 13.5225 2.97738 13.7979 3.31607 13.9705C3.70111 14.1667 4.20516 14.1667 5.21325 14.1667H10.7866C11.7947 14.1667 12.2987 14.1667 12.6838 13.9705C13.0225 13.7979 13.2978 13.5225 13.4704 13.1839C13.6666 12.7988 13.6666 12.2948 13.6666 11.2867V10.0263C13.6666 9.58601 13.6666 9.36588 13.6169 9.15872C13.5728 8.97505 13.5 8.79947 13.4013 8.63842C13.29 8.45677 13.1344 8.30112 12.8231 7.9898L11.6666 6.83334" stroke="#535C69" stroke-opacity="0.5"/>
<path d="M13.6666 10.1667H12.054C11.7348 10.1667 11.5753 10.1667 11.4358 10.2081C11.2193 10.2724 11.0309 10.4082 10.9014 10.5933C10.818 10.7125 10.7675 10.8639 10.6666 11.1667V11.1667C10.5657 11.4695 10.5152 11.6209 10.4318 11.74C10.3023 11.9251 10.1139 12.0609 9.89732 12.1253C9.75792 12.1667 9.59833 12.1667 9.27916 12.1667H6.72068C6.4015 12.1667 6.24192 12.1667 6.10252 12.1253C5.88595 12.0609 5.69756 11.9251 5.56803 11.74C5.48465 11.6209 5.43418 11.4695 5.33325 11.1667V11.1667C5.23232 10.8639 5.18185 10.7125 5.09848 10.5933C4.96895 10.4082 4.78055 10.2724 4.56399 10.2081C4.42458 10.1667 4.265 10.1667 3.94583 10.1667H2.33325" stroke="#535C69" stroke-opacity="0.5"/>
<path d="M11.6666 10.1667V6.16274C11.6666 5.91815 11.6666 5.79586 11.639 5.68077C11.6145 5.57873 11.5741 5.48119 11.5192 5.39171C11.4574 5.2908 11.3709 5.20432 11.198 5.03137L10.1352 3.96863C9.96226 3.79568 9.87579 3.7092 9.77487 3.64736C9.6854 3.59253 9.58785 3.55213 9.48582 3.52763C9.37073 3.5 9.24843 3.5 9.00384 3.5H6.73325C5.89317 3.5 5.47313 3.5 5.15227 3.66349C4.87002 3.8073 4.64055 4.03677 4.49674 4.31901C4.33325 4.63988 4.33325 5.05992 4.33325 5.9V10.1667" stroke="#535C69" stroke-opacity="0.5"/>
<path d="M9 3.5L9 4.56666C9 5.12672 9 5.40674 9.10899 5.62065C9.20487 5.80882 9.35785 5.9618 9.54601 6.05767C9.75992 6.16666 10.0399 6.16666 10.6 6.16666L11.6667 6.16666" stroke="#535C69" stroke-opacity="0.5"/>
</svg>
