<svg width="16" height="17" viewBox="0 0 16 17" fill="none" xmlns="http://www.w3.org/2000/svg">
<path d="M2.41494 10.4445C1.88623 9.49407 1.62187 9.01885 1.62187 8.50001C1.62187 7.98116 1.88623 7.50594 2.41494 6.5555L2.95388 5.58667L3.52344 4.63552C4.08219 3.70242 4.36157 3.23588 4.81089 2.97646C5.26022 2.71703 5.80395 2.70836 6.89142 2.69102L7.99992 2.67334L9.10842 2.69102C10.1959 2.70836 10.7396 2.71703 11.1889 2.97646C11.6383 3.23588 11.9176 3.70242 12.4764 4.63552L13.046 5.58667L13.5849 6.5555C14.1136 7.50594 14.378 7.98116 14.378 8.5C14.378 9.01885 14.1136 9.49407 13.5849 10.4445L13.046 11.4133L12.4764 12.3645C11.9176 13.2976 11.6383 13.7641 11.1889 14.0236C10.7396 14.283 10.1959 14.2916 9.10842 14.309L7.99992 14.3267L6.89142 14.309C5.80396 14.2916 5.26023 14.283 4.8109 14.0236C4.36157 13.7641 4.08219 13.2976 3.52344 12.3645L2.95388 11.4133L2.41494 10.4445Z" stroke="#535C69" stroke-opacity="0.5"/>
<circle cx="8" cy="8.5" r="2" stroke="#535C69" stroke-opacity="0.5"/>
</svg>
