<svg width="16" height="17" viewBox="0 0 16 17" fill="none" xmlns="http://www.w3.org/2000/svg">
<g clip-path="url(#clip0_203_3763)">
<g filter="url(#filter0_ii_203_3763)">
<path fill-rule="evenodd" clip-rule="evenodd" d="M4.59998 1.8335C3.49541 1.8335 2.59998 2.72892 2.59998 3.83349V13.1668C2.59998 14.2714 3.49541 15.1668 4.59998 15.1668H11.4C12.5045 15.1668 13.4 14.2714 13.4 13.1668V5.16683L10.0666 1.8335H4.59998Z" fill="#4876F9"/>
</g>
<g filter="url(#filter1_dd_203_3763)">
<path d="M6.98985 11.8332L7.99385 8.15259H8.01235L9.01019 11.8332H9.57069L10.8334 7.4165H10.2667L9.29969 11.1218H9.27502L8.27719 7.4165H7.72902L6.72502 11.1218H6.70035L5.73335 7.4165H5.16669L6.42935 11.8332H6.98985Z" fill="white"/>
</g>
<path d="M13.0872 4.854L10.3792 4.854L13.4 7.87484L13.4 5.1665L13.0872 4.854Z" fill="url(#paint0_linear_203_3763)"/>
<path d="M10.0667 5.1665L13.4 5.1665L10.0667 1.83317L10.0667 5.1665Z" fill="#B5C8FC"/>
</g>
<defs>
<filter id="filter0_ii_203_3763" x="2.59998" y="0.833496" width="10.8" height="15.3335" filterUnits="userSpaceOnUse" color-interpolation-filters="sRGB">
<feFlood flood-opacity="0" result="BackgroundImageFix"/>
<feBlend mode="normal" in="SourceGraphic" in2="BackgroundImageFix" result="shape"/>
<feColorMatrix in="SourceAlpha" type="matrix" values="0 0 0 0 0 0 0 0 0 0 0 0 0 0 0 0 0 0 127 0" result="hardAlpha"/>
<feOffset dy="-2"/>
<feGaussianBlur stdDeviation="0.5"/>
<feComposite in2="hardAlpha" operator="arithmetic" k2="-1" k3="1"/>
<feColorMatrix type="matrix" values="0 0 0 0 0 0 0 0 0 0 0 0 0 0 0 0 0 0 0.3 0"/>
<feBlend mode="normal" in2="shape" result="effect1_innerShadow_203_3763"/>
<feColorMatrix in="SourceAlpha" type="matrix" values="0 0 0 0 0 0 0 0 0 0 0 0 0 0 0 0 0 0 127 0" result="hardAlpha"/>
<feOffset dy="2"/>
<feGaussianBlur stdDeviation="0.5"/>
<feComposite in2="hardAlpha" operator="arithmetic" k2="-1" k3="1"/>
<feColorMatrix type="matrix" values="0 0 0 0 1 0 0 0 0 1 0 0 0 0 1 0 0 0 0.3 0"/>
<feBlend mode="normal" in2="effect1_innerShadow_203_3763" result="effect2_innerShadow_203_3763"/>
</filter>
<filter id="filter1_dd_203_3763" x="4.16669" y="6.4165" width="14.6667" height="15.4165" filterUnits="userSpaceOnUse" color-interpolation-filters="sRGB">
<feFlood flood-opacity="0" result="BackgroundImageFix"/>
<feColorMatrix in="SourceAlpha" type="matrix" values="0 0 0 0 0 0 0 0 0 0 0 0 0 0 0 0 0 0 127 0" result="hardAlpha"/>
<feOffset dx="4" dy="6"/>
<feGaussianBlur stdDeviation="2"/>
<feColorMatrix type="matrix" values="0 0 0 0 0 0 0 0 0 0 0 0 0 0 0 0 0 0 0.1 0"/>
<feBlend mode="normal" in2="BackgroundImageFix" result="effect1_dropShadow_203_3763"/>
<feColorMatrix in="SourceAlpha" type="matrix" values="0 0 0 0 0 0 0 0 0 0 0 0 0 0 0 0 0 0 127 0" result="hardAlpha"/>
<feOffset/>
<feGaussianBlur stdDeviation="0.5"/>
<feColorMatrix type="matrix" values="0 0 0 0 0 0 0 0 0 0 0 0 0 0 0 0 0 0 0.4 0"/>
<feBlend mode="normal" in2="effect1_dropShadow_203_3763" result="effect2_dropShadow_203_3763"/>
<feBlend mode="normal" in="SourceGraphic" in2="effect2_dropShadow_203_3763" result="shape"/>
</filter>
<linearGradient id="paint0_linear_203_3763" x1="11.0562" y1="4.17692" x2="14.0771" y2="7.19775" gradientUnits="userSpaceOnUse">
<stop stop-opacity="0.2"/>
<stop offset="1" stop-opacity="0"/>
</linearGradient>
<clipPath id="clip0_203_3763">
<rect width="16" height="16" fill="white" transform="translate(0 0.5)"/>
</clipPath>
</defs>
</svg>
