<svg width="16" height="17" viewBox="0 0 16 17" fill="none" xmlns="http://www.w3.org/2000/svg">
<path d="M13 10.5552V4.89478C13 4.56026 12.648 4.34269 12.3488 4.49229L10.4899 5.42172C10.3892 5.47207 10.2733 5.48284 10.165 5.45191L5.83497 4.21475C5.72672 4.18382 5.6108 4.1946 5.5101 4.24495L3.24875 5.37562C3.0963 5.45185 3 5.60767 3 5.77812V11.4386C3 11.7731 3.35204 11.9906 3.65125 11.841L5.5101 10.9116C5.6108 10.8613 5.72672 10.8505 5.83497 10.8814L10.165 12.1186C10.2733 12.1495 10.3892 12.1387 10.4899 12.0884L12.7512 10.9577C12.9037 10.8815 13 10.7257 13 10.5552Z" stroke="#535C69" stroke-opacity="0.5"/>
<path d="M10.3333 12.1667V5.5" stroke="#535C69" stroke-opacity="0.5"/>
<path d="M5.66675 10.8333V4.16667" stroke="#535C69" stroke-opacity="0.5"/>
</svg>
