<svg width="16" height="17" viewBox="0 0 16 17" fill="none" xmlns="http://www.w3.org/2000/svg">
<path d="M2 6.5C2 4.61438 2 3.67157 2.58579 3.08579C3.17157 2.5 4.11438 2.5 6 2.5H10C11.8856 2.5 12.8284 2.5 13.4142 3.08579C14 3.67157 14 4.61438 14 6.5V10.5C14 12.3856 14 13.3284 13.4142 13.9142C12.8284 14.5 11.8856 14.5 10 14.5H6C4.11438 14.5 3.17157 14.5 2.58579 13.9142C2 13.3284 2 12.3856 2 10.5V6.5Z" stroke="#535C69" stroke-opacity="0.5"/>
<path d="M2 5.16666H3.66667C4.31883 5.16666 4.64492 5.16666 4.94173 5.26145C5.13842 5.32426 5.3242 5.41715 5.49247 5.53681C5.74638 5.7174 5.94203 5.97826 6.33333 6.5V6.5C6.72463 7.02173 6.92028 7.2826 7.1742 7.46318C7.34246 7.58285 7.52824 7.67574 7.72493 7.73855C8.02175 7.83333 8.34783 7.83333 9 7.83333H12C13.1046 7.83333 14 6.9379 14 5.83333V5.83333" stroke="#535C69" stroke-opacity="0.5"/>
<path d="M4.66675 11.1667H10.0001" stroke="#535C69" stroke-opacity="0.5" stroke-linecap="round"/>
</svg>
