<svg width="24" height="24" viewBox="0 0 24 24" fill="none" xmlns="http://www.w3.org/2000/svg">
<circle cx="12" cy="12" r="7.5" stroke="#535C69"/>
<path d="M10.3332 7.83325L9.97962 7.4797L10.3332 7.12615L10.6867 7.4797L10.3332 7.83325ZM10.8332 14.0833C10.8332 14.3594 10.6093 14.5833 10.3332 14.5833C10.057 14.5833 9.83317 14.3594 9.83317 14.0833L10.8332 14.0833ZM8.31295 9.14637L9.97962 7.4797L10.6867 8.18681L9.02006 9.85347L8.31295 9.14637ZM10.6867 7.4797L12.3534 9.14637L11.6463 9.85347L9.97962 8.18681L10.6867 7.4797ZM10.8332 7.83325L10.8332 14.0833L9.83317 14.0833L9.83317 7.83325L10.8332 7.83325Z" fill="#535C69"/>
<path d="M13.6667 16.1666L13.3131 16.5202L13.6667 16.8737L14.0202 16.5202L13.6667 16.1666ZM14.1667 9.91663C14.1667 9.64048 13.9428 9.41663 13.6667 9.41663C13.3905 9.41663 13.1667 9.64048 13.1667 9.91663L14.1667 9.91663ZM11.6464 14.8535L13.3131 16.5202L14.0202 15.8131L12.3536 14.1464L11.6464 14.8535ZM14.0202 16.5202L15.6869 14.8535L14.9798 14.1464L13.3131 15.8131L14.0202 16.5202ZM14.1667 16.1666L14.1667 9.91663L13.1667 9.91663L13.1667 16.1666L14.1667 16.1666Z" fill="#535C69"/>
</svg>
