<svg width="17" height="17" viewBox="0 0 17 17" fill="none" xmlns="http://www.w3.org/2000/svg">
<path d="M4.79856 6.47969C5.00812 4.59363 6.60233 3.16675 8.5 3.16675V3.16675C10.3977 3.16675 11.9919 4.59363 12.2014 6.47969L12.3693 7.9905C12.4554 8.76555 12.7077 9.51289 13.1089 10.1816L13.4943 10.8238C13.5783 10.9639 13.6203 11.034 13.6437 11.0853C13.9257 11.7038 13.5217 12.4173 12.8463 12.4937C12.7902 12.5001 12.7086 12.5001 12.5452 12.5001H4.45482C4.29145 12.5001 4.20976 12.5001 4.15369 12.4937C3.47831 12.4173 3.07435 11.7038 3.35626 11.0853C3.37966 11.034 3.42169 10.9639 3.50575 10.8238L3.8911 10.1816C4.29231 9.51289 4.54458 8.76554 4.63069 7.9905L4.79856 6.47969Z" stroke="#A9ADB4"/>
<path d="M6.56815 12.7706C6.6821 13.2667 6.93319 13.7051 7.28248 14.0178C7.63177 14.3305 8.05973 14.5 8.5 14.5C8.94027 14.5 9.36823 14.3305 9.71752 14.0178C10.0668 13.7051 10.3179 13.2667 10.4319 12.7706" stroke="#A9ADB4" stroke-linecap="round"/>
</svg>
