<svg width="12" height="12" viewBox="0 0 12 12" fill="none" xmlns="http://www.w3.org/2000/svg">
<path d="M4.5 2.5H7M7 2.5H9.5M7 2.5V9.5M4.5 9.5H7M7 9.5H9.5" stroke="white"/>
<path d="M1 7.5H0.5V8H1V7.5ZM1 8H5.5V7H1V8ZM5.5 4H3V5H5.5V4ZM0.5 6.5V7.5H1.5V6.5H0.5ZM3 4C1.61929 4 0.5 5.11929 0.5 6.5H1.5C1.5 5.67157 2.17157 5 3 5V4Z" fill="white"/>
<path d="M11 4.5H11.5V4H11V4.5ZM11 4H8.5V5H11V4ZM8.5 8H9V7H8.5V8ZM11.5 5.5V4.5H10.5V5.5H11.5ZM9 8C10.3807 8 11.5 6.88071 11.5 5.5H10.5C10.5 6.32843 9.82843 7 9 7V8Z" fill="white"/>
</svg>
