<svg width="130" height="100" viewBox="0 0 130 100" fill="none" xmlns="http://www.w3.org/2000/svg">
<path d="M9.99999 99.8459H120C125.523 99.8459 130 95.3687 130 89.8459V17.1725C130 11.6497 125.523 7.1725 120 7.1725H65.8793C63.3442 7.1725 61.0078 5.80028 59.773 3.58625C58.5383 1.37222 56.2019 0 53.6668 0H9.99999C4.47715 0 0 4.47715 0 10V89.8459C0 95.3688 4.47715 99.8459 9.99999 99.8459Z" fill="#FFC93E"/>
<rect x="5.53125" y="10.7859" width="116.17" height="84.1294" rx="10" fill="black" fill-opacity="0.05"/>
<rect x="6.76172" y="12.3265" width="116.17" height="84.1294" rx="10" fill="white"/>
<path d="M120 98.9214H10C4.47715 98.9214 0 94.4443 0 88.9214V35.7149C0 30.1921 4.47716 25.7149 10 25.7149H63.5033C66.5168 25.7149 69.246 23.9354 70.4615 21.1779C71.6771 18.4205 74.4063 16.641 77.4198 16.641H120C125.523 16.641 130 21.1181 130 26.641V88.9214C130 94.4443 125.523 98.9214 120 98.9214Z" fill="black" fill-opacity="0.06"/>
<path d="M120 99.846H10C4.47715 99.846 0 95.3688 0 89.846V36.6395C0 31.1166 4.47716 26.6395 10 26.6395H63.5033C66.5168 26.6395 69.246 24.86 70.4615 22.1025C71.6771 19.3451 74.4063 17.5656 77.4198 17.5656H120C125.523 17.5656 130 22.0427 130 27.5655V89.846C130 95.3688 125.523 99.846 120 99.846Z" fill="#FFAA2B"/>
<path fill-rule="evenodd" clip-rule="evenodd" d="M52.3516 99.9998H119.847C125.37 99.9998 129.847 95.5227 129.847 89.9998V56.2065C107.976 79.4113 78.0189 92.8797 52.3516 99.9998Z" fill="#FFA114"/>
</svg>
