<svg width="120" height="120" viewBox="0 0 120 120" fill="none" xmlns="http://www.w3.org/2000/svg">
<g filter="url(#filter0_ii_863_21374)">
<path fill-rule="evenodd" clip-rule="evenodd" d="M35.5 10C26.6634 10 19.5 17.1634 19.5 26V94C19.5 102.837 26.6634 110 35.5 110H84.5C93.3366 110 100.5 102.837 100.5 94V35L75.5 10H35.5Z" fill="#7C8EEE"/>
</g>
<g filter="url(#filter1_dd_863_21374)">
<path d="M79.0838 66.5715L49.9269 83.9527C47.9788 85.1265 45.5 83.7171 45.5 81.4277V46.6652C45.5 44.434 47.9788 43.0252 49.9269 44.1402L79.0831 61.5215C80.9719 62.6965 80.9719 65.4558 79.0831 66.5715H79.0838Z" fill="white"/>
</g>
<path d="M98.1545 32.6562H77.8438L100.5 55.3125V35L98.1545 32.6562Z" fill="url(#paint0_linear_863_21374)"/>
<path d="M75.5 35L100.5 35L75.5 10L75.5 35Z" fill="#CAD1F8"/>
<defs>
<filter id="filter0_ii_863_21374" x="19.5" y="9" width="81" height="102" filterUnits="userSpaceOnUse" color-interpolation-filters="sRGB">
<feFlood flood-opacity="0" result="BackgroundImageFix"/>
<feBlend mode="normal" in="SourceGraphic" in2="BackgroundImageFix" result="shape"/>
<feColorMatrix in="SourceAlpha" type="matrix" values="0 0 0 0 0 0 0 0 0 0 0 0 0 0 0 0 0 0 127 0" result="hardAlpha"/>
<feOffset dy="-2"/>
<feGaussianBlur stdDeviation="0.5"/>
<feComposite in2="hardAlpha" operator="arithmetic" k2="-1" k3="1"/>
<feColorMatrix type="matrix" values="0 0 0 0 0 0 0 0 0 0 0 0 0 0 0 0 0 0 0.3 0"/>
<feBlend mode="normal" in2="shape" result="effect1_innerShadow_863_21374"/>
<feColorMatrix in="SourceAlpha" type="matrix" values="0 0 0 0 0 0 0 0 0 0 0 0 0 0 0 0 0 0 127 0" result="hardAlpha"/>
<feOffset dy="2"/>
<feGaussianBlur stdDeviation="0.5"/>
<feComposite in2="hardAlpha" operator="arithmetic" k2="-1" k3="1"/>
<feColorMatrix type="matrix" values="0 0 0 0 1 0 0 0 0 1 0 0 0 0 1 0 0 0 0.3 0"/>
<feBlend mode="normal" in2="effect1_innerShadow_863_21374" result="effect2_innerShadow_863_21374"/>
</filter>
<filter id="filter1_dd_863_21374" x="44.5" y="42.75" width="44" height="51.6254" filterUnits="userSpaceOnUse" color-interpolation-filters="sRGB">
<feFlood flood-opacity="0" result="BackgroundImageFix"/>
<feColorMatrix in="SourceAlpha" type="matrix" values="0 0 0 0 0 0 0 0 0 0 0 0 0 0 0 0 0 0 127 0" result="hardAlpha"/>
<feOffset dx="4" dy="6"/>
<feGaussianBlur stdDeviation="2"/>
<feColorMatrix type="matrix" values="0 0 0 0 0 0 0 0 0 0 0 0 0 0 0 0 0 0 0.1 0"/>
<feBlend mode="normal" in2="BackgroundImageFix" result="effect1_dropShadow_863_21374"/>
<feColorMatrix in="SourceAlpha" type="matrix" values="0 0 0 0 0 0 0 0 0 0 0 0 0 0 0 0 0 0 127 0" result="hardAlpha"/>
<feOffset/>
<feGaussianBlur stdDeviation="0.5"/>
<feColorMatrix type="matrix" values="0 0 0 0 0 0 0 0 0 0 0 0 0 0 0 0 0 0 0.4 0"/>
<feBlend mode="normal" in2="effect1_dropShadow_863_21374" result="effect2_dropShadow_863_21374"/>
<feBlend mode="normal" in="SourceGraphic" in2="effect2_dropShadow_863_21374" result="shape"/>
</filter>
<linearGradient id="paint0_linear_863_21374" x1="82.9219" y1="27.5781" x2="105.578" y2="50.2344" gradientUnits="userSpaceOnUse">
<stop stop-opacity="0.2"/>
<stop offset="1" stop-opacity="0"/>
</linearGradient>
</defs>
</svg>
