<svg width="120" height="120" viewBox="0 0 120 120" fill="none" xmlns="http://www.w3.org/2000/svg">
<g filter="url(#filter0_ii_863_21379)">
<path fill-rule="evenodd" clip-rule="evenodd" d="M35.5 10C26.6634 10 19.5 17.1634 19.5 26V94C19.5 102.837 26.6634 110 35.5 110H84.5C93.3366 110 100.5 102.837 100.5 94V35L75.5 10H35.5Z" fill="#F16C00"/>
</g>
<path d="M81.0744 59.901C80.9261 60.6388 80.6341 61.3403 80.215 61.9654C79.8738 62.4841 79.5275 62.8316 79.1806 62.6554C78.8394 62.6554 78.6631 60.4148 78.4975 60.0673C78.2331 59.4648 78.0589 58.8267 77.9806 58.1735C77.8094 56.7948 77.2925 55.581 76.4281 55.0673C75.5694 54.3779 74.3694 53.8591 72.8175 53.511C71.1325 53.1837 69.5438 52.4781 68.1713 51.4473C66.7956 50.4098 65.2488 49.5491 64.39 48.5116C63.5256 47.651 62.8375 47.4741 62.4963 47.651C61.9788 47.8223 61.8081 48.341 61.8081 48.8591V80.9373C61.8081 81.8035 61.6375 82.8354 61.2906 83.8729C60.9494 84.9104 60.7731 85.9416 59.9144 86.9741C59.0556 88.0116 57.8506 88.701 56.3038 89.391C54.7513 90.081 52.8631 90.4285 50.7938 90.5991C48.6602 90.7338 46.5278 90.3178 44.6013 89.391C42.9436 88.6293 41.4752 87.5098 40.3019 86.1129C39.2675 84.7335 38.75 83.3541 38.75 81.6266C38.75 80.0766 39.4437 78.5254 40.99 77.1454C42.3662 75.766 43.9131 74.7291 45.6356 74.2104C47.3538 73.6916 48.9056 73.3498 50.4525 73.3498C52.0044 73.3498 54.41 73.3498 55.615 73.6966C56.8156 74.0391 57.68 74.2154 58.3675 74.3866V43.8554C58.3675 42.8179 58.7094 41.9616 59.2269 41.2723C59.7438 40.5823 60.6025 40.2348 61.4613 40.0641C62.3256 39.8929 63.0138 40.0641 63.5306 40.5829C64.0481 40.9248 63.5306 41.6198 64.2138 42.3041C64.7313 42.9941 65.4194 43.8604 66.2831 44.8923C67.1419 45.9298 68.1713 46.7904 69.5475 47.6516C70.7531 48.5123 71.7875 49.031 72.6463 49.5498C73.5056 49.8923 74.3694 50.2398 75.0575 50.5873C75.745 50.9291 76.6044 51.2716 77.2925 51.7904C77.98 52.3091 78.8444 52.9985 79.6981 54.036C80.5619 55.0735 81.0744 55.9291 81.25 56.966C81.25 58.0035 81.25 59.0354 81.0744 59.8966V59.9016V59.901Z" fill="white"/>
<path d="M98.1545 32.6562H77.8438L100.5 55.3125V35L98.1545 32.6562Z" fill="url(#paint0_linear_863_21379)"/>
<path d="M75.5 35L100.5 35L75.5 10L75.5 35Z" fill="#F9C499"/>
<defs>
<filter id="filter0_ii_863_21379" x="19.5" y="9" width="81" height="102" filterUnits="userSpaceOnUse" color-interpolation-filters="sRGB">
<feFlood flood-opacity="0" result="BackgroundImageFix"/>
<feBlend mode="normal" in="SourceGraphic" in2="BackgroundImageFix" result="shape"/>
<feColorMatrix in="SourceAlpha" type="matrix" values="0 0 0 0 0 0 0 0 0 0 0 0 0 0 0 0 0 0 127 0" result="hardAlpha"/>
<feOffset dy="-2"/>
<feGaussianBlur stdDeviation="0.5"/>
<feComposite in2="hardAlpha" operator="arithmetic" k2="-1" k3="1"/>
<feColorMatrix type="matrix" values="0 0 0 0 0 0 0 0 0 0 0 0 0 0 0 0 0 0 0.3 0"/>
<feBlend mode="normal" in2="shape" result="effect1_innerShadow_863_21379"/>
<feColorMatrix in="SourceAlpha" type="matrix" values="0 0 0 0 0 0 0 0 0 0 0 0 0 0 0 0 0 0 127 0" result="hardAlpha"/>
<feOffset dy="2"/>
<feGaussianBlur stdDeviation="0.5"/>
<feComposite in2="hardAlpha" operator="arithmetic" k2="-1" k3="1"/>
<feColorMatrix type="matrix" values="0 0 0 0 1 0 0 0 0 1 0 0 0 0 1 0 0 0 0.3 0"/>
<feBlend mode="normal" in2="effect1_innerShadow_863_21379" result="effect2_innerShadow_863_21379"/>
</filter>
<linearGradient id="paint0_linear_863_21379" x1="82.9219" y1="27.5781" x2="105.578" y2="50.2344" gradientUnits="userSpaceOnUse">
<stop stop-opacity="0.2"/>
<stop offset="1" stop-opacity="0"/>
</linearGradient>
</defs>
</svg>
